SplineFontDB: 1.0
FontName: LomaOblique
FullName: Loma Oblique
FamilyName: Loma
Weight: Book
Copyright: Copyright (c) NECTEC, 2003. All rights reserved.
Version: 0.9.1; 2003
ItalicAngle: -12
UnderlinePosition: -217
UnderlineWidth: 150
Ascent: 1638
Descent: 410
NeedsXUIDChange: 1
FSType: 0
PfmFamily: 17
TTFWeight: 400
TTFWidth: 5
Panose: 2 11 5 4 2 2 2 2 2 4
LineGap: 0
VLineGap: 0
OS2TypoAscent: 2089
OS2TypoDescent: -430
OS2WinAscent: 2089
OS2WinDescent: 430
ScriptLang: 1
 1 latn 1 dflt 
TableOrder: GPOS 1
	'kern'
LangName: 1024 "Copyright (c) NECTEC, 2003. All rights reserved." "Loma" "Italic" "Nectec UI Italic" "Loma Italic" "Version 0.1; 2003 " "LomaItalic" "SLThaiUI is a trademark of the NECTEC." "" "Mr.Sirichai Lerdvorawut" "" "http://www.opentle.org" "http://www.opentle.org" "GPL" 
LangName: 1033 "" "" "" "Nectec UI -Loma Italic" "" "" "" "SLThaiUI is a trademark of the NECTEC." "" "Mr.Sirichai Lerdvorawut" "" "http://www.opentle.org" "http://www.opentle.org" "GPL" 
Encoding: compacted
OldEncoding: unicode
UnicodeInterp: none
DisplaySize: -24
AntiAlias: 1
FitToEm: 1
WinInfo: 128 16 6
BeginChars: 271 271
StartChar: .notdef
Encoding: 0 -1 0
OldEncoding: 0
Width: 1536
Flags: W
Fore
256 0 m 1
 528 1280 l 1
 1552 1280 l 1
 1280 0 l 1
 256 0 l 1
294 32 m 1
 1254 32 l 1
 1513 1248 l 1
 553 1248 l 1
 294 32 l 1
EndSplineSet
EndChar
StartChar: exclam
Encoding: 3 33 5
OldEncoding: 33
Width: 569
Flags: W
Fore
410 999 m 1
 506 1450 l 1
 686 1450 l 1
 590 999 l 1
 412 365 l 1
 319 365 l 1
 410 999 l 1
247 194 m 1
 411 194 l 1
 370 0 l 1
 206 0 l 1
 247 194 l 1
EndSplineSet
EndChar
StartChar: quotedbl
Encoding: 4 34 6
OldEncoding: 34
Width: 727
Flags: W
Fore
357 947 m 1
 364 1217 l 1
 414 1450 l 1
 594 1450 l 1
 544 1217 l 1
 442 947 l 1
 357 947 l 1
688 947 m 1
 697 1217 l 1
 747 1450 l 1
 927 1450 l 1
 877 1217 l 1
 773 947 l 1
 688 947 l 1
EndSplineSet
EndChar
StartChar: numbersign
Encoding: 5 35 7
OldEncoding: 35
Width: 1139
Flags: W
Fore
84 -10 m 1
 255 385 l 1
 102 385 l 1
 141 565 l 1
 324 565 l 1
 468 895 l 1
 211 895 l 1
 249 1075 l 1
 536 1075 l 1
 707 1470 l 1
 887 1470 l 1
 716 1075 l 1
 995 1075 l 1
 1166 1470 l 1
 1346 1470 l 1
 1175 1075 l 1
 1341 1075 l 1
 1303 895 l 1
 1107 895 l 1
 962 565 l 1
 1233 565 l 1
 1194 385 l 1
 893 385 l 1
 722 -10 l 1
 543 -10 l 1
 713 385 l 1
 435 385 l 1
 264 -10 l 1
 84 -10 l 1
504 565 m 1
 782 565 l 1
 927 895 l 1
 648 895 l 1
 504 565 l 1
EndSplineSet
EndChar
StartChar: dollar
Encoding: 6 36 8
OldEncoding: 36
Width: 1139
Flags: W
Fore
487 -17 m 1
 416.333 -8.33333 354 10.6667 300 40 c 0
 250 66.6667 210.333 109.667 181 169 c 0
 179.667 171.667 178.333 174.667 177 178 c 0
 153 233.333 145.333 296.333 154 367 c 1
 164 417 l 1
 343 417 l 1
 338.333 330.333 349 265 375 221 c 1
 385 207 394 195 402 185 c 0
 432 147 470.333 126.333 517 123 c 1
 629 651 l 1
 622.333 652.333 616.333 653.667 611 655 c 0
 565.667 665 508.333 690.333 439 731 c 1
 387.667 759.667 352 799.667 332 851 c 0
 312.667 903 310.333 963 325 1031 c 0
 349.667 1147.67 415 1243.33 521 1318 c 0
 533 1326 l 0
 603 1371.33 688.667 1399 790 1409 c 1
 807 1488 l 1
 950 1488 l 1
 933 1409 l 1
 947 1408 l 2
 1029 1398.67 1095 1370.33 1145 1323 c 0
 1156.33 1313 1166.67 1302 1176 1290 c 0
 1220.67 1232 1241 1166.67 1237 1094 c 1
 1231 1050 l 1
 1056 1050 l 1
 1060.67 1103.33 1045.33 1153.33 1010 1200 c 2
 1002 1211 l 2
 977.333 1241.67 944.333 1261 903 1269 c 1
 801 790 l 1
 802 789 l 1
 891 762 l 2
 919 754 940 747 954 741 c 0
 1028.67 707.667 1080.33 662 1109 604 c 0
 1137 545.333 1142.67 476.333 1126 397 c 0
 1101.33 281 1041.33 184.667 946 108 c 0
 936.667 100 927 92.6667 917 86 c 0
 831 24.6667 735.333 -9 630 -15 c 1
 608 -118 l 1
 465 -118 l 1
 487 -17 l 1
761 1271 m 1
 746.333 1269 732.667 1266.33 720 1263 c 0
 682 1252.33 642 1228.67 600 1192 c 1
 550 1150 519 1100.67 507 1044 c 0
 495 987.333 502 940 528 902 c 0
 530 898.667 532 895.667 534 893 c 0
 562 855 605 827.333 663 810 c 1
 761 1271 l 1
667 124 m 2
 684.333 126.667 710.667 135.667 746 151 c 0
 778 165 807 183.667 833 207 c 0
 859 230.333 881.667 257 901 287 c 1
 919 317.667 932 350.667 940 386 c 0
 952.667 446 946.333 494.333 921 531 c 1
 895.667 572.333 844.333 605 767 629 c 1
 660 123 l 1
 667 124 l 2
EndSplineSet
EndChar
StartChar: percent
Encoding: 7 37 9
OldEncoding: 37
Width: 1821
Flags: W
Fore
355 1114 m 0
 377.667 1219.33 422.667 1308 490 1380 c 0
 558 1454 642 1491 742 1491 c 0
 837.333 1491 906.667 1458 950 1392 c 0
 995.333 1323.33 1005 1227.33 979 1104 c 0
 953 986 902.333 890.333 827 817 c 1
 755.667 750.333 673.333 717 580 717 c 0
 489.333 717 423 749.667 381 815 c 0
 336.333 884.333 327.667 984 355 1114 c 0
722 1366 m 0
 674.667 1366 633.333 1346.67 598 1308 c 0
 559.333 1266 529.333 1195.33 508 1096 c 0
 488 1001.33 489.333 935 512 897 c 0
 534 859 566.667 840 610 840 c 0
 655.333 840 697.167 859.333 735.5 898 c 128
 773.833 936.667 803.667 1007.33 825 1110 c 0
 845 1204 844.333 1270 823 1308 c 0
 801 1346.67 767.333 1366 722 1366 c 0
1533 1491 m 1
 1713 1491 l 1
 635 -10 l 1
 455 -10 l 1
 1533 1491 l 1
1140 344 m 0
 1162 449.333 1206.67 538 1274 610 c 0
 1343.33 684 1428.33 721 1529 721 c 0
 1623.67 721 1692.67 688 1736 622 c 0
 1782 552 1792 456 1766 334 c 0
 1740.67 212.667 1689.67 117 1613 47 c 0
 1540.33 -19.6667 1457.33 -53 1364 -53 c 0
 1270.67 -53 1204 -20 1164 46 c 0
 1120.67 117.333 1112.67 216.667 1140 344 c 0
1507 598 m 0
 1459 598 1417.33 578.667 1382 540 c 1
 1344.67 497.333 1315.33 426 1294 326 c 0
 1274 232.667 1275 166.667 1297 128 c 0
 1318.33 89.3333 1350.67 70 1394 70 c 0
 1440.67 70 1483 89.3333 1521 128 c 0
 1558.33 166.667 1588 237.333 1610 340 c 0
 1630 434 1629.17 500.5 1607.5 539.5 c 128
 1585.83 578.5 1552.33 598 1507 598 c 0
EndSplineSet
EndChar
StartChar: ampersand
Encoding: 8 38 10
OldEncoding: 38
Width: 1366
Flags: W
Fore
1009 172 m 1
 863.667 40.6667 709.667 -25 547 -25 c 0
 397 -25 288.333 25.6667 221 127 c 1
 167.667 210.333 151.667 302.333 173 403 c 0
 212.333 586.333 359.333 732.667 614 842 c 1
 590 880 570.667 914 556 944 c 0
 541.333 974 530.667 1001.67 524 1027 c 0
 516.667 1052.33 512.833 1075.83 512.5 1097.5 c 128
 512.167 1119.17 514.333 1141 519 1163 c 0
 537.667 1251.67 588.333 1328.33 671 1393 c 0
 753.667 1458.33 847.667 1491 953 1491 c 0
 1051 1491 1125.67 1460.33 1177 1399 c 0
 1228.33 1337.67 1245 1264 1227 1178 c 0
 1197 1038.67 1079.33 919.667 874 821 c 1
 1066 485 l 1
 1108 542.333 1145.33 610.667 1178 690 c 1
 1358 649 l 1
 1298 522.333 1232 417.333 1160 334 c 1
 1208.67 246.667 1269.33 171.667 1342 109 c 1
 1190 -35 l 1
 1128 13 1067.67 82 1009 172 c 1
805 938 m 1
 892.333 982 951.333 1021.67 982 1057 c 0
 1012.67 1092.33 1032.67 1131.33 1042 1174 c 0
 1052.67 1222.67 1045.67 1263 1021 1295 c 0
 995.667 1327 959.333 1343 912 1343 c 0
 864 1343 820.333 1327.33 781 1296 c 0
 741.667 1264.67 717.333 1226.67 708 1182 c 0
 698 1135.33 710 1084.67 744 1030 c 1
 805 938 l 1
684 725 m 1
 574.667 666.333 497.667 612 453 562 c 0
 408.333 512 381 463.333 371 416 c 0
 357.667 354.667 367.333 292.333 400 229 c 1
 434.667 165 495.667 133 583 133 c 0
 609 133 637.667 137.333 669 146 c 0
 700.333 155.333 731.333 168 762 184 c 0
 792.667 200.667 822.333 220 851 242 c 0
 879.667 263.333 904.667 287.667 926 315 c 1
 684 725 l 1
EndSplineSet
EndChar
StartChar: quotesingle
Encoding: 9 39 11
OldEncoding: 39
Width: 391
Flags: W
Fore
337 947 m 1
 349 1221 l 1
 401 1466 l 1
 606 1466 l 1
 554 1221 l 1
 448 947 l 1
 337 947 l 1
EndSplineSet
EndChar
StartChar: parenleft
Encoding: 10 40 12
OldEncoding: 40
Width: 682
Flags: W
Fore
387 -431 m 1
 288.333 -259.667 230 -71 212 135 c 0
 200.667 268.333 208.667 400.333 236 531 c 0
 288 773 393 999 551 1209 c 0
 615.667 1294.33 697 1388.33 795 1491 c 1
 924 1491 l 1
 798 1331.67 709.333 1211.33 658 1130 c 0
 561.333 978 489.667 808.667 443 622 c 0
 435 592 427.667 561.333 421 530 c 0
 353 209.333 384.667 -111 516 -431 c 1
 387 -431 l 1
EndSplineSet
EndChar
StartChar: parenright
Encoding: 11 41 13
OldEncoding: 41
Width: 682
Flags: W
Fore
161 -431 m 1
 32 -431 l 1
 299.333 -111 467 209.333 535 530 c 0
 580.333 742 588.333 931 559 1097 c 0
 542.333 1189.67 504.667 1315.67 446 1475 c 0
 444.667 1479.67 442.667 1485 440 1491 c 1
 569 1491 l 1
 660.333 1321 717.333 1164.67 740 1022 c 0
 764 870.667 757.333 707 720 531 c 0
 667.333 283 546 36.3333 356 -209 c 0
 294.667 -288.333 229.667 -362.333 161 -431 c 1
EndSplineSet
EndChar
StartChar: asterisk
Encoding: 12 42 14
OldEncoding: 42
Width: 797
Flags: W
Fore
318 1197 m 1
 394 1339 l 1
 492 1301.67 562 1269.33 604 1242 c 1
 617.333 1362.67 628.333 1445.67 637 1491 c 1
 782 1491 l 1
 766 1425 741 1342.33 707 1243 c 1
 783 1277.67 868.333 1309.67 963 1339 c 1
 979 1197 l 1
 888.333 1169 801.333 1150.33 718 1141 c 1
 751.333 1105.67 795.333 1042.67 850 952 c 1
 712 867 l 1
 684.667 919.667 654 991.333 620 1082 c 1
 551.333 988 493 916.333 445 867 c 1
 345 952 l 1
 442.333 1047.33 511 1110.33 551 1141 c 1
 468.333 1157.67 390.667 1176.33 318 1197 c 1
EndSplineSet
EndChar
StartChar: plus
Encoding: 13 43 15
OldEncoding: 43
Width: 1196
Flags: W
Fore
563 237 m 1
 648 639 l 1
 249 639 l 1
 285 807 l 1
 684 807 l 1
 769 1206 l 1
 939 1206 l 1
 854 807 l 1
 1253 807 l 1
 1217 639 l 1
 818 639 l 1
 733 237 l 1
 563 237 l 1
EndSplineSet
EndChar
StartChar: comma
Encoding: 14 44 16
OldEncoding: 44
Width: 569
Flags: W
Fore
182 0 m 1
 225 205 l 1
 430 205 l 1
 387 0 l 1
 370.333 -75.3333 344 -136 308 -182 c 0
 271.333 -228.667 221.333 -264.667 158 -290 c 1
 124 -213 l 1
 166 -196.333 199.333 -172 224 -140 c 0
 248.667 -107.333 268.667 -60.6667 284 0 c 1
 182 0 l 1
EndSplineSet
EndChar
StartChar: hyphen
Encoding: 15 45 17
OldEncoding: 45
Width: 682
Flags: W
Fore
158 440 m 1
 196 621 l 1
 749 621 l 1
 711 440 l 1
 158 440 l 1
EndSplineSet
EndChar
StartChar: period
Encoding: 16 46 18
OldEncoding: 46
Width: 569
Flags: W
Fore
186 0 m 1
 229 205 l 1
 434 205 l 1
 391 0 l 1
 186 0 l 1
EndSplineSet
EndChar
StartChar: slash
Encoding: 17 47 19
OldEncoding: 47
Width: 595
Flags: W
Fore
-83 -10 m 1
 818 1470 l 1
 1000 1470 l 1
 99 -10 l 1
 -83 -10 l 1
EndSplineSet
EndChar
StartChar: zero
Encoding: 18 48 20
OldEncoding: 48
Width: 1139
Flags: W
Fore
239 723 m 0
 274.333 889.667 319.667 1026.33 375 1133 c 0
 489 1350.33 655 1459 873 1459 c 0
 1191 1459 1297.67 1213.67 1193 723 c 0
 1154.33 540.333 1103 394.333 1039 285 c 0
 928.333 96.3333 768.667 -2 560 -10 c 1
 496 -10 441 -0.333333 395 19 c 0
 207.667 95 155.667 329.667 239 723 c 0
423 723 m 0
 410.333 662.333 401 607 395 557 c 0
 359.667 279 425.333 140 592 140 c 0
 787.333 140.667 926.333 335 1009 723 c 0
 1092.33 1113.67 1035.67 1309 839 1309 c 0
 763.667 1309 697.667 1283 641 1231 c 1
 549.667 1145 477 975.667 423 723 c 0
EndSplineSet
EndChar
StartChar: one
Encoding: 19 49 21
OldEncoding: 49
Width: 1139
Flags: W
Fore
763 0 m 1
 583 0 l 1
 824 1135 l 1
 767.333 1069 689.333 1012.67 590 966 c 0
 530 937.333 471.667 917.667 415 907 c 1
 457 1104 l 1
 573 1153.33 676.333 1220.67 767 1306 c 0
 827 1363.33 869.667 1418.67 895 1472 c 1
 1075 1472 l 1
 763 0 l 1
EndSplineSet
KernsSLIF: 19 -152 0 0
EndChar
StartChar: two
Encoding: 20 50 22
OldEncoding: 50
Width: 1139
Flags: W
Fore
1067 173 m 1
 1031 0 l 1
 62 0 l 1
 104.667 145.333 225.667 295.333 425 450 c 0
 461.667 478 504 508.667 552 542 c 0
 693.333 641.333 791.333 713.667 846 759 c 0
 964 858.333 1037 955 1065 1049 c 0
 1068.33 1059 1071 1069 1073 1079 c 0
 1090.33 1161 1073.33 1226 1022 1274 c 0
 980.667 1313.33 923.667 1333 851 1333 c 0
 741.667 1333 653.667 1294.33 587 1217 c 0
 545.667 1169 517 1109.67 501 1039 c 1
 316 1039 l 1
 344 1168.33 409.333 1274 512 1356 c 0
 618 1440 743 1482 887 1482 c 0
 1027.67 1482 1131.67 1442.33 1199 1363 c 0
 1263 1289 1282.33 1193 1257 1075 c 0
 1229.67 945 1151.33 821.667 1022 705 c 0
 968 655.667 879.333 587.667 756 501 c 2
 692 455 l 1
 497 317 l 1
 444.333 277.667 394.667 229.667 348 173 c 1
 1067 173 l 1
EndSplineSet
EndChar
StartChar: three
Encoding: 21 51 23
OldEncoding: 51
Width: 1139
Flags: W
Fore
176 427 m 1
 356 427 l 1
 350 383 l 1
 346.667 312.333 370.333 255 421 211 c 0
 464.333 174.333 519.333 156 586 156 c 0
 681.333 156 764 186.667 834 248 c 0
 894 300.667 932.333 366.333 949 445 c 0
 971 547 950 621.667 886 669 c 0
 846 698.333 793 713 727 713 c 0
 684.333 713 638 706.667 588 694 c 1
 622 852 l 1
 675 850 l 1
 762.333 852.667 840.333 880 909 932 c 0
 971 979.333 1009 1037 1023 1105 c 0
 1041 1187.67 1020.33 1247.67 961 1285 c 0
 926.333 1306.33 882 1317 828 1317 c 0
 686 1317 584 1244.33 522 1099 c 1
 511 1070 l 1
 331 1070 l 1
 352.333 1170 406.667 1259 494 1337 c 0
 583.333 1417 685 1464 799 1478 c 0
 819.667 1480.67 840 1482 860 1482 c 0
 976.667 1482 1068.33 1448 1135 1380 c 0
 1201.67 1312 1227 1226.33 1211 1123 c 0
 1210.33 1115.67 1209.33 1108.33 1208 1101 c 0
 1186.67 1001.67 1131.33 918.667 1042 852 c 0
 1010 828.667 976 809.333 940 794 c 1
 1080 760 1150.67 677.333 1152 546 c 0
 1152 516 1148.33 483.667 1141 449 c 0
 1114.33 325 1050 220.333 948 135 c 1
 902 100 l 1
 795.333 26.6667 677.667 -10 549 -10 c 0
 426.333 -10 329.333 28.6667 258 106 c 0
 190.667 178 161 266.667 169 372 c 0
 170.333 390.667 172.667 409 176 427 c 1
EndSplineSet
EndChar
StartChar: four
Encoding: 22 52 24
OldEncoding: 52
Width: 1139
Flags: W
Fore
662 0 m 1
 735 347 l 1
 99 347 l 1
 136 522 l 1
 974 1472 l 1
 1154 1472 l 1
 952 522 l 1
 1150 522 l 1
 1113 347 l 1
 915 347 l 1
 842 0 l 1
 662 0 l 1
772 522 m 1
 899 1117 l 1
 361 522 l 1
 772 522 l 1
EndSplineSet
EndChar
StartChar: five
Encoding: 23 53 25
OldEncoding: 53
Width: 1139
Flags: W
Fore
173 415 m 1
 362 415 l 1
 354 284.333 396.333 202.333 489 169 c 0
 517.667 159 550.667 154 588 154 c 0
 690 154 777.667 191 851 265 c 0
 911 325.667 951 402.667 971 496 c 0
 997 618.667 975.333 708 906 764 c 0
 862 799.333 802 817 726 817 c 0
 627.333 817 535.667 773.333 451 686 c 1
 267 708 l 1
 571 1472 l 1
 1300 1472 l 1
 1262 1292 l 1
 697 1292 l 1
 539 920 l 1
 601.667 964 688.667 986.333 800 987 c 0
 810 987 l 0
 936 987 1032.67 946 1100 864 c 0
 1168.67 780.667 1192.33 673.333 1171 542 c 0
 1169.67 532 1167.67 522 1165 512 c 0
 1135 370 1068 251 964 155 c 1
 859.333 57 738.333 2.66667 601 -8 c 0
 585 -9.33333 569 -10 553 -10 c 0
 392.333 -10 280.667 42.6667 218 148 c 0
 175.333 218.667 160.333 307.667 173 415 c 1
EndSplineSet
EndChar
StartChar: six
Encoding: 24 54 26
OldEncoding: 54
Width: 1139
Flags: W
Fore
1253 1103 m 1
 1074 1103 l 1
 1072.67 1219.67 1020.33 1286 917 1302 c 0
 902.333 1304 886.333 1305 869 1305 c 0
 660.333 1305 520.333 1150.67 449 842 c 1
 526.333 918 619.333 961.667 728 973 c 0
 751.333 975.667 775.667 977 801 977 c 0
 915.667 977 1007 937.333 1075 858 c 1
 1141.67 778.667 1169.67 679 1159 559 c 0
 1157 536.333 1153.67 513.667 1149 491 c 0
 1119.67 354.333 1056.67 239.667 960 147 c 0
 860 51 745.333 -1 616 -9 c 0
 604.667 -9.66667 593.667 -10 583 -10 c 0
 360.333 -10 233 97.3333 201 312 c 0
 185 418 193.333 547.667 226 701 c 0
 306 1078.33 451.333 1319.67 662 1425 c 1
 740 1463 825.333 1482 918 1482 c 0
 1034 1482 1124.33 1446 1189 1374 c 0
 1249 1307.33 1271.67 1225.33 1257 1128 c 0
 1256.33 1120 1255 1111.67 1253 1103 c 1
410 490 m 0
 386.667 381.333 398 295.667 444 233 c 0
 481.333 181 538.333 155 615 155 c 0
 708.333 155 788.333 191 855 263 c 0
 908.333 321 944.333 393.333 963 480 c 0
 986.333 592.667 971.667 679 919 739 c 0
 879 784.333 821.667 807 747 807 c 0
 651 807 570.333 768.667 505 692 c 0
 458.333 637.333 426.667 570 410 490 c 0
EndSplineSet
EndChar
StartChar: seven
Encoding: 25 55 27
OldEncoding: 55
Width: 1139
Flags: W
Fore
371 1292 m 1
 409 1472 l 1
 1358 1472 l 1
 1320 1292 l 1
 1131.33 1111.33 965.333 911.333 822 692 c 0
 660 446 556.333 215.333 511 0 c 1
 293 0 l 1
 344.333 235.333 463.333 494 650 776 c 0
 784 978.667 923.667 1150.67 1069 1292 c 1
 371 1292 l 1
EndSplineSet
EndChar
StartChar: eight
Encoding: 26 56 28
OldEncoding: 56
Width: 1139
Flags: W
Fore
533 805 m 1
 397.667 859 345.333 958.667 376 1104 c 0
 400.667 1218 461 1310.33 557 1381 c 0
 649.667 1448.33 756.667 1482 878 1482 c 0
 1004 1482 1099 1445.33 1163 1372 c 1
 1226.33 1301.33 1246 1210.33 1222 1099 c 0
 1194 967 1110.67 872.667 972 816 c 2
 944 805 l 1
 1072 760.333 1140.67 677.333 1150 556 c 0
 1153.33 518.667 1150.33 478 1141 434 c 1
 1123 368 l 1
 1079 232.667 995.333 131.667 872 65 c 0
 780.667 15 677.667 -10 563 -10 c 0
 421.667 -10 315.333 31 244 113 c 1
 171.333 195 148.333 302 175 434 c 0
 175 436 175.333 437.667 176 439 c 0
 207.333 588.333 287.333 696 416 762 c 0
 452 780.667 491 795 533 805 c 1
561 1110 m 1
 543.667 1026 561.333 963 614 921 c 0
 649.333 893.667 696 880 754 880 c 0
 834.667 880 903 906.667 959 960 c 0
 999.667 998.667 1025.67 1045.33 1037 1100 c 0
 1053.67 1176 1037.67 1235.67 989 1279 c 0
 953 1310.33 905.333 1326 846 1326 c 0
 767.333 1326 699.667 1300.67 643 1250 c 1
 616 1222 l 1
 592 1189 l 1
 574 1151 l 1
 561 1110 l 1
361 438 m 0
 341 346.667 357.667 273.333 411 218 c 0
 456.333 170.667 519 147 599 147 c 0
 697 147 780.667 178.667 850 242 c 0
 904.667 292.667 940 356 956 432 c 0
 978 535.333 953 610.333 881 657 c 0
 837.667 685 780.667 699 710 699 c 0
 601.333 699 513.667 666.333 447 601 c 0
 403 557.667 374.333 503.333 361 438 c 0
EndSplineSet
EndChar
StartChar: nine
Encoding: 27 57 29
OldEncoding: 57
Width: 1139
Flags: W
Fore
217 369 m 1
 396 369 l 1
 397.333 252.333 449.667 186 553 170 c 0
 567.667 168 583.667 167 601 167 c 0
 809.667 167 949.333 321.333 1020 630 c 1
 943.333 554 850.667 510.333 742 499 c 0
 718.667 496.333 694.333 495 669 495 c 0
 554.333 495 463 534.667 395 614 c 1
 328.333 693.333 300.333 793 311 913 c 0
 313 935.667 316.333 958.333 321 981 c 0
 350.333 1117.67 413.333 1232.33 510 1325 c 0
 610 1421 724.667 1473 854 1481 c 0
 865.333 1481.67 876.333 1482 887 1482 c 0
 1109.67 1482 1237 1374.67 1269 1160 c 0
 1285 1054 1276.67 924.333 1244 771 c 0
 1164 393.667 1018.33 152.333 807 47 c 0
 729.667 9 644.667 -10 552 -10 c 0
 436 -10 345.667 26 281 98 c 0
 221 164.667 198.333 246.667 213 344 c 0
 213.667 352 215 360.333 217 369 c 1
1060 982 m 0
 1083.33 1090.67 1072 1176.33 1026 1239 c 0
 988 1291 930.667 1317 854 1317 c 0
 760.667 1317 680.667 1281 614 1209 c 1
 583 1170 l 1
 547 1119.33 521.667 1060 507 992 c 0
 483 879.333 497.667 793 551 733 c 0
 591 687.667 648.333 665 723 665 c 0
 819 665 899.667 703.333 965 780 c 0
 1011.67 834.667 1043.33 902 1060 982 c 0
EndSplineSet
EndChar
StartChar: colon
Encoding: 28 58 30
OldEncoding: 58
Width: 569
Flags: W
Fore
367 857 m 1
 410 1062 l 1
 615 1062 l 1
 572 857 l 1
 367 857 l 1
185 0 m 1
 228 205 l 1
 433 205 l 1
 390 0 l 1
 185 0 l 1
EndSplineSet
EndChar
StartChar: semicolon
Encoding: 29 59 31
OldEncoding: 59
Width: 569
Flags: W
Fore
364 857 m 1
 407 1062 l 1
 612 1062 l 1
 569 857 l 1
 364 857 l 1
182 0 m 1
 225 205 l 1
 430 205 l 1
 387 0 l 1
 361 -120 306.333 -205.667 223 -257 c 0
 203.667 -269.667 182 -280.667 158 -290 c 1
 124 -213 l 1
 184 -189 227.333 -147 254 -87 c 0
 265.333 -63 275.333 -34 284 0 c 1
 182 0 l 1
EndSplineSet
EndChar
StartChar: less
Encoding: 30 60 32
OldEncoding: 60
Width: 1196
Flags: W
Fore
248 641 m 1
 283 809 l 1
 1342 1219 l 1
 1304 1040 l 1
 466 724 l 1
 1169 405 l 1
 1131 226 l 1
 248 641 l 1
EndSplineSet
EndChar
StartChar: equal
Encoding: 31 61 33
OldEncoding: 61
Width: 1196
Flags: W
Fore
1265 862 m 1
 297 862 l 1
 332 1030 l 1
 1300 1030 l 1
 1265 862 l 1
1170 417 m 1
 202 417 l 1
 238 585 l 1
 1206 585 l 1
 1170 417 l 1
EndSplineSet
EndChar
StartChar: greater
Encoding: 32 62 34
OldEncoding: 62
Width: 1196
Flags: W
Fore
1219 641 m 1
 160 226 l 1
 198 405 l 1
 1034 724 l 1
 333 1040 l 1
 371 1219 l 1
 1254 809 l 1
 1219 641 l 1
EndSplineSet
EndChar
StartChar: question
Encoding: 33 63 35
OldEncoding: 63
Width: 1139
Flags: W
Fore
548 361 m 1
 566 436 l 1
 597.333 546.667 655.667 641 741 719 c 0
 761.667 737.667 806.333 773.333 875 826 c 0
 945 879.333 996.333 928 1029 972 c 0
 1056.33 1009.33 1074.67 1048 1084 1088 c 0
 1092 1127.33 1090.33 1164.33 1079 1199 c 0
 1059.67 1263 1015.67 1306 947 1328 c 0
 918.333 1336.67 887 1341 853 1341 c 0
 712.333 1340.33 604.667 1267.67 530 1123 c 0
 518 1099 507 1073.33 497 1046 c 1
 312 1046 l 1
 346.667 1175.33 413.667 1282.33 513 1367 c 0
 620.333 1458.33 744 1504 884 1504 c 0
 1014.67 1504 1117 1466.67 1191 1392 c 0
 1259 1323.33 1287.33 1238.67 1276 1138 c 1
 1266 1084 l 1
 1251.33 1027.33 1224.33 970.667 1185 914 c 0
 1157 874.667 1109.67 830 1043 780 c 0
 973.667 728.667 929 694 909 676 c 0
 819.667 597.333 759.333 501.667 728 389 c 0
 725.333 379.667 723 370.333 721 361 c 1
 548 361 l 1
461 0 m 1
 504 205 l 1
 709 205 l 1
 666 0 l 1
 461 0 l 1
EndSplineSet
EndChar
StartChar: at
Encoding: 34 64 36
OldEncoding: 64
Width: 2079
Flags: W
Fore
1186 121 m 1
 1097.33 38.3333 986.333 -3 853 -3 c 0
 746.333 -3 670 44 624 138 c 0
 580.667 225.333 572.333 333 599 461 c 0
 622.333 570.333 668 671.333 736 764 c 1
 814.667 873.333 905 957 1007 1015 c 0
 1087 1061 1165 1084 1241 1084 c 0
 1383 1084 1473.33 1035.33 1512 938 c 1
 1576 1079 l 1
 1755 1079 l 1
 1460 379 l 1
 1421 283 1421 283 1400 229 c 1
 1398 212 l 1
 1398 202 1402 192 1410 182 c 0
 1421.33 169.333 1436.67 163 1456 163 c 0
 1526 163 1605.67 205.667 1695 291 c 0
 1782.33 374.333 1851.67 470.667 1903 580 c 0
 1925.67 628 1941.67 673.333 1951 716 c 0
 1986.33 884.667 1958.67 1025.33 1868 1138 c 0
 1785.33 1242 1663.33 1305.67 1502 1329 c 0
 1462 1335 1420.33 1338 1377 1338 c 0
 1166.33 1338 974.333 1276 801 1152 c 0
 763.667 1124.67 727.667 1095 693 1063 c 0
 545.667 923.667 444 753.667 388 553 c 0
 382 531 376.667 508.333 372 485 c 0
 315.333 220.333 361.667 22 511 -110 c 0
 634.333 -219.333 817.667 -274 1061 -274 c 0
 1287 -274 1483.33 -224.333 1650 -125 c 0
 1718.67 -83.6667 1778 -35.6667 1828 19 c 1
 2009 19 l 1
 1916.33 -113 1787.33 -219.333 1622 -300 c 0
 1442 -387.333 1245 -431 1031 -431 c 0
 739 -431 518.667 -361.333 370 -222 c 0
 222 -82.6667 162.667 111.667 192 361 c 0
 196 396.333 202 432.333 210 469 c 0
 260 705 364 911 522 1087 c 0
 672.667 1255.67 853 1373 1063 1439 c 0
 1177.67 1475 1296.33 1493 1419 1493 c 0
 1627.67 1493 1796.33 1439.33 1925 1332 c 0
 2045.67 1230.67 2112 1097.67 2124 933 c 0
 2128.67 863 2123 789.667 2107 713 c 0
 2077.67 575 2011.33 439.667 1908 307 c 0
 1810 181 1701.33 88 1582 28 c 0
 1500.67 -12.6667 1422 -33 1346 -33 c 0
 1300 -33 1264.33 -26 1239 -12 c 0
 1213.67 2 1197.33 22 1190 48 c 0
 1184 66.6667 1182.67 91 1186 121 c 1
925 161 m 0
 1019 161 1109.33 207 1196 299 c 0
 1274.67 382.333 1331.33 480.333 1366 593 c 0
 1371.33 611.667 1376 630.333 1380 649 c 0
 1405.33 768.333 1388.67 850 1330 894 c 0
 1301.33 914.667 1264.67 925 1220 925 c 0
 1108 925 1005.33 862.333 912 737 c 0
 894.667 713 878 687.333 862 660 c 0
 854.667 648 847.667 635.667 841 623 c 0
 811.667 567 791 510.333 779 453 c 0
 757 350.333 765.333 272 804 218 c 0
 832 180 872.333 161 925 161 c 0
EndSplineSet
EndChar
StartChar: A
Encoding: 35 65 37
OldEncoding: 65
Width: 1366
Flags: W
Fore
867 1450 m 1
 1076 1450 l 1
 1368 0 l 1
 1149 0 l 1
 1048 471 l 1
 492 471 l 1
 203 0 l 1
 -2 0 l 1
 867 1450 l 1
1041 653 m 1
 921 1237 l 1
 573 653 l 1
 1041 653 l 1
EndSplineSet
KernsSLIF: 91 -37 0 0 89 -37 0 0 88 -37 0 0 59 -152 0 0 57 -76 0 0 56 -152 0 0 54 -152 0 0
EndChar
StartChar: B
Encoding: 36 66 38
OldEncoding: 66
Width: 1366
Flags: W
Fore
164 0 m 1
 472 1450 l 1
 1008 1450 l 2
 1120 1450 1206.67 1435.33 1268 1406 c 0
 1336 1372.67 1382.33 1320.33 1407 1249 c 0
 1425 1196.33 1427.67 1139.67 1415 1079 c 0
 1402.33 1019 1373 961.333 1327 906 c 0
 1281 850.667 1220.33 806 1145 772 c 1
 1227.67 746 1286.33 701.667 1321 639 c 0
 1355 576.333 1363.33 503.667 1346 421 c 0
 1326 325.667 1279.33 240 1206 164 c 0
 1180.67 137.333 1154 115 1126 97 c 0
 1076.67 65 1018.33 40.6667 951 24 c 0
 883 8 802.333 0 709 0 c 2
 164 0 l 1
522 842 m 1
 839 842 l 2
 925 842 988 847.667 1028 859 c 0
 1133.33 888.333 1197 954 1219 1056 c 0
 1235.67 1136 1220 1195 1172 1233 c 0
 1158.67 1243 1143.33 1250.67 1126 1256 c 0
 1086 1270 1013.33 1277 908 1277 c 2
 615 1277 l 1
 522 842 l 1
380 173 m 1
 745 173 l 2
 833.667 173 898.333 179.667 939 193 c 0
 957.667 199 977.667 208 999 220 c 0
 1065.67 256.667 1111.33 312 1136 386 c 0
 1139.33 397.333 1142.33 409 1145 421 c 0
 1163.67 509.667 1143.33 575.667 1084 619 c 0
 1069.33 629.667 1052.67 638 1034 644 c 0
 988 660.667 918.333 669 825 669 c 2
 486 669 l 1
 380 173 l 1
EndSplineSet
EndChar
StartChar: C
Encoding: 37 67 39
OldEncoding: 67
Width: 1479
Flags: W
Fore
1312 480 m 1
 1500 480 l 1
 1409.33 287.333 1284 150 1124 68 c 0
 1021.33 16 909.333 -10 788 -10 c 0
 630 -10 508.667 22 424 86 c 0
 338 150.667 282.333 244 257 366 c 0
 231 488 232 614.333 260 745 c 0
 290 887.667 346.667 1016 430 1130 c 0
 512 1243.33 613 1329.33 733 1388 c 0
 853 1447.33 977.667 1477 1107 1477 c 0
 1253.67 1477 1369.33 1439.67 1454 1365 c 0
 1538 1290.33 1585.33 1185.33 1596 1050 c 1
 1408 1050 l 1
 1396.67 1170.67 1329.33 1247.33 1206 1280 c 0
 1164 1291.33 1117 1297 1065 1297 c 0
 952.333 1297 852.667 1270 766 1216 c 0
 605.333 1116.67 502.333 960 457 746 c 0
 433.667 634.667 433.333 530.667 456 434 c 0
 486 309.333 559.667 228.333 677 191 c 0
 721.667 177 770.667 170 824 170 c 0
 950 170 1060.33 204 1155 272 c 0
 1233.67 328 1286 397.333 1312 480 c 1
EndSplineSet
EndChar
StartChar: D
Encoding: 38 68 40
OldEncoding: 68
Width: 1479
Flags: W
Fore
168 0 m 1
 476 1450 l 1
 981 1450 l 2
 1280.33 1450 1464.33 1362 1533 1186 c 0
 1575.67 1076.67 1576.33 925.667 1535 733 c 0
 1447 318.333 1233.33 79.6667 894 17 c 0
 832.667 5.66667 767 4.33681e-19 697 0 c 2
 168 0 l 1
386 173 m 1
 711 173 l 2
 1034.33 173 1239.67 344 1327 686 c 0
 1333 710 1333 710 1339 736 c 0
 1409.67 1068.67 1302 1248 1016 1274 c 0
 992 1276 967 1277 941 1277 c 2
 621 1277 l 1
 386 173 l 1
EndSplineSet
EndChar
StartChar: E
Encoding: 39 69 41
OldEncoding: 69
Width: 1366
Flags: W
Fore
162 0 m 1
 470 1450 l 1
 1530 1450 l 1
 1491 1268 l 1
 610 1268 l 1
 516 826 l 1
 1196 826 l 1
 1158 646 l 1
 478 646 l 1
 379 179 l 1
 1260 179 l 1
 1222 0 l 1
 162 0 l 1
EndSplineSet
EndChar
StartChar: F
Encoding: 40 70 42
OldEncoding: 70
Width: 1251
Flags: W
Fore
168 0 m 1
 476 1450 l 1
 1465 1450 l 1
 1427 1271 l 1
 617 1271 l 1
 521 820 l 1
 1183 820 l 1
 1145 641 l 1
 483 641 l 1
 347 0 l 1
 168 0 l 1
EndSplineSet
KernsSLIF: 35 -113 0 0 16 -227 0 0 14 -227 0 0
EndChar
StartChar: G
Encoding: 41 71 43
OldEncoding: 71
Width: 1479
Flags: W
Fore
1549 684 m 1
 1546.33 672 1544 660.667 1542 650 c 0
 1508 497.333 1470.67 387.333 1430 320 c 0
 1402.67 276 1357.33 224 1294 164 c 0
 1286 156 l 0
 1163.33 45.3333 997.333 -10 788 -10 c 0
 630 -10 508.667 22 424 86 c 0
 338 150.667 282.333 244 257 366 c 0
 231 488 232 614.333 260 745 c 0
 290 887.667 346.667 1016 430 1130 c 0
 512 1243.33 613 1329.33 733 1388 c 0
 853 1447.33 977.667 1477 1107 1477 c 0
 1253.67 1477 1369.33 1439.67 1454 1365 c 0
 1538 1290.33 1585.33 1185.33 1596 1050 c 1
 1408 1050 l 1
 1404 1086.67 1395.33 1119.33 1382 1148 c 1
 1332.67 1247.33 1227 1297 1065 1297 c 0
 952.333 1297 852.667 1270 766 1216 c 0
 605.333 1116.67 502.333 960 457 746 c 0
 433.667 634.667 433.333 530.667 456 434 c 0
 465.333 394 479.667 358.333 499 327 c 0
 563 222.333 671.333 170 824 170 c 0
 833.333 170 842.667 170.333 852 171 c 0
 976 176.333 1082.67 214 1172 284 c 1
 1189 299 l 2
 1247 349.667 1286.67 405 1308 465 c 1
 1319 504 l 1
 1012 504 l 1
 1050 684 l 1
 1549 684 l 1
EndSplineSet
EndChar
StartChar: H
Encoding: 42 72 44
OldEncoding: 72
Width: 1479
Flags: W
Fore
164 0 m 1
 472 1450 l 1
 652 1450 l 1
 524 848 l 1
 1314 848 l 1
 1442 1450 l 1
 1622 1450 l 1
 1314 0 l 1
 1134 0 l 1
 1275 668 l 1
 485 668 l 1
 344 0 l 1
 164 0 l 1
EndSplineSet
EndChar
StartChar: I
Encoding: 43 73 45
OldEncoding: 73
Width: 650
Flags: W
Fore
659 160 m 1
 625 0 l 1
 25 0 l 1
 59 160 l 1
 269 160 l 1
 509 1290 l 1
 299 1290 l 1
 333 1450 l 1
 933 1450 l 1
 899 1290 l 1
 689 1290 l 1
 449 160 l 1
 659 160 l 1
EndSplineSet
EndChar
StartChar: J
Encoding: 44 74 46
OldEncoding: 74
Width: 1024
Flags: W
Fore
1173 1450 m 1
 961 456 l 1
 935 331.333 897 236.667 847 172 c 0
 835.667 157.333 823.333 143 810 129 c 0
 729.333 47 629.667 1.33333 511 -8 c 1
 460 -10 l 1
 335.333 -10 246 24 192 92 c 0
 185.333 100 179 108.667 173 118 c 0
 135.667 176 126.667 263.667 146 381 c 0
 149.333 402.333 154 427 160 455 c 1
 340 455 l 1
 327 378 l 1
 319.667 322.667 325 278.667 343 246 c 0
 370.333 195.333 422 170 498 170 c 0
 556 170 604.667 183 644 209 c 0
 661.333 220.333 679.333 234.667 698 252 c 0
 729.333 281.333 753.667 333.333 771 408 c 0
 774 421 774 421 785 471 c 1
 957 1280 l 1
 680 1280 l 1
 716 1450 l 1
 1173 1450 l 1
EndSplineSet
EndChar
StartChar: K
Encoding: 45 75 47
OldEncoding: 75
Width: 1366
Flags: W
Fore
150 0 m 1
 458 1450 l 1
 638 1450 l 1
 496 785 l 1
 1380 1450 l 1
 1624 1450 l 1
 781 806 l 1
 1346 0 l 1
 1113 0 l 1
 621 670 l 1
 444 539 l 1
 330 0 l 1
 150 0 l 1
EndSplineSet
EndChar
StartChar: L
Encoding: 46 76 48
OldEncoding: 76
Width: 1139
Flags: W
Fore
150 0 m 1
 458 1450 l 1
 638 1450 l 1
 366 170 l 1
 1096 170 l 1
 1060 0 l 1
 150 0 l 1
EndSplineSet
KernsSLIF: 91 -76 0 0 59 -152 0 0 57 -152 0 0 56 -152 0 0 54 -152 0 0
EndChar
StartChar: M
Encoding: 47 77 49
OldEncoding: 77
Width: 1706
Flags: W
Fore
152 0 m 1
 460 1450 l 1
 640 1450 l 1
 879 133 l 1
 1678 1450 l 1
 1858 1450 l 1
 1550 0 l 1
 1370 0 l 1
 1574 964 l 1
 996 0 l 1
 706 0 l 1
 536 964 l 1
 332 0 l 1
 152 0 l 1
EndSplineSet
EndChar
StartChar: N
Encoding: 48 78 50
OldEncoding: 78
Width: 1479
Flags: W
Fore
156 0 m 1
 464 1450 l 1
 644 1450 l 1
 1197 315 l 1
 1439 1450 l 1
 1619 1450 l 1
 1311 0 l 1
 1131 0 l 1
 577 1136 l 1
 336 0 l 1
 156 0 l 1
EndSplineSet
EndChar
StartChar: O
Encoding: 49 79 51
OldEncoding: 79
Width: 1593
Flags: W
Fore
255 714 m 0
 305 949.333 406 1135 558 1271 c 1
 714 1407 899.667 1476 1115 1478 c 1
 1314.33 1478 1463 1416.33 1561 1293 c 0
 1655 1175.67 1690.33 1019.67 1667 825 c 0
 1663 794.333 1657.67 763 1651 731 c 0
 1607 524.333 1515 354.333 1375 221 c 0
 1241.67 93 1083.33 18 900 -4 c 0
 866 -8 831.667 -10 797 -10 c 0
 607 -10 461.667 48.3333 361 165 c 0
 268.333 271.667 227 410 237 580 c 0
 239.667 624 245.667 668.667 255 714 c 0
455 711 m 0
 415.667 527.667 437.667 387.667 521 291 c 0
 590.333 210.333 695 170 835 170 c 0
 1013.67 170 1159.67 232.667 1273 358 c 0
 1359 453.333 1418.33 578 1451 732 c 0
 1492.33 926.667 1471.33 1074.33 1388 1175 c 0
 1320 1257 1216.33 1298 1077 1298 c 0
 853.667 1298 685.333 1205.67 572 1021 c 0
 519.333 935.667 480.333 832.333 455 711 c 0
EndSplineSet
EndChar
StartChar: P
Encoding: 50 80 52
OldEncoding: 80
Width: 1366
Flags: W
Fore
158 0 m 1
 466 1450 l 1
 1019 1450 l 2
 1153.67 1450 1249.67 1440.33 1307 1421 c 0
 1343 1409 1375.67 1391.33 1405 1368 c 0
 1461.67 1322 1494.33 1255.33 1503 1168 c 0
 1507.67 1122.67 1505 1075.33 1495 1026 c 0
 1468.33 901.333 1406 796 1308 710 c 0
 1210.67 623.333 1058.33 580 851 580 c 2
 461 580 l 1
 338 0 l 1
 158 0 l 1
498 753 m 1
 891 753 l 2
 1016.33 753 1110 776.333 1172 823 c 0
 1234.67 869.667 1275 935.333 1293 1020 c 0
 1311.67 1106.67 1297 1174 1249 1222 c 1
 1223 1243 l 1
 1208.33 1251.67 1192.67 1258.67 1176 1264 c 0
 1145.33 1272.67 1086 1277 998 1277 c 2
 609 1277 l 1
 498 753 l 1
EndSplineSet
KernsSLIF: 35 -152 0 0 16 -264 0 0 14 -264 0 0
EndChar
StartChar: Q
Encoding: 51 81 53
OldEncoding: 81
Width: 1659
Flags: W
Fore
1269 354 m 1
 1342.33 426 1398.33 532.333 1437 673 c 0
 1442.33 692.333 1447 712 1451 732 c 0
 1492.33 926.667 1471.33 1074.33 1388 1175 c 0
 1320 1257 1216.33 1298 1077 1298 c 0
 853.667 1298 685.333 1205.67 572 1021 c 0
 519.333 935.667 480.333 832.333 455 711 c 0
 415.667 527 437.667 386.667 521 290 c 0
 541.667 266.667 565 246.667 591 230 c 1
 631 314 697 378.667 789 424 c 1
 830.333 445.333 874.333 460 921 468 c 0
 945.667 472.667 970.333 475 995 475 c 0
 1086.33 474.333 1163 449 1225 399 c 0
 1243 385 1257.67 370 1269 354 c 1
1360 204 m 1
 1372.67 185.333 1395 175.667 1427 175 c 0
 1441 175 1456.33 177 1473 181 c 0
 1513.67 190.333 1549.67 206 1581 228 c 1
 1678 90 l 1
 1589.33 20.6667 1495.33 -14 1396 -14 c 0
 1340.67 -14 1291.33 -2.66667 1248 20 c 0
 1214.67 38 1190 60.6667 1174 88 c 1
 1084.67 36 994 5 902 -5 c 1
 817 -10 l 2
 797 -10 l 0
 607 -10 461.667 48.3333 361 165 c 0
 268.333 271.667 227 410 237 580 c 0
 239.667 624 245.667 668.667 255 714 c 0
 305 949.333 406 1135 558 1271 c 1
 714 1407 899.667 1476 1115 1478 c 1
 1314.33 1478 1463 1416.33 1561 1293 c 0
 1655 1175.67 1690.33 1019.67 1667 825 c 0
 1663 794.333 1657.67 763 1651 731 c 0
 1607 525.667 1534.67 370.667 1434 266 c 1
 1410 242 1385.33 221.333 1360 204 c 1
1098 226 m 1
 1068 273.333 1025.67 297 971 297 c 0
 960.333 297 949.333 296 938 294 c 0
 866 280.667 812.667 243 778 181 c 0
 776.667 178.333 775.333 176 774 174 c 1
 790 169.333 811.333 167 838 167 c 0
 914.667 167.667 984.667 179.333 1048 202 c 0
 1068 209.333 1084.67 217.333 1098 226 c 1
EndSplineSet
EndChar
StartChar: R
Encoding: 52 82 54
OldEncoding: 82
Width: 1400
Flags: W
Fore
821 580 m 1
 461 580 l 1
 338 0 l 1
 158 0 l 1
 466 1450 l 1
 1019 1450 l 2
 1153.67 1450 1249.67 1440.33 1307 1421 c 0
 1343 1409 1375.67 1391.33 1405 1368 c 0
 1461.67 1322 1494.33 1255.33 1503 1168 c 0
 1507.67 1122.67 1505 1075.33 1495 1026 c 0
 1468.33 901.333 1406 796 1308 710 c 0
 1245.33 654 1159.33 616 1050 596 c 1
 1387 0 l 1
 1107 0 l 1
 821 580 l 1
498 753 m 1
 891 753 l 2
 1016.33 753 1110 776.333 1172 823 c 0
 1234.67 869.667 1275 935.333 1293 1020 c 0
 1311.67 1106.67 1297 1174 1249 1222 c 1
 1223 1243 l 1
 1208.33 1251.67 1192.67 1258.67 1176 1264 c 0
 1145.33 1272.67 1086 1277 998 1277 c 2
 609 1277 l 1
 498 753 l 1
EndSplineSet
KernsSLIF: 59 -37 0 0 57 -37 0 0 56 -37 0 0 54 -37 0 0
EndChar
StartChar: S
Encoding: 53 83 55
OldEncoding: 83
Width: 1366
Flags: W
Fore
198 502 m 1
 381 502 l 1
 366.333 346 423.667 243.333 553 194 c 0
 605 174 668 164 742 164 c 0
 862.667 164 963 191 1043 245 c 1
 1106.33 289 1145 345 1159 413 c 0
 1177 495.667 1147.67 555.333 1071 592 c 0
 1049 602.667 1021 612.667 987 622 c 1
 780 666 l 1
 635.333 703.333 534 741.667 476 781 c 0
 387.333 841 352 927.667 370 1041 c 0
 374 1067 l 0
 400.667 1193 473.667 1293 593 1367 c 0
 703 1436.33 830.667 1471 976 1471 c 0
 1137.33 1471 1260.33 1428 1345 1342 c 0
 1361 1325.33 1375.33 1307 1388 1287 c 1
 1410 1245 l 1
 1432 1195 1441.33 1139.33 1438 1078 c 1
 1431 1019 l 1
 1245 1019 l 1
 1254.33 1115 1226.33 1188.67 1161 1240 c 0
 1109 1280 1038 1300 948 1300 c 0
 807.333 1300 702.333 1267.33 633 1202 c 0
 597 1168 574 1127.33 564 1080 c 0
 548.667 1008.67 572.333 956.333 635 923 c 0
 665.667 906.333 728.667 887 824 865 c 0
 841.333 861 855 858 865 856 c 0
 1016.33 820 1118.67 790.667 1172 768 c 0
 1270 727.333 1329.67 670.667 1351 598 c 0
 1364.33 551.333 1364 495 1350 429 c 0
 1322.67 302.333 1250.33 198.333 1133 117 c 0
 1023.67 40.3333 897 -1.66667 753 -9 c 0
 739.667 -9.66667 726.667 -10 714 -10 c 0
 474 -10 315 55.3333 237 186 c 0
 187 268.667 174 374 198 502 c 1
EndSplineSet
EndChar
StartChar: T
Encoding: 54 84 56
OldEncoding: 84
Width: 1251
Flags: W
Fore
538 0 m 1
 810 1280 l 1
 320 1280 l 1
 356 1450 l 1
 1518 1450 l 1
 1482 1280 l 1
 990 1280 l 1
 718 0 l 1
 538 0 l 1
EndSplineSet
KernsSLIF: 91 -113 0 0 89 -113 0 0 87 -76 0 0 85 -227 0 0 84 -76 0 0 81 -227 0 0 75 -76 0 0 71 -227 0 0 69 -227 0 0 67 -227 0 0 49 -37 0 0 35 -152 0 0 29 -227 0 0 28 -227 0 0 16 -227 0 0 15 -113 0 0 14 -227 0 0
EndChar
StartChar: U
Encoding: 55 85 57
OldEncoding: 85
Width: 1479
Flags: W
Fore
1442 1450 m 1
 1622 1450 l 1
 1434 567 l 2
 1352 182.333 1120 -10 738 -10 c 0
 388 -10 229.667 146.667 263 460 c 0
 267 494 273 529.667 281 567 c 2
 469 1450 l 1
 649 1450 l 1
 461 568 l 1
 415 349.333 478.667 220.667 652 182 c 0
 688 174 728.333 170 773 170 c 0
 953.667 170 1083.33 226 1162 338 c 1
 1203.33 395.333 1234 472 1254 568 c 1
 1442 1450 l 1
EndSplineSet
EndChar
StartChar: V
Encoding: 56 86 58
OldEncoding: 86
Width: 1366
Flags: W
Fore
577 0 m 1
 317 1450 l 1
 527 1450 l 1
 736 279 l 1
 1460 1450 l 1
 1658 1450 l 1
 776 0 l 1
 577 0 l 1
EndSplineSet
KernsSLIF: 91 -76 0 0 87 -76 0 0 84 -76 0 0 81 -113 0 0 75 -37 0 0 71 -113 0 0 67 -152 0 0 35 -152 0 0 29 -76 0 0 28 -76 0 0 16 -188 0 0 15 -113 0 0 14 -188 0 0
EndChar
StartChar: W
Encoding: 57 87 59
OldEncoding: 87
Width: 1933
Flags: W
Fore
414 0 m 1
 333 1450 l 1
 532 1450 l 1
 595 390 l 1
 1142 1450 l 1
 1396 1450 l 1
 1491 390 l 1
 2006 1450 l 1
 2205 1450 l 1
 1508 0 l 1
 1310 0 l 1
 1209 1170 l 1
 612 0 l 1
 414 0 l 1
EndSplineSet
KernsSLIF: 91 -18 0 0 87 -37 0 0 84 -37 0 0 81 -37 0 0 71 -37 0 0 67 -76 0 0 35 -76 0 0 29 -37 0 0 28 -37 0 0 16 -113 0 0 15 -37 0 0 14 -113 0 0
EndChar
StartChar: X
Encoding: 58 88 60
OldEncoding: 88
Width: 1366
Flags: W
Fore
9 0 m 1
 724 756 l 1
 384 1450 l 1
 614 1450 l 1
 872 902 l 1
 1391 1450 l 1
 1621 1450 l 1
 958 756 l 1
 1353 0 l 1
 1123 0 l 1
 811 613 l 1
 239 0 l 1
 9 0 l 1
EndSplineSet
EndChar
StartChar: Y
Encoding: 59 89 61
OldEncoding: 89
Width: 1366
Flags: W
Fore
571 0 m 1
 702 621 l 1
 314 1451 l 1
 544 1451 l 1
 861 855 l 1
 1428 1451 l 1
 1658 1451 l 1
 896 621 l 1
 765 0 l 1
 571 0 l 1
EndSplineSet
KernsSLIF: 88 -113 0 0 87 -113 0 0 83 -188 0 0 82 -152 0 0 81 -188 0 0 75 -76 0 0 71 -188 0 0 67 -152 0 0 35 -152 0 0 29 -133 0 0 28 -113 0 0 16 -264 0 0 15 -188 0 0 14 -264 0 0
EndChar
StartChar: Z
Encoding: 60 90 62
OldEncoding: 90
Width: 1251
Flags: W
Fore
41 0 m 1
 80 187 l 1
 1214 1270 l 1
 314 1270 l 1
 353 1450 l 1
 1521 1450 l 1
 1482 1270 l 1
 363 180 l 1
 1238 180 l 1
 1200 0 l 1
 41 0 l 1
EndSplineSet
EndChar
StartChar: bracketleft
Encoding: 61 91 63
OldEncoding: 91
Width: 569
Flags: W
Fore
52 -407 m 1
 450 1466 l 1
 847 1466 l 1
 815 1317 l 1
 598 1317 l 1
 264 -258 l 1
 481 -258 l 1
 449 -407 l 1
 52 -407 l 1
EndSplineSet
EndChar
StartChar: backslash
Encoding: 62 92 64
OldEncoding: 92
Width: 569
Flags: W
Fore
419 -25 m 1
 316 1491 l 1
 461 1491 l 1
 563 -25 l 1
 419 -25 l 1
EndSplineSet
EndChar
StartChar: bracketright
Encoding: 63 93 65
OldEncoding: 93
Width: 569
Flags: W
Fore
349 -407 m 1
 -47 -407 l 1
 -15 -258 l 1
 201 -258 l 1
 535 1317 l 1
 318 1317 l 1
 350 1466 l 1
 747 1466 l 1
 349 -407 l 1
EndSplineSet
EndChar
StartChar: asciicircum
Encoding: 64 94 66
OldEncoding: 94
Width: 961
Flags: W
Fore
385 690 m 1
 200 690 l 1
 723 1491 l 1
 868 1491 l 1
 1053 690 l 1
 872 690 l 1
 752 1287 l 1
 385 690 l 1
EndSplineSet
EndChar
StartChar: underscore
Encoding: 65 95 67
OldEncoding: 95
Width: 1139
Flags: W
Fore
-117 -407 m 1
 -89 -277 l 1
 1103 -277 l 1
 1075 -407 l 1
 -117 -407 l 1
EndSplineSet
EndChar
StartChar: grave
Encoding: 66 96 68
OldEncoding: 96
Width: 682
Flags: W
Fore
718 1194 m 1
 573 1194 l 1
 402 1474 l 1
 643 1474 l 1
 718 1194 l 1
EndSplineSet
EndChar
StartChar: a
Encoding: 67 97 69
OldEncoding: 97
Width: 1139
Flags: W
Fore
855 131 m 1
 776.333 74.3333 704 34.3333 638 11 c 0
 570.667 -12.3333 501.667 -24 431 -24 c 0
 314.333 -24 231 4.66667 181 62 c 0
 130.333 118.667 114.333 191.333 133 280 c 0
 144.333 332 166.333 379.333 199 422 c 0
 231.667 465.333 269.667 500 313 526 c 0
 357.667 552 405.333 571.667 456 585 c 0
 493.333 594.333 548.667 603.333 622 612 c 0
 770.667 629.333 882 650 956 674 c 1
 962 698.667 965.667 714.333 967 721 c 0
 982.333 794.333 976.333 846 949 876 c 0
 911.667 916.667 847.667 937 757 937 c 0
 672.333 937 606.333 922 559 892 c 0
 513 862.667 472.333 810.333 437 735 c 1
 266 759 l 1
 298 834.333 337.333 895.333 384 942 c 0
 430 988 490.333 1023.33 565 1048 c 0
 639.667 1073.33 722.667 1086 814 1086 c 0
 904.667 1086 976.333 1075.33 1029 1054 c 0
 1081 1032.67 1117 1006 1137 974 c 0
 1156.33 941.333 1166 900.333 1166 851 c 0
 1166 820.333 1157.33 765 1140 685 c 1
 1089 445 l 2
 1053.67 277.667 1035 172 1033 128 c 0
 1031 83.3333 1037.33 40.6667 1052 0 c 1
 864 0 l 1
 852.667 37.3333 849.667 81 855 131 c 1
926 533 m 1
 854.667 506.333 751.667 483.667 617 465 c 0
 541 454.333 486.333 442.333 453 429 c 0
 419 415.667 391 396 369 370 c 0
 347 344.667 332.667 316.333 326 285 c 0
 316 237 325.667 197 355 165 c 0
 384.333 133 434 117 504 117 c 0
 573.333 117 638.333 132 699 162 c 0
 759.667 192.667 808.333 234.333 845 287 c 0
 872.333 327.667 894.667 387.667 912 467 c 1
 926 533 l 1
EndSplineSet
EndChar
StartChar: b
Encoding: 68 98 70
OldEncoding: 98
Width: 1139
Flags: W
Fore
301 0 m 1
 134 0 l 1
 445 1466 l 1
 625 1466 l 1
 514 943 l 1
 610 1038.33 717 1086 835 1086 c 0
 977 1086 1078 1032 1138 924 c 0
 1192 824.667 1203 699 1171 547 c 0
 1133.67 371.667 1059.33 233 948 131 c 0
 846 37 727.667 -10 593 -10 c 0
 487 -10 406.333 21.3333 351 84 c 0
 341.667 94.6667 333.333 106.333 326 119 c 1
 301 0 l 1
426 539 m 0
 393.333 385 408 274 470 206 c 0
 505.333 168 552.667 149 612 149 c 0
 716.667 149.667 805.667 192.667 879 278 c 1
 935 344.667 974 429.333 996 532 c 0
 1027.33 681.333 1012 789.667 950 857 c 0
 910.667 899.667 855.333 921 784 921 c 0
 712 921 643 888.667 577 824 c 0
 501 750 450.667 655 426 539 c 0
EndSplineSet
EndChar
StartChar: c
Encoding: 69 99 71
OldEncoding: 99
Width: 1024
Flags: W
Fore
913 403 m 1
 1090 403 l 1
 1050.67 243.667 967.667 128.667 841 58 c 0
 759 12.6667 665.333 -10 560 -10 c 0
 434 -10 335.667 31 265 113 c 0
 186.333 205 159.333 329 184 485 c 0
 186 499 188.667 513 192 527 c 0
 231.333 714.333 311 858 431 958 c 0
 533.667 1043.33 654.667 1086 794 1086 c 0
 959.333 1086 1069 1036 1123 936 c 0
 1155 878 1165.33 805.667 1154 719 c 0
 1153.33 711.667 1152 704 1150 696 c 1
 975 696 l 1
 983 764.667 963 820.667 915 864 c 0
 875.667 898.667 825.667 916 765 916 c 0
 575 916 449.667 805 389 583 c 1
 378 532 l 2
 346.667 385.333 365 280 433 216 c 0
 473 178.667 527 160 595 160 c 0
 724.333 160.667 817 207.333 873 300 c 0
 891 330 904.333 364.333 913 403 c 1
EndSplineSet
EndChar
StartChar: d
Encoding: 70 100 72
OldEncoding: 100
Width: 1139
Flags: W
Fore
824 0 m 1
 849 122 l 1
 770.333 34 662 -10 524 -10 c 0
 387.333 -10 288 40.6667 226 142 c 0
 166 238 150 361 178 511 c 0
 179.333 517.667 180.667 524 182 530 c 0
 217.333 696.667 286.333 831 389 933 c 0
 491 1035 611 1086 749 1086 c 0
 878.333 1086 966 1045.67 1012 965 c 1
 1015 958 l 1
 1123 1466 l 1
 1302 1466 l 1
 991 0 l 1
 824 0 l 1
367 530 m 0
 335 378 351 269 415 203 c 0
 453 163.667 506 144 574 144 c 0
 633.333 144 694.333 170.667 757 224 c 0
 838.333 293.333 893.333 384 922 496 c 0
 923.333 502 924.667 508.333 926 515 c 0
 956 656.333 945.333 764 894 838 c 0
 857.333 890.667 805.333 917 738 917 c 0
 617.333 917 522 861.333 452 750 c 0
 414 690 385.667 616.667 367 530 c 0
EndSplineSet
EndChar
StartChar: e
Encoding: 71 101 73
OldEncoding: 101
Width: 1139
Flags: W
Fore
932 333 m 1
 1118 333 l 1
 1069.33 213.667 988.667 123.333 876 62 c 0
 801.333 21.3333 719 -2 629 -8 c 0
 611.667 -9.33333 594.667 -10 578 -10 c 0
 390.667 -10 266.667 52.3333 206 177 c 0
 162 265.667 155 380.667 185 522 c 0
 224.333 705.333 303.667 847.667 423 949 c 0
 529.667 1040.33 655.667 1086 801 1086 c 0
 967.667 1086 1081 1026 1141 906 c 0
 1189.67 808 1197.33 679.333 1164 520 c 0
 1160 502 1160 502 1156 485 c 1
 370 485 l 1
 336.667 311.667 380.667 205.667 502 167 c 0
 534.667 157 572 152 614 152 c 0
 754 152 856 205 920 311 c 0
 932 333 l 1
408 649 m 1
 999 649 l 1
 1016.33 789.667 969 874.667 857 904 c 0
 830.333 910.667 800.333 914 767 914 c 0
 684.333 914 608.667 889 540 839 c 0
 474 790.333 430 727 408 649 c 1
EndSplineSet
EndChar
StartChar: f
Encoding: 72 102 74
OldEncoding: 102
Width: 569
Flags: W
Fore
178 0 m 1
 344 785 l 1
 185 785 l 1
 215 925 l 1
 374 925 l 1
 427 1175 l 1
 457.667 1318.33 527 1418 635 1474 c 0
 688.333 1501.33 746.333 1515 809 1515 c 0
 859.667 1515 908.667 1506 956 1488 c 1
 919 1316 l 1
 868.333 1334 824 1343 786 1343 c 0
 763.333 1343.67 742.667 1340.67 724 1334 c 0
 663.333 1312 623 1254 603 1160 c 2
 553 925 l 1
 732 925 l 1
 702 785 l 1
 523 785 l 1
 357 0 l 1
 178 0 l 1
EndSplineSet
KernsSLIF: 72 -37 0 0
EndChar
StartChar: g
Encoding: 73 103 75
OldEncoding: 103
Width: 1139
Flags: W
Fore
86 -74 m 1
 261 -74 l 1
 255 -115 l 1
 253 -186.333 290.667 -233.333 368 -256 c 0
 396.667 -264 428.667 -268 464 -268 c 0
 584.667 -268 675.333 -227.333 736 -146 c 0
 783.333 -84 820.333 9.33333 847 134 c 0
 847 135.333 847.333 137 848 139 c 1
 750 46.3333 642.333 3.46945e-18 525 0 c 0
 379 0 275.333 54.3333 214 163 c 0
 158.667 261 147.333 385.667 180 537 c 0
 213.333 695 280 824.333 380 925 c 0
 486 1032.33 611.333 1086 756 1086 c 0
 896.667 1086 992.333 1048.67 1043 974 c 1
 1061 1062 l 1
 1227 1062 l 1
 1032 144 l 1
 987.333 -65.3333 921.333 -213.667 834 -301 c 0
 779.333 -355 711 -392.333 629 -413 c 0
 572.333 -427.667 505.667 -435 429 -435 c 1
 362 -431 l 1
 239.333 -417.667 155 -369.667 109 -287 c 0
 77 -227.667 69.3333 -156.667 86 -74 c 1
367 550 m 0
 321 332.667 369 209.667 511 181 c 0
 531.667 177 554.333 175 579 175 c 0
 765.667 175 885 298 937 544 c 0
 972.333 711.333 950 823.333 870 880 c 0
 834.667 904.667 789 917 733 917 c 0
 621.667 917 531.333 869.333 462 774 c 0
 418 714 386.333 639.333 367 550 c 0
EndSplineSet
EndChar
StartChar: h
Encoding: 74 104 76
OldEncoding: 104
Width: 1139
Flags: W
Fore
135 0 m 1
 446 1466 l 1
 626 1466 l 1
 521 970 l 1
 575.667 1026 645.667 1063.67 731 1083 c 0
 764.333 1091 798 1095 832 1095 c 0
 983.333 1095 1082.33 1041.67 1129 935 c 0
 1160.33 864.333 1165 777 1143 673 c 2
 1000 0 l 1
 820 0 l 1
 952 624 l 1
 988.667 796 932.333 882 783 882 c 0
 645.667 882 544.667 817 480 687 c 0
 457.333 642.333 440 590.667 428 532 c 1
 315 0 l 1
 135 0 l 1
EndSplineSet
EndChar
StartChar: i
Encoding: 75 105 77
OldEncoding: 105
Width: 455
Flags: W
Fore
403 1259 m 1
 447 1466 l 1
 627 1466 l 1
 583 1259 l 1
 403 1259 l 1
136 0 m 1
 361 1062 l 1
 541 1062 l 1
 316 0 l 1
 136 0 l 1
EndSplineSet
EndChar
StartChar: j
Encoding: 76 106 78
OldEncoding: 106
Width: 455
Flags: W
Fore
401 1257 m 1
 445 1466 l 1
 625 1466 l 1
 581 1257 l 1
 401 1257 l 1
-181 -412 m 1
 -149 -259 l 1
 -115 -264.333 -86.3333 -267 -63 -267 c 0
 -4.33333 -267 39 -246.667 67 -206 c 0
 89 -174 107.333 -123.333 122 -54 c 2
 359 1062 l 1
 539 1062 l 1
 301 -58 l 2
 261 -246 185 -362 73 -406 c 0
 35.6667 -420.667 -5.66667 -428 -51 -428 c 0
 -91 -428 -134.333 -422.667 -181 -412 c 1
EndSplineSet
EndChar
StartChar: k
Encoding: 77 107 79
OldEncoding: 107
Width: 1024
Flags: W
Fore
136 0 m 1
 447 1466 l 1
 627 1466 l 1
 449 630 l 1
 967 1062 l 1
 1200 1062 l 1
 710 668 l 1
 1016 0 l 1
 794 0 l 1
 558 543 l 1
 405 421 l 1
 316 0 l 1
 136 0 l 1
EndSplineSet
EndChar
StartChar: l
Encoding: 78 108 80
OldEncoding: 108
Width: 455
Flags: W
Fore
131 0 m 1
 442 1466 l 1
 622 1466 l 1
 311 0 l 1
 131 0 l 1
EndSplineSet
EndChar
StartChar: m
Encoding: 79 109 81
OldEncoding: 109
Width: 1706
Flags: W
Fore
135 0 m 1
 360 1062 l 1
 521 1062 l 1
 490 913 l 1
 534 965 587 1006.67 649 1038 c 0
 711 1070 777.333 1086 848 1086 c 0
 926.667 1086 988 1069.67 1032 1037 c 0
 1075.33 1004.33 1101 958.667 1109 900 c 1
 1219 1024 1341.33 1086 1476 1086 c 0
 1581.33 1086 1656.33 1056.67 1701 998 c 0
 1745 940 1754 850.333 1728 729 c 1
 1574 0 l 1
 1395 0 l 1
 1537 669 l 2
 1552.33 741 1557.67 792.667 1553 824 c 0
 1547.67 856 1531.67 881.667 1505 901 c 0
 1478.33 920.333 1444.33 930 1403 930 c 0
 1328.33 930 1261 905.333 1201 856 c 0
 1141.67 806 1100.33 726.333 1077 617 c 2
 946 0 l 1
 766 0 l 1
 912 690 l 1
 929.333 770 927.333 830 906 870 c 0
 885.333 910 841.667 930 775 930 c 0
 724.333 930 675 916.667 627 890 c 0
 577.667 863.333 538 824.333 508 773 c 0
 477.333 721.667 452 647.667 432 551 c 1
 315 0 l 1
 135 0 l 1
EndSplineSet
EndChar
StartChar: n
Encoding: 80 110 82
OldEncoding: 110
Width: 1139
Flags: W
Fore
135 0 m 1
 361 1064 l 1
 541 1064 l 1
 521 970 l 1
 575.667 1026 645.667 1063.67 731 1083 c 0
 764.333 1091 798 1095 832 1095 c 0
 983.333 1095 1082.33 1041.67 1129 935 c 0
 1160.33 864.333 1165 777 1143 673 c 2
 1000 0 l 1
 820 0 l 1
 952 624 l 1
 988.667 796 932.333 882 783 882 c 0
 645.667 882 544.667 817 480 687 c 0
 457.333 642.333 440 590.667 428 532 c 1
 315 0 l 1
 135 0 l 1
EndSplineSet
EndChar
StartChar: o
Encoding: 81 111 83
OldEncoding: 111
Width: 1139
Flags: W
Fore
180 531 m 0
 220.667 721 304 865.333 430 964 c 0
 534 1045.33 656 1086 796 1086 c 0
 952 1086 1064.33 1034.67 1133 932 c 0
 1197.67 834.667 1213 706 1179 546 c 0
 1127.67 305.333 1018 141.333 850 54 c 0
 766 10.6667 670.333 -11 563 -11 c 0
 383.667 -11 263.333 49.6667 202 171 c 0
 156 263 148.667 383 180 531 c 0
365 531 m 0
 328.333 357 355.667 241.333 447 184 c 0
 486.333 159.333 536.333 147 597 147 c 0
 733.667 147 839 207.667 913 329 c 0
 948.333 386.333 974.667 455.667 992 537 c 0
 1023.33 685.667 1006.33 794 941 862 c 0
 899 906 839.667 928 763 928 c 0
 639.667 928 540 875.333 464 770 c 0
 418.667 706 385.667 626.333 365 531 c 0
EndSplineSet
EndChar
StartChar: p
Encoding: 82 112 84
OldEncoding: 112
Width: 1139
Flags: W
Fore
492 957 m 1
 504.667 969.667 518 981.333 532 992 c 0
 614 1054.67 708 1086 814 1086 c 0
 948.667 1086 1047 1039 1109 945 c 0
 1177 843 1192.33 704.333 1155 529 c 0
 1122.33 377 1058 251.333 962 152 c 1
 856 44 732 -10 590 -10 c 0
 472 -10 385.333 37.6667 330 133 c 1
 219 -390 l 1
 39 -390 l 1
 350 1076 l 1
 517 1076 l 1
 492 957 l 1
414 537 m 0
 389.333 421 399 326 443 252 c 0
 481.667 187.333 537 155 609 155 c 0
 680.333 155 744.667 176.333 802 219 c 0
 893.333 286.333 954.667 394.667 986 544 c 0
 990 561.333 993 578.333 995 595 c 0
 1003 655 1001.67 708.333 991 755 c 1
 977 798 l 1
 940.333 883.333 870 926.333 766 927 c 0
 706.667 927 651 908 599 870 c 0
 508.333 802 446.667 691 414 537 c 0
EndSplineSet
EndChar
StartChar: q
Encoding: 83 113 85
OldEncoding: 113
Width: 1139
Flags: W
Fore
1069 1076 m 1
 1236 1076 l 1
 925 -390 l 1
 745 -390 l 1
 856 133 l 1
 759.333 37.6667 652 -10 534 -10 c 0
 392 -10 291.333 44 232 152 c 0
 177.333 251.333 166.333 377 199 529 c 0
 236.333 704.333 310.333 843 421 945 c 0
 523 1039 641.333 1086 776 1086 c 0
 882 1086 962.667 1054.67 1018 992 c 0
 1028 981.333 1036.67 969.667 1044 957 c 1
 1069 1076 l 1
944 537 m 0
 976.667 691 961.667 802 899 870 c 0
 864.333 908 817.333 927 758 927 c 0
 652.667 926.333 563.667 883.333 491 798 c 1
 459 755 l 1
 428.333 708.333 404.333 655 387 595 c 0
 382.333 578.333 378 561.333 374 544 c 0
 342.667 394.667 358 286.333 420 219 c 0
 458.667 176.333 513.667 155 585 155 c 0
 657 155 726.333 187.333 793 252 c 0
 869 326 919.333 421 944 537 c 0
EndSplineSet
EndChar
StartChar: r
Encoding: 84 114 86
OldEncoding: 114
Width: 682
Flags: W
Fore
133 0 m 1
 358 1062 l 1
 520 1062 l 1
 496 947 l 1
 528.667 991.667 576.333 1026.67 639 1052 c 0
 647 1054.67 656 1058 666 1062 c 0
 694 1072 725.667 1077 761 1077 c 0
 825.667 1077 881.333 1060.67 928 1028 c 1
 831 861 l 1
 792.333 887 751.667 900 709 900 c 0
 686.333 900 664 896.333 642 889 c 0
 626 883 609.667 874.667 593 864 c 0
 518.333 815.333 464.333 712.667 431 556 c 2
 313 0 l 1
 133 0 l 1
EndSplineSet
KernsSLIF: 16 -113 0 0 14 -113 0 0
EndChar
StartChar: s
Encoding: 85 115 87
OldEncoding: 115
Width: 1024
Flags: W
Fore
139 358 m 1
 317 358 l 1
 308.333 242.667 359.667 175.667 471 157 c 0
 494.333 153 520 151 548 151 c 0
 632.667 151 703.333 172 760 214 c 0
 795.333 240.667 817 271.333 825 306 c 1
 835.667 364 809.333 405.667 746 431 c 0
 720.667 441.667 679 452.333 621 463 c 0
 503 485.667 425.667 504.667 389 520 c 0
 329.667 544 289 583.333 267 638 c 0
 250.333 680.667 247.333 728 258 780 c 0
 280 884 342.667 964.333 446 1021 c 0
 525.333 1064.33 614.667 1086 714 1086 c 0
 880 1086 988.667 1040.33 1040 949 c 0
 1066.67 902.333 1076.33 845.667 1069 779 c 0
 1068.33 773.667 1067.67 768.667 1067 764 c 1
 891 764 l 1
 897 862.667 843 916 729 924 c 1
 693 925 l 2
 601.667 925 532.333 902 485 856 c 1
 466 833 l 1
 452 807 l 1
 444 778 l 1
 442.667 764.667 443 751.333 445 738 c 0
 451 708.667 477.333 687 524 673 c 0
 544 667 587 657.333 653 644 c 0
 775 620 858.667 597 904 575 c 0
 982 537.667 1021.33 479.333 1022 400 c 0
 1022 377.333 1019.33 352.333 1014 325 c 0
 991.333 219.667 928.667 135.667 826 73 c 0
 734.667 17 630.667 -11 514 -11 c 0
 343.333 -11 229 38.6667 171 138 c 0
 137 197.333 126.333 270.667 139 358 c 1
EndSplineSet
EndChar
StartChar: t
Encoding: 86 116 88
OldEncoding: 116
Width: 569
Flags: W
Fore
562 161 m 1
 554 2 l 1
 504 -8 455.333 -13 408 -13 c 0
 342 -13 295.667 -3 269 17 c 0
 233.667 44.3333 214.333 82 211 130 c 0
 209 170 216.667 230.333 234 311 c 1
 363 922 l 1
 213 922 l 1
 243 1062 l 1
 393 1062 l 1
 472 1433 l 1
 651 1433 l 1
 572 1062 l 1
 722 1062 l 1
 692 922 l 1
 542 922 l 1
 410 301 l 1
 398.667 245 395.333 209.333 400 194 c 0
 404 184 411.667 175 423 167 c 0
 435.667 157.667 455 153 481 153 c 0
 497.667 153 524.667 155.667 562 161 c 1
EndSplineSet
EndChar
StartChar: u
Encoding: 87 117 89
OldEncoding: 117
Width: 1139
Flags: W
Fore
1199 1085 m 1
 969 0 l 1
 789 0 l 1
 802 64 l 1
 749.333 17.3333 663.667 -7.33333 545 -10 c 0
 539 -10 539 -10 534 -10 c 2
 465 -7 l 1
 324.333 8.33333 235 71 197 181 c 0
 174.333 246.333 172.333 323.333 191 412 c 1
 334 1085 l 1
 514 1085 l 1
 381 461 l 1
 357.667 349.667 380.667 273 450 231 c 0
 482.667 211 524.667 201 576 201 c 0
 746 201 849 286 885 456 c 1
 1019 1085 l 1
 1199 1085 l 1
EndSplineSet
EndChar
StartChar: v
Encoding: 88 118 90
OldEncoding: 118
Width: 1024
Flags: W
Fore
429 0 m 1
 251 1062 l 1
 441 1062 l 1
 577 269 l 1
 1035 1062 l 1
 1225 1062 l 1
 599 0 l 1
 429 0 l 1
EndSplineSet
KernsSLIF: 16 -152 0 0 14 -152 0 0
EndChar
StartChar: w
Encoding: 89 119 91
OldEncoding: 119
Width: 1479
Flags: W
Fore
331 0 m 1
 231 1062 l 1
 417 1062 l 1
 476 246 l 1
 873 1062 l 1
 1057 1062 l 1
 1121 246 l 1
 1513 1062 l 1
 1688 1062 l 1
 1163 0 l 1
 975 0 l 1
 957 265 l 1
 929.667 623 915 807 913 817 c 1
 519 0 l 1
 331 0 l 1
EndSplineSet
KernsSLIF: 16 -113 0 0 14 -113 0 0
EndChar
StartChar: x
Encoding: 90 120 92
OldEncoding: 120
Width: 1024
Flags: W
Fore
15 0 m 1
 513 552 l 1
 269 1062 l 1
 494 1062 l 1
 646 694 l 1
 991 1062 l 1
 1206 1062 l 1
 726 562 l 1
 1009 0 l 1
 788 0 l 1
 594 419 l 1
 233 0 l 1
 15 0 l 1
EndSplineSet
EndChar
StartChar: y
Encoding: 91 121 93
OldEncoding: 121
Width: 1024
Flags: W
Fore
40 -409 m 1
 55 -240 l 1
 87.6667 -249.333 122.667 -254 160 -254 c 0
 207.333 -254 246.333 -246.333 277 -231 c 0
 321.667 -209 355.333 -180.667 378 -146 c 0
 400 -112 419 -64 435 -2 c 1
 258 1062 l 1
 452 1062 l 1
 567 201 l 1
 1051 1062 l 1
 1231 1062 l 1
 601 -1 l 1
 555 -145 503.333 -245.333 446 -302 c 0
 417.333 -330.667 382 -355 340 -375 c 0
 281.333 -402.333 217.667 -418 149 -422 c 1
 95 -421 l 1
 74.3333 -419 56 -415 40 -409 c 1
EndSplineSet
KernsSLIF: 16 -152 0 0 14 -152 0 0
EndChar
StartChar: z
Encoding: 92 122 94
OldEncoding: 122
Width: 1024
Flags: W
Fore
40 0 m 1
 72 155 l 1
 910 916 l 1
 254 916 l 1
 285 1062 l 1
 1173 1062 l 1
 1142 916 l 1
 294 155 l 1
 1012 155 l 1
 980 0 l 1
 40 0 l 1
EndSplineSet
EndChar
StartChar: braceleft
Encoding: 93 123 95
OldEncoding: 123
Width: 684
Flags: W
Fore
187 612 m 1
 238.333 613.333 283 627.333 321 654 c 0
 359 680 388 716 408 762 c 0
 428.667 808 451.333 886.667 476 998 c 0
 500 1109.33 517.333 1182.67 528 1218 c 0
 546 1274 567 1319 591 1353 c 0
 614.333 1387 640 1414 668 1434 c 0
 696.667 1454.67 730.667 1470.33 770 1481 c 0
 796.667 1487.67 838.667 1491 896 1491 c 2
 952 1491 l 1
 919 1334 l 1
 888 1334 l 2
 818.667 1334 770 1321.33 742 1296 c 0
 714 1271.33 690.667 1215.67 672 1129 c 0
 635.333 954.333 608.333 844 591 798 c 0
 563.667 726.667 531.5 671.667 494.5 633 c 128
 457.5 594.333 404.667 560 336 530 c 1
 402.667 499.333 446 452.667 466 390 c 0
 485.333 326.667 480 223.333 450 80 c 0
 422 -50 406.667 -127.333 404 -152 c 0
 400 -197.333 407 -229 425 -247 c 0
 442.333 -265 482.667 -274 546 -274 c 2
 577 -274 l 1
 544 -431 l 1
 488 -431 l 2
 422.667 -431 376.333 -425.667 349 -415 c 0
 309.667 -399.667 279.667 -374.667 259 -340 c 0
 238.333 -306 229.667 -262.667 233 -210 c 0
 235.667 -157.333 249.333 -71 274 49 c 0
 298.667 169 310.667 252 310 298 c 0
 309.333 344 295.333 380.333 268 407 c 1
 242 433.667 203.333 447.667 152 449 c 1
 187 612 l 1
EndSplineSet
EndChar
StartChar: bar
Encoding: 94 124 96
OldEncoding: 124
Width: 532
Flags: W
Fore
96 -431 m 1
 504 1491 l 1
 661 1491 l 1
 253 -431 l 1
 96 -431 l 1
EndSplineSet
EndChar
StartChar: braceright
Encoding: 95 125 97
OldEncoding: 125
Width: 684
Flags: W
Fore
756 612 m 1
 721 449 l 1
 669.667 447.667 624.667 433.667 586 407 c 0
 548.667 380.333 519.667 344 499 298 c 0
 478.333 252.667 456 174.333 432 63 c 0
 407.333 -48.3333 389.667 -121.667 379 -157 c 0
 361 -213.667 340.333 -258.667 317 -292 c 0
 293.667 -326 267.667 -353.333 239 -374 c 0
 211 -394 177 -409.333 137 -420 c 0
 110.333 -427.333 68.3333 -431 11 -431 c 2
 -44 -431 l 1
 -11 -274 l 1
 19 -274 l 2
 88.3333 -274 137 -261.333 165 -236 c 0
 193 -211.333 216.333 -155.333 235 -68 c 0
 270.333 98.6667 295.667 204.333 311 249 c 0
 337.667 323 371.667 382 413 426 c 0
 454.333 470.667 507 505.333 571 530 c 1
 502.333 566.667 458.667 615.333 440 676 c 0
 421.333 736 427.333 837.667 458 981 c 0
 485.333 1111 500.333 1188.67 503 1214 c 0
 507.667 1258.67 501.333 1290 484 1308 c 1
 465.333 1325.33 424.333 1334 361 1334 c 2
 330 1334 l 1
 363 1491 l 1
 419 1491 l 2
 484.333 1491 530.667 1485.67 558 1475 c 0
 597.333 1460.33 627.333 1435.67 648 1401 c 0
 668.667 1366.33 677.667 1322.67 675 1270 c 0
 672.333 1217.33 658.333 1131 633 1011 c 0
 608.333 891 596.333 808 597 762 c 0
 598.333 716.667 612.333 680.667 639 654 c 0
 665.667 627.333 704.667 613.333 756 612 c 1
EndSplineSet
EndChar
StartChar: asciitilde
Encoding: 96 126 98
OldEncoding: 126
Width: 1196
Flags: W
Fore
205 557 m 1
 248 762 l 1
 336 842 437.333 882 552 882 c 0
 592 882 632.667 876 674 864 c 0
 716 852.667 773.667 829.667 847 795 c 0
 889 775.667 920.667 763 942 757 c 0
 964 751 986.667 748 1010 748 c 0
 1053.33 748 1101 761 1153 787 c 0
 1205 813 1253.33 845.667 1298 885 c 1
 1253 673 l 1
 1201.67 633 1152 604 1104 586 c 0
 1056.67 568 1005.67 559 951 559 c 0
 911 559 873.667 563.667 839 573 c 0
 805 582.333 752.667 604.667 682 640 c 0
 610 675.333 547.667 693 495 693 c 0
 452.333 693 410.333 684 369 666 c 0
 327 647.333 272.333 611 205 557 c 1
EndSplineSet
EndChar
StartChar: uni007F
Encoding: 97 127 99
OldEncoding: 127
Width: 1247
Flags: W
Fore
340 928 m 0
 343.333 945.333 352 959.833 366 971.5 c 128
 380 983.167 395.667 989 413 989 c 0
 430.333 989 443.5 983.167 452.5 971.5 c 128
 461.5 959.833 464.333 945.333 461 928 c 0
 457 910.667 448 896.333 434 885 c 128
 420 873.667 404.333 868 387 868 c 0
 369.667 868 356.5 873.667 347.5 885 c 128
 338.5 896.333 336 910.667 340 928 c 0
559 1071 m 0
 563 1088.33 571.833 1102.83 585.5 1114.5 c 128
 599.167 1126.17 614.667 1132 632 1132 c 0
 649.333 1132 662.667 1126.17 672 1114.5 c 128
 681.333 1102.83 684 1088.33 680 1071 c 0
 676.667 1053.67 667.833 1039.33 653.5 1028 c 128
 639.167 1016.67 623.333 1011 606 1011 c 0
 588.667 1011 575.667 1016.67 567 1028 c 128
 558.333 1039.33 555.667 1053.67 559 1071 c 0
800 1139 m 0
 803.333 1156.33 812 1170.83 826 1182.5 c 128
 840 1194.17 855.667 1200 873 1200 c 0
 890.333 1200 903.5 1194.17 912.5 1182.5 c 128
 921.5 1170.83 924.333 1156.33 921 1139 c 0
 917 1121.67 908 1107.33 894 1096 c 128
 880 1084.67 864.333 1079 847 1079 c 0
 829.667 1079 816.5 1084.67 807.5 1096 c 128
 798.5 1107.33 796 1121.67 800 1139 c 0
129 505 m 0
 132.333 522.333 141 536.833 155 548.5 c 128
 169 560.167 184.667 566 202 566 c 0
 219.333 566 232.5 560.167 241.5 548.5 c 128
 250.5 536.833 253.333 522.333 250 505 c 0
 246 487.667 237 473.333 223 462 c 128
 209 450.667 193.333 445 176 445 c 0
 158.667 445 145.5 450.667 136.5 462 c 128
 127.5 473.333 125 487.667 129 505 c 0
208 309 m 0
 212 326.333 220.833 340.833 234.5 352.5 c 128
 248.167 364.167 263.667 370 281 370 c 0
 298.333 370 311.667 364.167 321 352.5 c 128
 330.333 340.833 333 326.333 329 309 c 0
 325.667 291.667 316.833 277.333 302.5 266 c 128
 288.167 254.667 272.333 249 255 249 c 0
 237.667 249 224.667 254.667 216 266 c 128
 207.333 277.333 204.667 291.667 208 309 c 0
319 158 m 0
 323 175.333 331.833 189.833 345.5 201.5 c 128
 359.167 213.167 374.667 219 392 219 c 0
 409.333 219 422.667 213.167 432 201.5 c 128
 441.333 189.833 444 175.333 440 158 c 0
 436.667 140.667 427.833 126.333 413.5 115 c 128
 399.167 103.667 383.333 98 366 98 c 0
 348.667 98 335.667 103.667 327 115 c 128
 318.333 126.333 315.667 140.667 319 158 c 0
565 67 m 0
 568.333 84.3333 577 98.8333 591 110.5 c 128
 605 122.167 620.667 128 638 128 c 0
 655.333 128 668.5 122.167 677.5 110.5 c 128
 686.5 98.8333 689.333 84.3333 686 67 c 0
 682 49.6667 673 35.3333 659 24 c 128
 645 12.6667 629.333 7 612 7 c 0
 594.667 7 581.5 12.6667 572.5 24 c 128
 563.5 35.3333 561 49.6667 565 67 c 0
872 128 m 0
 875.333 145.333 884 159.833 898 171.5 c 128
 912 183.167 927.667 189 945 189 c 0
 962.333 189 975.5 183.167 984.5 171.5 c 128
 993.5 159.833 996.333 145.333 993 128 c 0
 989 110.667 980 96.3333 966 85 c 128
 952 73.6667 936.333 68 919 68 c 0
 901.667 68 888.5 73.6667 879.5 85 c 128
 870.5 96.3333 868 110.667 872 128 c 0
1073 294 m 0
 1077 311.333 1085.83 325.833 1099.5 337.5 c 128
 1113.17 349.167 1128.67 355 1146 355 c 0
 1163.33 355 1176.67 349.167 1186 337.5 c 128
 1195.33 325.833 1198 311.333 1194 294 c 0
 1190 276.667 1181 262.333 1167 251 c 128
 1153 239.667 1137.33 234 1120 234 c 0
 1102.67 234 1089.5 239.667 1080.5 251 c 128
 1071.5 262.333 1069 276.667 1073 294 c 0
1191 498 m 0
 1195 515.333 1203.83 529.833 1217.5 541.5 c 128
 1231.17 553.167 1246.67 559 1264 559 c 0
 1281.33 559 1294.67 553.167 1304 541.5 c 128
 1313.33 529.833 1316 515.333 1312 498 c 0
 1308.67 480.667 1300 466.333 1286 455 c 128
 1272 443.667 1256.33 438 1239 438 c 0
 1221.67 438 1208.5 443.667 1199.5 455 c 128
 1190.5 466.333 1187.67 480.667 1191 498 c 0
1229 739 m 0
 1232.33 756.333 1241 770.833 1255 782.5 c 128
 1269 794.167 1284.67 800 1302 800 c 0
 1319.33 800 1332.5 794.167 1341.5 782.5 c 128
 1350.5 770.833 1353.33 756.333 1350 739 c 0
 1346 721.667 1337 707.333 1323 696 c 128
 1309 684.667 1293.33 679 1276 679 c 0
 1258.67 679 1245.5 684.667 1236.5 696 c 128
 1227.5 707.333 1225 721.667 1229 739 c 0
1167 951 m 0
 1170.33 968.333 1179 982.833 1193 994.5 c 128
 1207 1006.17 1222.67 1012 1240 1012 c 0
 1257.33 1012 1270.5 1006.17 1279.5 994.5 c 128
 1288.5 982.833 1291.33 968.333 1288 951 c 0
 1284 933.667 1275 919.333 1261 908 c 128
 1247 896.667 1231.33 891 1214 891 c 0
 1196.67 891 1183.5 896.667 1174.5 908 c 128
 1165.5 919.333 1163 933.667 1167 951 c 0
1009 1094 m 0
 1013 1111.33 1021.83 1125.83 1035.5 1137.5 c 128
 1049.17 1149.17 1064.67 1155 1082 1155 c 0
 1099.33 1155 1112.67 1149.17 1122 1137.5 c 128
 1131.33 1125.83 1134 1111.33 1130 1094 c 0
 1126.67 1076.67 1117.83 1062.33 1103.5 1051 c 128
 1089.17 1039.67 1073.33 1034 1056 1034 c 0
 1038.67 1034 1025.67 1039.67 1017 1051 c 128
 1008.33 1062.33 1005.67 1076.67 1009 1094 c 0
194 739 m 0
 197.333 756.333 206 770.833 220 782.5 c 128
 234 794.167 249.667 800 267 800 c 0
 284.333 800 297.5 794.167 306.5 782.5 c 128
 315.5 770.833 318.333 756.333 315 739 c 0
 311 721.667 302 707.333 288 696 c 128
 274 684.667 258.333 679 241 679 c 0
 223.667 679 210.5 684.667 201.5 696 c 128
 192.5 707.333 190 721.667 194 739 c 0
EndSplineSet
EndChar
StartChar: exclamdown
Encoding: 99 161 101
OldEncoding: 161
Width: 680
Flags: W
Fore
713 1278 m 1
 509 1278 l 1
 554 1489 l 1
 758 1489 l 1
 713 1278 l 1
452 0 m 1
 228 0 l 1
 485 1079 l 1
 651 1079 l 1
 452 0 l 1
EndSplineSet
EndChar
StartChar: cent
Encoding: 100 162 102
OldEncoding: 162
Width: 1118
Flags: W
Fore
557 2 m 1
 417 18.6667 319.167 75 263.5 171 c 128
 207.833 267 197.333 395.667 232 557 c 0
 265.333 715.667 331.833 844.333 431.5 943 c 128
 531.167 1041.67 652 1099 794 1115 c 1
 870 1475 l 1
 984 1475 l 1
 908 1116 l 1
 965.333 1114 1019.17 1105.17 1069.5 1089.5 c 128
 1119.83 1073.83 1161.67 1056.33 1195 1037 c 1
 1152 837 l 1
 1142 837 l 1
 1108 871 1070.33 900.667 1029 926 c 128
 987.667 951.333 937.333 968.333 878 977 c 1
 700 141 l 1
 734 144.333 768.667 152 804 164 c 128
 839.333 176 869.667 188.667 895 202 c 0
 922.333 216 946.833 229.833 968.5 243.5 c 128
 990.167 257.167 1008.67 269.667 1024 281 c 1
 1034 281 l 1
 992 83 l 1
 944.667 63 895.833 45.1667 845.5 29.5 c 128
 795.167 13.8333 737 4.33333 671 1 c 1
 594 -361 l 1
 480 -361 l 1
 557 2 l 1
588 146 m 1
 763 971 l 1
 682.333 957 612.333 915.167 553 845.5 c 128
 493.667 775.833 451 679.667 425 557 c 0
 398.333 431.667 400.667 335.167 432 267.5 c 128
 463.333 199.833 515.333 159.333 588 146 c 1
EndSplineSet
EndChar
StartChar: sterling
Encoding: 101 163 103
OldEncoding: 163
Width: 1118
Flags: W
Fore
1031 0 m 1
 89 0 l 1
 132 207 l 1
 211.333 229 272.833 271.667 316.5 335 c 128
 360.167 398.333 395 491 421 613 c 1
 260 613 l 1
 289 751 l 1
 450 751 l 1
 518 1071 l 2
 546.667 1205 608.333 1313 703 1395 c 128
 797.667 1477 906.667 1518 1030 1518 c 0
 1094.67 1518 1149 1512.83 1193 1502.5 c 128
 1237 1492.17 1277 1481.33 1313 1470 c 1
 1269 1264 l 1
 1259 1264 l 1
 1226.33 1291.33 1188 1312.67 1144 1328 c 128
 1100 1343.33 1056.67 1351 1014 1351 c 0
 932 1351 865.333 1325.33 814 1274 c 128
 762.667 1222.67 726.667 1148.67 706 1052 c 2
 642 751 l 1
 1006 751 l 1
 977 613 l 1
 613 613 l 1
 600 552 l 2
 583.333 474 548.667 403.167 496 339.5 c 128
 443.333 275.833 377.667 223.333 299 182 c 1
 297 171 l 1
 1067 171 l 1
 1031 0 l 1
EndSplineSet
EndChar
StartChar: currency
Encoding: 102 164 104
OldEncoding: 164
Width: 1118
Flags: W
Fore
1114 272 m 1
 986 166 l 1
 817 378 l 1
 783 360 752.167 346.833 724.5 338.5 c 128
 696.833 330.167 665 326 629 326 c 0
 598.333 326 568.5 331 539.5 341 c 128
 510.5 351 485.667 363.667 465 379 c 1
 204 164 l 1
 123 273 l 1
 380 486 l 1
 368.667 512.667 361.833 541.5 359.5 572.5 c 128
 357.167 603.5 359 633 365 661 c 0
 371 690.333 381.667 719.833 397 749.5 c 128
 412.333 779.167 431.667 807.667 455 835 c 1
 288 1051 l 1
 417 1157 l 1
 586 944 l 1
 614 960 644.333 972.667 677 982 c 128
 709.667 991.333 741 996 771 996 c 0
 805.667 996 837.167 990.833 865.5 980.5 c 128
 893.833 970.167 917.333 958.333 936 945 c 1
 1193 1157 l 1
 1280 1052 l 1
 1020 836 l 1
 1032 807.333 1039.5 779.667 1042.5 753 c 128
 1045.5 726.333 1043.33 695.667 1036 661 c 0
 1029.33 631 1018 600.5 1002 569.5 c 128
 986 538.5 967.333 510.667 946 486 c 1
 1114 272 l 1
892 661 m 0
 903.333 714.333 894.333 760.5 865 799.5 c 128
 835.667 838.5 794.667 858 742 858 c 0
 690.667 858 641.667 838.833 595 800.5 c 128
 548.333 762.167 519.333 715.667 508 661 c 0
 496.667 607.667 505.667 561.5 535 522.5 c 128
 564.333 483.5 605.333 464 658 464 c 0
 709.333 464 758.333 483.167 805 521.5 c 128
 851.667 559.833 880.667 606.333 892 661 c 0
EndSplineSet
EndChar
StartChar: yen
Encoding: 103 165 105
OldEncoding: 165
Width: 1118
Flags: W
Fore
1375 1489 m 1
 795 678 l 1
 773 578 l 1
 1115 578 l 1
 1086 440 l 1
 746 440 l 1
 653 0 l 1
 465 0 l 1
 558 440 l 1
 218 440 l 1
 247 578 l 1
 589 578 l 1
 606 657 l 1
 372 1489 l 1
 582 1489 l 1
 740 850 l 1
 1174 1489 l 1
 1375 1489 l 1
EndSplineSet
EndChar
StartChar: brokenbar
Encoding: 104 166 106
OldEncoding: 166
Width: 783
Flags: W
Fore
636 758 m 1
 469 758 l 1
 638 1556 l 1
 805 1556 l 1
 636 758 l 1
391 -392 m 1
 224 -392 l 1
 394 406 l 1
 561 406 l 1
 391 -392 l 1
EndSplineSet
EndChar
StartChar: section
Encoding: 105 167 107
OldEncoding: 167
Width: 1118
Flags: W
Fore
844 401 m 0
 864.667 424.333 881.833 446.833 895.5 468.5 c 128
 909.167 490.167 919.667 519 927 555 c 0
 934.333 587.667 935.667 616 931 640 c 128
 926.333 664 917.333 683.667 904 699 c 0
 891.333 714.333 875.5 727.167 856.5 737.5 c 128
 837.5 747.833 814.667 757.333 788 766 c 0
 757 776 757 776 716 788.5 c 128
 688.667 796.833 658 807 624 819 c 1
 608.667 811 592.5 801 575.5 789 c 128
 558.5 777 539 760 517 738 c 0
 500.333 720.667 483.333 697.333 466 668 c 128
 448.667 638.667 437 609 431 579 c 0
 419 525 422.333 482 441 450 c 128
 459.667 418 502.667 391 570 369 c 0
 602 359 602 359 642.5 345.5 c 128
 683 332 683 332 733 315 c 1
 747.667 323 764.833 334 784.5 348 c 128
 804.167 362 824 379.667 844 401 c 0
153 -133 m 1
 168.333 -141.667 187.833 -151.333 211.5 -162 c 128
 235.167 -172.667 258 -182 280 -190 c 0
 309.333 -200 336.833 -207.5 362.5 -212.5 c 128
 388.167 -217.5 421.333 -220 462 -220 c 0
 538 -220 604.833 -204.5 662.5 -173.5 c 128
 720.167 -142.5 755.333 -96.6667 768 -36 c 0
 775.333 0 775.333 29.1667 768 51.5 c 128
 760.667 73.8333 745 93.6667 721 111 c 0
 696.333 127.667 664.833 141.833 626.5 153.5 c 128
 569 171 569 171 500 192 c 0
 445.333 208.667 400.333 225.667 365 243 c 128
 329.667 260.333 299.333 283.333 274 312 c 0
 250 339.333 234.333 371 227 407 c 128
 219.667 443 221.333 485 232 533 c 0
 245.333 595.667 274.333 655.167 319 711.5 c 128
 363.667 767.833 424 816.667 500 858 c 1
 501 865 l 1
 447.667 898.333 412.833 938.667 396.5 986 c 128
 380.167 1033.33 378.333 1087 391 1147 c 0
 415 1259 476.833 1349 576.5 1417 c 128
 676.167 1485 800.667 1519 950 1519 c 0
 1006.67 1519 1058.17 1514.67 1104.5 1506 c 128
 1150.83 1497.33 1201.33 1482.67 1256 1462 c 1
 1215 1268 l 1
 1205 1268 l 1
 1151.67 1298 1100.67 1320 1052 1334 c 128
 1003.33 1348 951 1355 895 1355 c 0
 820.333 1355 753.833 1339.83 695.5 1309.5 c 128
 637.167 1279.17 601.667 1234.67 589 1176 c 0
 581 1138 581.333 1107 590 1083 c 128
 598.667 1059 614.333 1039.33 637 1024 c 0
 659.667 1008 689.833 993.667 727.5 981 c 128
 765.167 968.333 808.333 955.333 857 942 c 0
 972.333 908.667 1050.67 865.833 1092 813.5 c 128
 1133.33 761.167 1144.33 690.333 1125 601 c 0
 1109.67 529 1078.17 466 1030.5 412 c 128
 982.833 358 925 313 857 277 c 1
 856 270 l 1
 907.333 239.333 941.833 200.667 959.5 154 c 128
 977.167 107.333 979.333 52.6667 966 -10 c 0
 956 -59.3333 935.333 -107.667 904 -155 c 128
 872.667 -202.333 834.333 -242 789 -274 c 0
 740.333 -309.333 685.167 -336.667 623.5 -356 c 128
 561.833 -375.333 490 -385 408 -385 c 0
 355.333 -385 304 -380.333 254 -371 c 128
 204 -361.667 153.333 -347 102 -327 c 1
 143 -133 l 1
 153 -133 l 1
EndSplineSet
EndChar
StartChar: dieresis
Encoding: 106 168 108
OldEncoding: 168
Width: 1118
Flags: W
Fore
1144 1304 m 1
 943 1304 l 1
 984 1499 l 1
 1185 1499 l 1
 1144 1304 l 1
731 1304 m 1
 530 1304 l 1
 571 1499 l 1
 772 1499 l 1
 731 1304 l 1
EndSplineSet
EndChar
StartChar: copyright
Encoding: 107 169 109
OldEncoding: 169
Width: 1902
Flags: W
Fore
1955 655 m 0
 1904.33 416.333 1776.5 212.5 1571.5 43.5 c 128
 1366.5 -125.5 1144.67 -210 906 -210 c 128
 667.333 -210 481.5 -125.5 348.5 43.5 c 128
 215.5 212.5 174.333 416.333 225 655 c 128
 275.667 893.667 403.333 1097.33 608 1266 c 128
 812.667 1434.67 1034.33 1519 1273 1519 c 128
 1511.67 1519 1697.67 1434.67 1831 1266 c 128
 1964.33 1097.33 2005.67 893.667 1955 655 c 0
1840 655 m 0
 1884 863.667 1848.5 1041.5 1733.5 1188.5 c 128
 1618.5 1335.5 1457.67 1409 1251 1409 c 128
 1044.33 1409 852.167 1335.5 674.5 1188.5 c 128
 496.833 1041.5 385.833 863.667 341.5 655 c 128
 297.167 446.333 332.5 268.333 447.5 121 c 128
 562.5 -26.3333 723.333 -100 930 -100 c 128
 1136.67 -100 1328.83 -26.3333 1506.5 121 c 128
 1684.17 268.333 1795.33 446.333 1840 655 c 0
1328 255 m 1
 1278.67 235 1230.17 217.5 1182.5 202.5 c 128
 1134.83 187.5 1080.67 180 1020 180 c 0
 880.667 180 779.333 221.167 716 303.5 c 128
 652.667 385.833 637.667 504.667 671 660 c 0
 703.667 813.333 770.5 932.167 871.5 1016.5 c 128
 972.5 1100.83 1090 1143 1224 1143 c 0
 1279.33 1143 1330.83 1135.67 1378.5 1121 c 128
 1426.17 1106.33 1467 1089.33 1501 1070 c 1
 1462 889 l 1
 1446 889 l 1
 1423.33 914.333 1389 938.5 1343 961.5 c 128
 1297 984.5 1248.33 996 1197 996 c 0
 1115 996 1043.67 968.667 983 914 c 128
 922.333 859.333 880 774.667 856 660 c 0
 832.667 552 838.333 469.5 873 412.5 c 128
 907.667 355.5 968.333 327 1055 327 c 0
 1111 327 1166.67 339.167 1222 363.5 c 128
 1277.33 387.833 1320 411.333 1350 434 c 1
 1366 434 l 1
 1328 255 l 1
EndSplineSet
EndChar
StartChar: ordfeminine
Encoding: 108 170 110
OldEncoding: 170
Width: 1010
Flags: W
Fore
994 566 m 1
 828 566 l 1
 847 657 l 1
 825 642 825 642 788 618.5 c 128
 763.333 602.833 739.667 590.333 717 581 c 0
 687 568.333 658 558.5 630 551.5 c 128
 602 544.5 564.667 541 518 541 c 0
 435.333 541 372.333 568.833 329 624.5 c 128
 285.667 680.167 273.333 751.667 292 839 c 0
 306.667 908.333 333 964.833 371 1008.5 c 128
 409 1052.17 457.333 1086.67 516 1112 c 0
 571.333 1136 638 1153 716 1163 c 128
 794 1173 875 1180 959 1184 c 1
 963 1203 l 2
 970.333 1237.67 970.833 1265.67 964.5 1287 c 128
 958.167 1308.33 945.667 1325 927 1337 c 0
 909.667 1348.33 887.167 1355.83 859.5 1359.5 c 128
 831.833 1363.17 802.667 1365 772 1365 c 0
 720 1365 665.5 1357.17 608.5 1341.5 c 128
 551.5 1325.83 509 1313.33 481 1304 c 1
 466 1304 l 1
 502 1474 l 1
 533.333 1482.67 579.167 1492.33 639.5 1503 c 128
 699.833 1513.67 755 1519 805 1519 c 0
 933 1519 1024.83 1493.5 1080.5 1442.5 c 128
 1136.17 1391.5 1151.67 1308.67 1127 1194 c 1
 994 566 l 1
878 802 m 1
 930 1045 l 1
 886 1042.33 834.667 1038.33 776 1033 c 128
 717.333 1027.67 670 1020 634 1010 c 0
 592 998.667 555.833 980.167 525.5 954.5 c 128
 495.167 928.833 475.333 893.667 466 849 c 0
 455.333 799 461.833 761 485.5 735 c 128
 509.167 709 550 696 608 696 c 0
 658.667 696 706.5 707 751.5 729 c 128
 796.5 751 838.667 775.333 878 802 c 1
EndSplineSet
EndChar
StartChar: guillemotleft
Encoding: 109 171 111
OldEncoding: 171
Width: 1174
Flags: W
Fore
1083 191 m 1
 684 610 l 1
 702 695 l 1
 1279 1113 l 1
 1239 925 l 1
 864 652 l 1
 1123 379 l 1
 1083 191 l 1
647 162 m 1
 232 608 l 1
 251 697 l 1
 855 1142 l 1
 814 946 l 1
 420 652 l 1
 689 358 l 1
 647 162 l 1
EndSplineSet
EndChar
StartChar: logicalnot
Encoding: 110 172 112
OldEncoding: 172
Width: 1490
Flags: W
Fore
1335 57 m 1
 1164 57 l 1
 1279 602 l 1
 284 602 l 1
 318 762 l 1
 1484 762 l 1
 1335 57 l 1
EndSplineSet
EndChar
StartChar: registered
Encoding: 112 174 114
OldEncoding: 174
Width: 1902
Flags: W
Fore
1955 655 m 0
 1904.33 416.333 1776.5 212.5 1571.5 43.5 c 128
 1366.5 -125.5 1144.67 -210 906 -210 c 128
 667.333 -210 481.5 -125.5 348.5 43.5 c 128
 215.5 212.5 174.333 416.333 225 655 c 128
 275.667 893.667 403.333 1097.33 608 1266 c 128
 812.667 1434.67 1034.33 1519 1273 1519 c 128
 1511.67 1519 1697.67 1434.67 1831 1266 c 128
 1964.33 1097.33 2005.67 893.667 1955 655 c 0
1840 655 m 0
 1884 863.667 1848.5 1041.5 1733.5 1188.5 c 128
 1618.5 1335.5 1457.67 1409 1251 1409 c 128
 1044.33 1409 852.167 1335.5 674.5 1188.5 c 128
 496.833 1041.5 385.833 863.667 341.5 655 c 128
 297.167 446.333 332.5 268.333 447.5 121 c 128
 562.5 -26.3333 723.333 -100 930 -100 c 128
 1136.67 -100 1328.83 -26.3333 1506.5 121 c 128
 1684.17 268.333 1795.33 446.333 1840 655 c 0
1493 215 m 1
 1266 215 l 1
 1059 570 l 1
 936 570 l 1
 860 215 l 1
 695 215 l 1
 890 1130 l 1
 1169 1130 l 2
 1231.67 1130 1280.67 1127.67 1316 1123 c 128
 1351.33 1118.33 1385.33 1105.33 1418 1084 c 0
 1453.33 1061.33 1476.5 1034 1487.5 1002 c 128
 1498.5 970 1498.67 929 1488 879 c 0
 1474 812.333 1444 757.667 1398 715 c 128
 1352 672.333 1296.67 639 1232 615 c 1
 1493 215 l 1
1304 868 m 0
 1309.33 892.667 1309.83 914 1305.5 932 c 128
 1301.17 950 1290.33 965.333 1273 978 c 0
 1259 988.667 1242 995.833 1222 999.5 c 128
 1202 1003.17 1175.67 1005 1143 1005 c 2
 1028 1005 l 1
 962 696 l 1
 1060 696 l 2
 1092 696 1122.67 699.167 1152 705.5 c 128
 1181.33 711.833 1206.33 722.667 1227 738 c 128
 1247.67 753.333 1264 771 1276 791 c 128
 1288 811 1297.33 836.667 1304 868 c 0
EndSplineSet
EndChar
StartChar: macron
Encoding: 113 175 115
OldEncoding: 175
Width: 1118
Flags: W
Fore
1486 1659 m 1
 336 1659 l 1
 364 1789 l 1
 1514 1789 l 1
 1486 1659 l 1
EndSplineSet
EndChar
StartChar: degree
Encoding: 114 176 116
OldEncoding: 176
Width: 964
Flags: W
Fore
1104 1135 m 0
 1081.33 1028.33 1025.5 938.333 936.5 865 c 128
 847.5 791.667 749.333 755 642 755 c 0
 536 755 453.667 791.333 395 864 c 128
 336.333 936.667 318.667 1027 342 1135 c 0
 364.667 1241.67 420.5 1331.67 509.5 1405 c 128
 598.5 1478.33 696.667 1515 804 1515 c 128
 911.333 1515 993.833 1478.33 1051.5 1405 c 128
 1109.17 1331.67 1126.67 1241.67 1104 1135 c 0
947 1135 m 0
 960.333 1199 950.333 1253 917 1297 c 128
 883.667 1341 835 1363 771 1363 c 128
 707 1363 649 1341 597 1297 c 128
 545 1253 512.333 1199 499 1135 c 0
 485 1069.67 495.167 1015.33 529.5 972 c 128
 563.833 928.667 612 907 674 907 c 0
 738 907 796.167 929.167 848.5 973.5 c 128
 900.833 1017.83 933.667 1071.67 947 1135 c 0
EndSplineSet
EndChar
StartChar: plusminus
Encoding: 115 177 117
OldEncoding: 177
Width: 1490
Flags: W
Fore
1361 159 m 1
 195 159 l 1
 229 317 l 1
 729 317 l 1
 819 739 l 1
 319 739 l 1
 352 897 l 1
 852 897 l 1
 960 1402 l 1
 1126 1402 l 1
 1018 897 l 1
 1518 897 l 1
 1485 739 l 1
 985 739 l 1
 895 317 l 1
 1395 317 l 1
 1361 159 l 1
EndSplineSet
EndChar
StartChar: uni00B2
Encoding: 116 178 118
OldEncoding: 178
Width: 1010
Flags: W
Fore
986 566 m 1
 305 566 l 1
 337 718 l 1
 427 777 427 777 509 831.5 c 128
 563.667 867.833 608.667 900.333 644 929 c 0
 729.333 997 787 1050.17 817 1088.5 c 128
 847 1126.83 867.667 1173 879 1227 c 0
 889 1273 882.333 1308.5 859 1333.5 c 128
 835.667 1358.5 798.667 1371 748 1371 c 0
 702 1371 653.333 1361 602 1341 c 128
 550.667 1321 509 1300.33 477 1279 c 1
 462 1279 l 1
 500 1458 l 1
 546 1476 595.667 1490.67 649 1502 c 128
 702.333 1513.33 753.667 1519 803 1519 c 0
 907 1519 981.333 1492.83 1026 1440.5 c 128
 1070.67 1388.17 1084.33 1321 1067 1239 c 0
 1055 1182.33 1030.17 1127.83 992.5 1075.5 c 128
 954.833 1023.17 893.333 964.667 808 900 c 0
 766.667 869.333 719.333 836.833 666 802.5 c 128
 586 751 586 751 523 710 c 1
 1016 710 l 1
 986 566 l 1
EndSplineSet
EndChar
StartChar: uni00B3
Encoding: 117 179 119
OldEncoding: 179
Width: 1010
Flags: W
Fore
1012 828 m 0
 1002 780.667 983 738.167 955 700.5 c 128
 927 662.833 894.667 633 858 611 c 0
 818 586.333 776.333 568.667 733 558 c 128
 689.667 547.333 641.667 542 589 542 c 0
 534.333 542 484.167 547 438.5 557 c 128
 392.833 567 350.333 581.333 311 600 c 1
 348 775 l 1
 365 775 l 1
 385 751.667 418.5 730.167 465.5 710.5 c 128
 512.5 690.833 562.333 681 615 681 c 0
 671 681 720 693.167 762 717.5 c 128
 804 741.833 830 778 840 826 c 0
 850 874 843 909.667 819 933 c 128
 795 956.333 748.333 968 679 968 c 2
 539 968 l 1
 569 1107 l 1
 694 1107 l 2
 752 1107 799.5 1119.67 836.5 1145 c 128
 873.5 1170.33 896.667 1205 906 1249 c 0
 914.667 1289 907.833 1320.83 885.5 1344.5 c 128
 863.167 1368.17 823 1380 765 1380 c 0
 721 1380 671.333 1369.67 616 1349 c 128
 560.667 1328.33 518 1306.33 488 1283 c 1
 471 1283 l 1
 508 1458 l 1
 554.667 1476 604.167 1490.67 656.5 1502 c 128
 708.833 1513.33 761.333 1519 814 1519 c 0
 915.333 1519 989.5 1495.67 1036.5 1449 c 128
 1083.5 1402.33 1100 1346.33 1086 1281 c 0
 1073.33 1223 1046.83 1175.17 1006.5 1137.5 c 128
 966.167 1099.83 918.667 1072.33 864 1055 c 1
 862 1047 l 1
 913.333 1036.33 954.5 1012.83 985.5 976.5 c 128
 1016.5 940.167 1025.33 890.667 1012 828 c 0
EndSplineSet
EndChar
StartChar: acute
Encoding: 118 180 120
OldEncoding: 180
Width: 1118
Flags: W
Fore
1227 1676 m 1
 874 1302 l 1
 725 1302 l 1
 984 1676 l 1
 1227 1676 l 1
EndSplineSet
EndChar
StartChar: mu
Encoding: 119 181 121
OldEncoding: 181
Width: 1163
Flags: W
Fore
1027 0 m 1
 855 0 l 1
 879 116 l 1
 873 116 l 1
 824.333 74 777.333 41.3333 732 18 c 128
 686.667 -5.33333 634 -17 574 -17 c 0
 512.667 -17 466.833 -5.33333 436.5 18 c 128
 406.167 41.3333 376.667 73.6667 348 115 c 1
 236 -412 l 1
 48 -412 l 1
 373 1117 l 1
 561 1117 l 1
 382 275 l 1
 402.667 241.667 431.833 214.833 469.5 194.5 c 128
 507.167 174.167 554.667 164 612 164 c 0
 672 164 724.667 173.667 770 193 c 128
 815.333 212.333 857.667 239.667 897 275 c 1
 1076 1117 l 1
 1264 1117 l 1
 1027 0 l 1
EndSplineSet
EndChar
StartChar: paragraph
Encoding: 120 182 122
OldEncoding: 182
Width: 1118
Flags: W
Fore
904 -363 m 1
 764 -363 l 1
 1130 1359 l 1
 943 1359 l 1
 577 -363 l 1
 437 -363 l 1
 641 593 l 1
 504.333 596.333 402.667 639.333 336 722 c 128
 269.333 804.667 250.667 914 280 1050 c 0
 309.333 1188 375.5 1295.67 478.5 1373 c 128
 581.5 1450.33 714 1489 876 1489 c 2
 1298 1489 l 1
 904 -363 l 1
EndSplineSet
EndChar
StartChar: periodcentered
Encoding: 121 183 123
OldEncoding: 183
Width: 724
Flags: W
Fore
658 832 m 1
 419 832 l 1
 480 1117 l 1
 719 1117 l 1
 658 832 l 1
EndSplineSet
EndChar
StartChar: cedilla
Encoding: 122 184 124
OldEncoding: 184
Width: 1118
Flags: W
Fore
771 20 m 1
 769 8 766.833 -7.16667 764.5 -25.5 c 128
 762.167 -43.8333 758.667 -65 754 -89 c 0
 730.667 -197 684 -279.667 614 -337 c 128
 544 -394.333 464.667 -423 376 -423 c 0
 351.333 -423 322.667 -421 290 -417 c 128
 257.333 -413 228.667 -407 204 -399 c 1
 238 -239 l 1
 247 -239 l 1
 261 -246.333 280.167 -253.833 304.5 -261.5 c 128
 328.833 -269.167 354.333 -273 381 -273 c 0
 443.667 -273 491.167 -259.833 523.5 -233.5 c 128
 555.833 -207.167 578.333 -165 591 -107 c 0
 596 -81 596 -81 601.5 -50 c 128
 607 -19 607 -19 614 20 c 1
 771 20 l 1
EndSplineSet
EndChar
StartChar: uni0E01
Encoding: 123 3585 125
OldEncoding: 3585
Width: 1240
Flags: W
Fore
1225 673 m 1
 1082 0 l 1
 922 0 l 1
 1061 657 l 1
 1083.67 761.667 1080.33 838.667 1051 888 c 0
 1043 900.667 1033.67 912.667 1023 924 c 1
 1016 930 l 2
 986 956 941.667 974.333 883 985 c 0
 865.667 987.667 849.333 989 834 989 c 0
 736.667 989 642 956.667 550 892 c 0
 521.333 872 495 849.667 471 825 c 1
 499 817.667 532 794.333 570 755 c 0
 605.333 719.667 624 689 626 663 c 1
 568.667 614.333 531.667 581 515 563 c 0
 486.333 530.333 466 499.333 454 470 c 0
 444 444.667 434.333 409 425 363 c 1
 348 0 l 1
 188 0 l 1
 265 363 l 1
 282.333 446.333 304.667 507.333 332 546 c 0
 353.333 576 395.333 617.667 458 671 c 1
 439.333 701 403.667 731.333 351 762 c 0
 327 776 305.333 786 286 792 c 1
 312.667 854.667 362 917 434 979 c 1
 563.333 1092.33 708 1149 868 1149 c 0
 1013.33 1149 1120 1102 1188 1008 c 1
 1241.33 922 1253.67 810.333 1225 673 c 1
EndSplineSet
EndChar
StartChar: uni0E02
Encoding: 124 3586 126
OldEncoding: 3586
Width: 1400
Flags: W
Fore
422 642 m 1
 448 641 l 1
 477.333 645 503.667 660.333 527 687 c 1
 528.333 689.667 530 692.333 532 695 c 0
 544.667 713 553 731.667 557 751 c 0
 560.333 766.333 560.667 780.333 558 793 c 0
 554 817 540.667 832.333 518 839 c 1
 490 841 l 1
 455.333 839 426.333 822.333 403 791 c 0
 399 785.667 395.333 779.667 392 773 c 0
 385.333 760.333 380.667 747.667 378 735 c 0
 375.333 723.667 374.667 713 376 703 c 1
 381 679 l 1
 389 657.667 402.667 645.333 422 642 c 1
997 771 m 1
 948 731 l 1
 878 670.333 838.333 618.333 829 575 c 2
 766 278 l 2
 759.333 247.333 774.667 217.667 812 189 c 0
 844 163.667 878 150.667 914 150 c 0
 961.333 150 1008 166 1054 198 c 0
 1089.33 223.333 1110 250 1116 278 c 2
 1299 1139 l 1
 1459 1139 l 1
 1276 278 l 2
 1242 118.667 1144.33 25.3333 983 -2 c 0
 951 -7.33333 916.667 -10 880 -10 c 0
 771.333 -10 692 20.6667 642 82 c 0
 600.667 133.333 588.667 198.667 606 278 c 1
 669 575 l 2
 679.667 625 729 685 817 755 c 0
 830.333 765.667 841 790.667 849 830 c 1
 853 867.333 848.667 899.667 836 927 c 0
 819.333 962.333 786 986 736 998 c 0
 722 1001.33 707.667 1003 693 1003 c 2
 645 1000 l 1
 594.333 992.667 543 967.667 491 925 c 1
 504.333 931 519.333 934 536 934 c 0
 543.333 934 551.667 933.667 561 933 c 0
 605 927.667 636.667 900 656 850 c 0
 664.667 826.667 665.333 798.333 658 765 c 0
 648 718.333 627.667 674.667 597 634 c 0
 567.667 594.667 526.333 567.667 473 553 c 0
 453 547.667 433 545 413 545 c 0
 403.667 545 395 545.667 387 547 c 0
 334.333 553 295 582.333 269 635 c 0
 263 649 l 0
 251 683.667 252 735.333 266 804 c 0
 269.333 818 273 831 277 843 c 0
 299 911 339.333 971.667 398 1025 c 0
 405.333 1031.67 412.667 1037.67 420 1043 c 0
 507.333 1109.67 602 1145 704 1149 c 0
 720 1149 l 0
 788 1149 850.667 1130 908 1092 c 0
 928 1078.67 944 1064.33 956 1049 c 0
 990.667 1006.33 1007.33 939 1006 847 c 1
 1004.67 818.333 1001.67 793 997 771 c 1
EndSplineSet
EndChar
StartChar: uni0E03
Encoding: 125 3587 127
OldEncoding: 3587
Width: 1450
Flags: W
Fore
420 603 m 1
 446 603 l 1
 475.333 607 501 622.333 523 649 c 0
 527 653 527 653 530 656 c 0
 542.667 674 551 693 555 713 c 0
 558.333 728.333 558.667 742 556 754 c 0
 552 775.333 540.667 790 522 798 c 0
 516 800 l 2
 488 803 l 1
 452 800.333 423 783.667 401 753 c 0
 397 747 393.333 740.667 390 734 c 0
 382.667 721.333 377.667 708.667 375 696 c 0
 371 674.667 372 655.667 378 639 c 1
 386.667 619 400.667 607 420 603 c 1
400 1011 m 0
 442.667 1059.67 496.333 1100 561 1132 c 0
 579 1140.67 593.333 1146.33 604 1149 c 1
 604 1148.33 649.333 1112.33 740 1041 c 1
 907 1149 l 1
 943.667 1138.33 980.667 1110.33 1018 1065 c 0
 1025.33 1055.67 1032.33 1046 1039 1036 c 0
 1065.67 995.333 1080.33 936.333 1083 859 c 0
 1083.67 835.667 1082.67 815 1080 797 c 0
 1078.67 791.667 1077.67 787 1077 783 c 1
 1027 743 l 1
 957 682.333 917.333 630.333 908 587 c 1
 843 278 l 1
 836.333 247.333 851.667 217.667 889 189 c 0
 921 163.667 955 150.667 991 150 c 0
 1038.33 150 1085 166 1131 198 c 0
 1166.33 223.333 1187 250 1193 278 c 2
 1376 1139 l 1
 1536 1139 l 1
 1353 278 l 2
 1319 118.667 1221.33 25.3333 1060 -2 c 1
 994 -9 l 2
 982 -9.66667 969.667 -10 957 -10 c 0
 848.333 -10 769 20.6667 719 82 c 0
 677.667 133.333 665.667 198.667 683 278 c 1
 748 587 l 2
 758.667 637 808.333 697 897 767 c 0
 910.333 777.667 918.667 793.5 922 814.5 c 128
 925.333 835.5 923.667 863 917 897 c 0
 911 923 895.667 950.333 871 979 c 1
 870.333 978.333 815.333 945.667 706 881 c 1
 586 963 l 1
 568 979 l 1
 546.667 966.333 524.667 942.667 502 908 c 1
 489 886 l 1
 502.333 892.667 517.333 896 534 896 c 0
 540.667 896 549 895.333 559 894 c 0
 603 888.667 634.667 861.333 654 812 c 0
 662.667 788.667 663.333 760.333 656 727 c 0
 646 680.333 625.667 636.333 595 595 c 0
 565 555.667 523.667 529 471 515 c 0
 451 509.667 430.667 507 410 507 c 0
 401.333 507 392.667 507.333 384 508 c 0
 332 514.667 293 544 267 596 c 0
 265 601.333 263 606.333 261 611 c 0
 248.333 645.667 249.333 697 264 765 c 0
 267.333 779.667 270.667 792.667 274 804 c 0
 296 871.333 338 940.333 400 1011 c 0
EndSplineSet
EndChar
StartChar: uni0E04
Encoding: 126 3588 128
OldEncoding: 3588
Width: 1370
Flags: W
Fore
916 630 m 1
 911.333 634.667 905.333 638 898 640 c 1
 874 641 l 1
 836 638.333 802.333 617.667 773 579 c 1
 767 572.333 762.333 565.333 759 558 c 1
 751 532 l 1
 743.667 498 752.667 471.667 778 453 c 1
 788.667 446.333 800.333 443 813 443 c 0
 823.667 443 835 445.333 847 450 c 0
 879.667 463.333 906.333 487.667 927 523 c 0
 932.333 532.333 936 542.667 938 554 c 0
 945.333 587.333 938 612.667 916 630 c 1
434 256 m 1
 441.333 274 449.333 292.667 458 312 c 0
 521.333 456 581.667 559 639 621 c 0
 649 631 659.333 640.667 670 650 c 0
 720.667 695.333 771 724.667 821 738 c 0
 839.667 743.333 859.333 746 880 746 c 0
 927.333 746 964 733.333 990 708 c 1
 997 700 l 2
 1035.67 658.667 1049 609.667 1037 553 c 0
 1033.67 537.667 1028.67 523.667 1022 511 c 0
 1012 490.333 998.667 469.667 982 449 c 0
 938 394.333 891.667 360.667 843 348 c 0
 825.667 344 808.667 342 792 342 c 0
 757.333 342 730 351.333 710 370 c 0
 691.333 388.667 681 406.667 679 424 c 1
 660.333 396 639.333 362.667 616 324 c 0
 535.333 188 481.667 80 455 0 c 1
 245 0 l 1
 267 108 l 1
 278.333 160.667 284 266 284 424 c 1
 282 513.333 289.333 596.333 306 673 c 0
 325.333 766.333 356.667 841 400 897 c 1
 453.333 963.667 515.333 1017 586 1057 c 1
 675.333 1105.67 765.333 1135.33 856 1146 c 1
 920 1149 l 1
 1021.33 1148.33 1103.33 1130.33 1166 1095 c 1
 1234 1060.33 1283.67 1015 1315 959 c 0
 1317 956.333 1318.67 953.333 1320 950 c 0
 1356.67 881.333 1361 781.667 1333 651 c 1
 1195 0 l 1
 1035 0 l 1
 1184 702 l 1
 1184.67 706 1185.33 710.333 1186 715 c 0
 1191.33 761 1187 801.667 1173 837 c 0
 1157 878.333 1122.33 915.333 1069 948 c 0
 1025 975.333 965.667 989 891 989 c 0
 823.667 989 761 976 703 950 c 0
 687.667 943.333 671.333 934.667 654 924 c 0
 598 889.333 554.667 850.667 524 808 c 0
 496 768 475 714 461 646 c 0
 451.667 602.667 447.333 562.333 448 525 c 1
 434 256 l 1
EndSplineSet
EndChar
StartChar: uni0E05
Encoding: 127 3589 129
OldEncoding: 3589
Width: 1370
Flags: W
Fore
1338 926 m 0
 1338.67 924.667 1339 923.333 1339 922 c 0
 1356.33 856.667 1352.67 766.333 1328 651 c 1
 1190 0 l 1
 1030 0 l 1
 1179 702 l 1
 1183 721 l 2
 1195.67 782.333 1194.67 834 1180 876 c 0
 1160.67 928 1121 965.667 1061 989 c 1
 863 873 l 1
 724 989 l 1
 720.667 988.333 717 987.333 713 986 c 0
 637.667 962.667 573.667 912 521 834 c 0
 499 801.333 479.667 744.667 463 664 c 0
 451.667 613.333 445 567 443 525 c 1
 429 256 l 1
 436.333 274 444.333 292.667 453 312 c 0
 516.333 456 576.667 559 634 621 c 0
 644 631 654.333 640.667 665 650 c 0
 715.667 695.333 766 724.667 816 738 c 0
 834.667 743.333 854.333 746 875 746 c 0
 921.667 746 958.333 733.333 985 708 c 0
 987.667 705.333 990 702.667 992 700 c 0
 1030.67 658.667 1044 609.667 1032 553 c 0
 1028.67 537.667 1023.67 523.667 1017 511 c 0
 1007 490.333 993.667 469.667 977 449 c 0
 933 394.333 886.667 360.667 838 348 c 0
 820.667 344 803.667 342 787 342 c 0
 752.333 342 725 351.333 705 370 c 0
 686.333 388.667 676 406.667 674 424 c 1
 655.333 396 634.333 362.667 611 324 c 0
 530.333 188 476.667 80 450 0 c 1
 240 0 l 1
 262 108 l 1
 273.333 160.667 279 266 279 424 c 1
 277 521.333 284.333 609.667 301 689 c 0
 311.667 739 325.667 784.667 343 826 c 0
 365 877.333 394.333 924.667 431 968 c 1
 470 1009 l 1
 554.667 1091.67 650.667 1138.33 758 1149 c 1
 897 1033 l 1
 1095 1149 l 1
 1123 1142.33 1149.33 1133.33 1174 1122 c 0
 1259.33 1080.67 1314 1015.33 1338 926 c 0
911 630 m 1
 906.333 634.667 900.333 638 893 640 c 1
 869 641 l 1
 831 638.333 797.333 617.667 768 579 c 1
 762 572.333 757.333 565.333 754 558 c 1
 745 532 l 1
 738.333 498 747.667 471.667 773 453 c 0
 783 446.333 794.333 443 807 443 c 0
 818.333 443 830 445.333 842 450 c 0
 874.667 463.333 901.333 487.667 922 523 c 0
 926.667 532.333 930 542.667 932 554 c 0
 939.333 587.333 932.333 612.667 911 630 c 1
EndSplineSet
EndChar
StartChar: uni0E06
Encoding: 128 3590 130
OldEncoding: 3590
Width: 1520
Flags: W
Fore
431 603 m 1
 457 603 l 1
 486.333 607 512 622.333 534 649 c 0
 538 653 538 653 541 656 c 0
 553.667 674 562 693 566 713 c 0
 569.333 728.333 569.667 742 567 754 c 0
 563 775.333 551.667 790 533 798 c 0
 527 800 l 2
 499 803 l 1
 463 800.333 434 783.667 412 753 c 0
 408 747 404.333 740.667 401 734 c 0
 393.667 721.333 388.667 708.667 386 696 c 0
 382 674.667 383 655.667 389 639 c 1
 397.667 619 411.667 607 431 603 c 1
759 587 m 1
 770.333 637 820 697 908 767 c 0
 921.333 777.667 929.667 793.5 933 814.5 c 128
 936.333 835.5 934.667 863 928 897 c 0
 922 923 906.667 950.333 882 979 c 1
 881.333 978.333 826.333 945.667 717 881 c 1
 597 963 l 1
 579 979 l 1
 557.667 966.333 535.667 942.667 513 908 c 1
 500 886 l 1
 513.333 892.667 528.333 896 545 896 c 0
 551.667 896 560 895.333 570 894 c 0
 614 888.667 645.667 861.333 665 812 c 0
 673.667 788.667 674.333 760.333 667 727 c 0
 657 680.333 636.667 636.333 606 595 c 0
 576 555.667 534.667 529 482 515 c 0
 462 509.667 441.667 507 421 507 c 0
 412.333 507 403.667 507.333 395 508 c 0
 343 514.667 304 544 278 596 c 0
 276 601.333 274 606.333 272 611 c 0
 259.333 645.667 260.333 697 275 765 c 0
 278.333 779.667 281.667 792.667 285 804 c 0
 307 871.333 349 940.333 411 1011 c 0
 453.667 1059.67 507.333 1100 572 1132 c 0
 590 1140.67 604.333 1146.33 615 1149 c 1
 615 1148.33 660.333 1112.33 751 1041 c 1
 918 1149 l 1
 954.667 1138.33 991.667 1110.33 1029 1065 c 0
 1036.33 1055.67 1043.33 1046 1050 1036 c 0
 1076.67 995.333 1091.33 936.333 1094 859 c 0
 1094.67 835.667 1093.67 815 1091 797 c 0
 1089.67 791.667 1088.67 787 1088 783 c 1
 1038 743 l 1
 968 682.333 928.333 630.333 919 587 c 2
 881 409 l 1
 1000 272 l 1
 1077.33 189.333 1137 147.667 1179 147 c 0
 1188.33 147 1197.33 149.333 1206 154 c 0
 1229.33 167.333 1247 201.333 1259 256 c 1
 1447 1139 l 1
 1607 1139 l 1
 1419 256 l 2
 1400.33 168.667 1377.33 108 1350 74 c 0
 1334 55.3333 1314 39 1290 25 c 0
 1254.67 5 1219.33 -5 1184 -5 c 0
 1112 -5 1034 39.6667 950 129 c 1
 853 235 l 1
 845 243 l 1
 822 146 l 1
 798.667 78 760.333 31.3333 707 6 c 0
 683 -4.66667 658.333 -10 633 -10 c 0
 585.667 -10 547.333 4 518 32 c 1
 508 43 l 1
 474 87.6667 463.667 141.667 477 205 c 0
 490.333 267 516 319.333 554 362 c 1
 605.333 417.333 663.667 445.333 729 446 c 1
 759 587 l 1
713 328 m 1
 673 328 639.333 306.667 612 264 c 1
 598 244 588.667 223.333 584 202 c 0
 576 162.667 579.667 133.333 595 114 c 0
 600.333 106.667 607.667 103 617 103 c 0
 648.333 103 669 124 679 166 c 1
 686 200 l 1
 713 328 l 1
EndSplineSet
EndChar
StartChar: uni0E07
Encoding: 129 3591 131
OldEncoding: 3591
Width: 1000
Flags: W
Fore
848 1042 m 2
 817.333 1042 789 1026.67 763 996 c 0
 749 979.333 740 962.333 736 945 c 1
 736 938 l 1
 729.333 892 739.667 860.667 767 844 c 0
 777.667 838 790 835 804 835 c 1
 840.667 837.667 866.333 853.333 881 882 c 0
 889 896.667 895.667 917 901 943 c 1
 909 994.333 902.333 1025.33 881 1036 c 1
 859 1041 l 1
 848 1042 l 2
912 272 m 1
 888.667 161.333 831 81.6667 739 33 c 0
 683.667 4.33333 620.667 -10 550 -10 c 0
 406.667 -10 321 51 293 173 c 1
 287 203 284 236 284 272 c 1
 297 719 l 1
 462 640 l 1
 454.667 455.333 449 332.667 445 272 c 1
 443.667 232 461 199.667 497 175 c 0
 521 158.333 550 150 584 150 c 0
 654 150 703.667 175 733 225 c 0
 741.667 239 747.667 254.667 751 272 c 1
 857 770 l 1
 843 756 819.667 747 787 743 c 0
 783 742.333 779 742 775 742 c 2
 742 744 l 1
 708 749.333 680.333 765.333 659 792 c 0
 619.667 842 620.667 912.667 662 1004 c 1
 682.667 1047.33 717.333 1084 766 1114 c 0
 804.667 1137.33 845 1149.33 887 1150 c 0
 895 1150 l 0
 949 1149.33 990.333 1131 1019 1095 c 1
 1055 1051.67 1062.67 980.333 1042 881 c 1
 912 272 l 1
EndSplineSet
EndChar
StartChar: uni0E08
Encoding: 130 3592 132
OldEncoding: 3592
Width: 1200
Flags: W
Fore
538 645 m 0
 507.333 645 479 629.667 453 599 c 0
 439.667 582.333 431 565.333 427 548 c 1
 425 541 l 1
 419 495 430 463.667 458 447 c 0
 468 441 480 438 494 438 c 1
 530 440.667 556 456.333 572 485 c 1
 578.667 499.667 585 520 591 546 c 1
 599.667 597.333 593 628.333 571 639 c 0
 563 643 552 645 538 645 c 0
689 283 m 1
 669.667 194.333 699.667 150 779 150 c 0
 855.667 150 904 189.333 924 268 c 0
 925.333 271.333 926.333 275 927 279 c 1
 1019 715 l 1
 1034.33 785.667 1032.67 841.333 1014 882 c 0
 1011.33 887.333 1008.67 892 1006 896 c 0
 960.667 952 887 982.667 785 988 c 0
 775.667 988.667 766 989 756 989 c 0
 664 989 579 962.333 501 909 c 0
 479.667 894.333 460.667 878.667 444 862 c 1
 419 835 l 1
 301 929 l 1
 405.667 1048.33 534.667 1119.33 688 1142 c 0
 720.667 1146.67 754 1149 788 1149 c 0
 908.667 1149 1007.33 1122 1084 1068 c 0
 1116.67 1044.67 1142.33 1017.67 1161 987 c 0
 1198.33 923.667 1206.33 841.333 1185 740 c 1
 1087 279 l 1
 1063 167.667 1008 86.6667 922 36 c 0
 870 5.33333 811 -10 745 -10 c 0
 559 -10 487 87.6667 529 283 c 1
 548 373 l 1
 532.667 359 509 350 477 346 c 0
 473.667 345.333 470 344.667 466 344 c 1
 431 347 l 1
 398.333 352.333 371 368.333 349 395 c 1
 309.667 445 311 515.667 353 607 c 0
 373 650.333 407.667 687 457 717 c 0
 494.333 740.333 534.333 752.333 577 753 c 0
 581 753 581 753 586 753 c 0
 639.333 752.333 680.667 734 710 698 c 0
 745.333 654.667 752.333 583.333 731 484 c 1
 689 283 l 1
EndSplineSet
EndChar
StartChar: uni0E09
Encoding: 131 3593 133
OldEncoding: 3593
Width: 1395
Flags: W
Fore
1030 409 m 1
 1032 417.667 1053.67 519.667 1095 715 c 0
 1113 799.667 1108.33 860 1081 896 c 1
 1035.67 952 962.333 982.667 861 988 c 0
 851 988.667 841.333 989 832 989 c 0
 740 989 655 962.333 577 909 c 0
 555.667 894.333 536.667 878.667 520 862 c 1
 495 835 l 1
 376 929 l 1
 481.333 1048.33 610.667 1119.33 764 1142 c 0
 796.667 1146.67 829.667 1149 863 1149 c 0
 983.667 1149 1082.67 1122 1160 1068 c 0
 1192.67 1044.67 1218 1017.67 1236 987 c 0
 1274 923.667 1282.33 841.333 1261 740 c 1
 1198 446 l 1
 1263.33 445.333 1309.67 417.333 1337 362 c 0
 1357.67 319.333 1361.33 267 1348 205 c 0
 1334.67 141.667 1301.67 87.6667 1249 43 c 1
 1213 13.6667 1170.33 -3.66667 1121 -9 c 0
 1113.67 -9.66667 1106.67 -10 1100 -10 c 0
 1038 -10 999 18.3333 983 75 c 0
 977.667 96.3333 976.333 120 979 146 c 1
 993 227 l 1
 991 225.667 962.333 203.667 907 161 c 0
 767 51.6667 656.333 -3 575 -3 c 0
 560.333 -3 546.667 -1.33333 534 2 c 0
 515.333 6 498.667 13.6667 484 25 c 0
 451.333 49.6667 435 86.6667 435 136 c 0
 435.667 164 441.667 204 453 256 c 2
 482 391 l 1
 467.333 377 444 368 412 364 c 0
 408 363.333 403.667 362.667 399 362 c 1
 366 365 l 1
 332.667 370.333 305 386.333 283 413 c 1
 243.667 463 244.667 533.667 286 625 c 1
 306.667 668.333 341.667 705 391 735 c 0
 428.333 758.333 468 770.333 510 771 c 0
 514 771 514 771 519 771 c 0
 573 770.333 614.667 752 644 716 c 0
 679.333 672.667 686.333 601.333 665 502 c 1
 613 256 l 1
 601 201.333 602 168.333 616 157 c 0
 618 155.667 620 154.667 622 154 c 2
 637 154 l 1
 671.667 160 761.667 216 907 322 c 0
 979 374.667 1020 403.667 1030 409 c 1
471 663 m 2
 440.333 663 412.333 647.667 387 617 c 0
 373 600.333 364.333 583.333 361 566 c 1
 359 559 l 1
 353 513 363.667 481.667 391 465 c 0
 401 459 413 456 427 456 c 1
 463.667 458.667 489.667 474.333 505 503 c 0
 513 517.667 519.667 538 525 564 c 0
 533.667 615.333 527 646.333 505 657 c 1
 483 662 l 1
 471 663 l 2
1164 328 m 1
 1137 200 l 1
 1129.67 164 1126.67 141.667 1128 133 c 0
 1130 113 1142 103 1164 103 c 0
 1186 103 1206 120.667 1224 156 c 0
 1230.67 170.667 1235.67 186 1239 202 c 0
 1247.67 242 1242 275 1222 301 c 0
 1208 319 1188.67 328 1164 328 c 1
EndSplineSet
EndChar
StartChar: uni0E0A
Encoding: 132 3594 134
OldEncoding: 3594
Width: 1390
Flags: W
Fore
1036 921 m 1
 1100.67 930.333 1147.67 939.667 1177 949 c 0
 1209 959.667 1237.67 973.333 1263 990 c 0
 1311 1020.67 1343.67 1055.67 1361 1095 c 0
 1369.67 1113.67 1377.33 1136.33 1384 1163 c 1
 1389 1188 l 1
 1555 1188 l 1
 1550 1164 l 2
 1526.67 1053.33 1454.33 968.333 1333 909 c 0
 1291 888.333 1245.67 872.333 1197 861 c 1
 1264 802 l 2
 1280.67 786.667 1292.33 774.333 1299 765 c 0
 1335 713.667 1346.33 656 1333 592 c 2
 1267 278 l 1
 1260.33 248 1252 220.333 1242 195 c 0
 1199.33 89.6667 1121.33 25 1008 1 c 1
 947 -8 l 1
 928.333 -9.33333 909.333 -10 890 -10 c 0
 772.667 -10 694.667 27 656 101 c 0
 630.667 148.333 625.667 207.333 641 278 c 1
 704 575 l 2
 714.667 625 764 685 852 755 c 0
 865.333 765.667 876 790.667 884 830 c 1
 888 867.333 883.667 899.667 871 927 c 0
 854.333 962.333 821 986 771 998 c 0
 757 1001.33 742.667 1003 728 1003 c 2
 680 1000 l 1
 629.333 992.667 578 967.667 526 925 c 1
 539.333 931 554.333 934 571 934 c 0
 578.333 934 586.667 933.667 596 933 c 0
 640 927.667 671.667 900 691 850 c 0
 699.667 826.667 700.333 798.333 693 765 c 0
 683 718.333 662.667 674.667 632 634 c 0
 602.667 594.667 561.333 567.667 508 553 c 0
 488 547.667 468 545 448 545 c 0
 438.667 545 430 545.667 422 547 c 0
 369.333 553 330 582.333 304 635 c 0
 298 649 l 0
 286 683.667 287 735.333 301 804 c 0
 304.333 818 308 831 312 843 c 0
 334 911 374.333 971.667 433 1025 c 0
 440.333 1031.67 447.667 1037.67 455 1043 c 0
 542.333 1109.67 637 1145 739 1149 c 0
 755 1149 l 0
 823 1149 885.667 1130 943 1092 c 0
 963 1078.67 979 1064.33 991 1049 c 0
 1014.33 1020.33 1029.33 977.667 1036 921 c 1
1032 771 m 1
 983 731 l 1
 913 670.333 873.333 618.333 864 575 c 2
 801 278 l 1
 793.667 244.667 805.333 214 836 186 c 0
 861.333 162.667 890.667 150.667 924 150 c 0
 971.333 150 1015.33 167.333 1056 202 c 0
 1084 225.333 1101 250.667 1107 278 c 1
 1171 581 l 2
 1176.33 606.333 1167.67 639 1145 679 c 0
 1133 700.333 1118.67 718.667 1102 734 c 0
 1080.67 753.333 1057.33 765.667 1032 771 c 1
457 642 m 1
 483 641 l 1
 512.333 645 538.667 660.333 562 687 c 1
 563.333 689.667 565 692.333 567 695 c 0
 579.667 713 588 731.667 592 751 c 0
 595.333 766.333 595.667 780.333 593 793 c 0
 589 817 575.667 832.333 553 839 c 1
 525 841 l 1
 490.333 839 461.333 822.333 438 791 c 0
 434 785.667 430.333 779.667 427 773 c 0
 420.333 760.333 415.667 747.667 413 735 c 0
 410.333 723.667 409.667 713 411 703 c 1
 416 679 l 1
 424 657.667 437.667 645.333 457 642 c 1
EndSplineSet
EndChar
StartChar: uni0E0B
Encoding: 133 3595 135
OldEncoding: 3595
Width: 1390
Flags: W
Fore
389 603 m 1
 415 603 l 1
 444.333 607 470 622.333 492 649 c 0
 496 653 496 653 499 656 c 0
 511.667 674 520 693 524 713 c 0
 527.333 728.333 527.667 742 525 754 c 0
 521 775.333 509.667 790 491 798 c 0
 485 800 l 2
 457 803 l 1
 421 800.333 392 783.667 370 753 c 0
 366 747 362.333 740.667 359 734 c 0
 351.667 721.333 346.667 708.667 344 696 c 0
 340 674.667 341 655.667 347 639 c 1
 355.667 619 369.667 607 389 603 c 1
1040 921 m 1
 1104.67 930.333 1151.67 939.667 1181 949 c 0
 1213 959.667 1241.67 973.333 1267 990 c 0
 1315 1020.67 1347.67 1055.67 1365 1095 c 0
 1373.67 1113.67 1381.33 1136.33 1388 1163 c 1
 1393 1188 l 1
 1559 1188 l 1
 1554 1164 l 2
 1530.67 1053.33 1458.33 968.333 1337 909 c 0
 1295 888.333 1249.67 872.333 1201 861 c 1
 1268 802 l 2
 1284.67 786.667 1296.33 774.333 1303 765 c 0
 1339 713.667 1350.33 656 1337 592 c 2
 1271 278 l 1
 1264.33 248 1256 220.333 1246 195 c 0
 1203.33 89.6667 1125.33 25 1012 1 c 1
 951 -8 l 1
 932.333 -9.33333 913.333 -10 894 -10 c 0
 776.667 -10 698.667 27 660 101 c 0
 634.667 148.333 629.667 207.333 645 278 c 1
 708 575 l 2
 718.667 625 768.667 684.667 858 754 c 0
 872 765.333 880.167 772.667 882.5 776 c 128
 884.833 779.333 887 786 889 796 c 0
 895 826.667 894 860.333 886 897 c 0
 880 923 864.667 950.333 840 979 c 1
 839.333 978.333 784.333 945.667 675 881 c 1
 555 963 l 1
 537 979 l 1
 515.667 966.333 493.667 942.667 471 908 c 1
 458 886 l 1
 471.333 892.667 486.333 896 503 896 c 0
 509.667 896 518 895.333 528 894 c 0
 572 888.667 603.667 861.333 623 812 c 0
 631.667 788.667 632.333 760.333 625 727 c 0
 615 680.333 594.667 636.333 564 595 c 0
 534 555.667 492.667 529 440 515 c 0
 420 509.667 399.667 507 379 507 c 0
 370.333 507 361.667 507.333 353 508 c 0
 301 514.667 262 544 236 596 c 0
 234 601.333 232 606.333 230 611 c 0
 217.333 645.667 218.333 697 233 765 c 0
 236.333 779.667 239.667 792.667 243 804 c 0
 265 871.333 307 940.333 369 1011 c 0
 411.667 1059.67 465.333 1100 530 1132 c 0
 548 1140.67 562.333 1146.33 573 1149 c 1
 573 1148.33 618.333 1112.33 709 1041 c 1
 876 1149 l 1
 915.333 1137.67 952 1110.67 986 1068 c 0
 993.333 1058 1000.67 1047.33 1008 1036 c 0
 1030 998.667 1040.67 960.333 1040 921 c 1
1036 771 m 1
 987 731 l 1
 917 670.333 877.333 618.333 868 575 c 2
 805 278 l 1
 797.667 244.667 809.333 214 840 186 c 0
 865.333 162.667 894.667 150.667 928 150 c 0
 975.333 150 1019.33 167.333 1060 202 c 0
 1088 225.333 1105 250.667 1111 278 c 1
 1175 581 l 2
 1180.33 606.333 1171.67 639 1149 679 c 0
 1137 700.333 1122.67 718.667 1106 734 c 0
 1084.67 753.333 1061.33 765.667 1036 771 c 1
EndSplineSet
EndChar
StartChar: uni0E0C
Encoding: 134 3596 136
OldEncoding: 3596
Width: 1750
Flags: W
Fore
1064 657 m 2
 1086 761 1083 837.667 1055 887 c 0
 1045.67 903 1033.67 917.333 1019 930 c 0
 989.667 956 945.333 974.333 886 985 c 0
 868.667 987.667 852.667 989 838 989 c 0
 740 989 645 956.667 553 892 c 0
 525 872 499 849.667 475 825 c 1
 503 817.667 536 794.333 574 755 c 0
 608.667 719.667 627 689 629 663 c 1
 571.667 614.333 535 581 519 563 c 0
 485 525.667 462.333 491 451 459 c 0
 445.667 443.667 440.667 425 436 403 c 2
 429 369 l 1
 443.667 383 467.333 392 500 396 c 0
 503.333 396.667 507 397 511 397 c 2
 545 395 l 1
 578.333 389.667 605.667 373.667 627 347 c 0
 666.333 297 665.333 226.333 624 135 c 0
 604 92.3333 569.333 55.6667 520 25 c 0
 482 1.66667 442 -10.3333 400 -11 c 2
 391 -11 l 2
 337 -10.3333 295.667 8 267 44 c 0
 231.667 87.3333 224.333 158.667 245 258 c 1
 276 403 l 2
 288 459.667 308 507.333 336 546 c 0
 356.667 576 398.667 617.667 462 671 c 1
 443.333 701 407.333 731.333 354 762 c 0
 330 776 308.667 786 290 792 c 1
 316.667 854.667 365.667 917 437 979 c 0
 566.333 1092.33 711.333 1149 872 1149 c 0
 1017.33 1149 1123.67 1102 1191 1008 c 1
 1244.33 922.667 1256.67 811 1228 673 c 0
 1227.33 671 1208.33 583 1171 409 c 1
 1290 272 l 1
 1367.33 189.333 1427 147.667 1469 147 c 0
 1478.33 147 1487.33 149.333 1496 154 c 0
 1519.33 167.333 1537 201.333 1549 256 c 1
 1737 1139 l 1
 1897 1139 l 1
 1709 256 l 2
 1690.33 168.667 1667.33 108 1640 74 c 0
 1624 55.3333 1604 39 1580 25 c 0
 1544.67 5 1509.33 -5 1474 -5 c 0
 1402 -5 1324 39.6667 1240 129 c 1
 1143 235 l 2
 1135 243 l 1
 1112 146 l 1
 1088.67 78 1050.33 31.3333 997 6 c 0
 973 -4.66667 948.333 -10 923 -10 c 0
 876.333 -10 838.333 3.66667 809 31 c 1
 798 43 l 1
 764 87.6667 753.667 141.667 767 205 c 0
 780.333 267 806 319.333 844 362 c 1
 895.333 417.333 953.667 445.333 1019 446 c 1
 1064 657 l 2
1003 328 m 1
 963 328 929.333 306.667 902 264 c 1
 888 244 878.667 223.333 874 202 c 0
 866 162.667 869.667 133.333 885 114 c 0
 890.333 106.667 897.667 103 907 103 c 0
 938.333 103 959 124 969 166 c 1
 976 200 l 1
 1003 328 l 1
439 97 m 0
 469.667 97 498 112.333 524 143 c 0
 537.333 159.667 546 176.667 550 194 c 0
 550.667 196.667 551 199 551 201 c 0
 557.667 247 547 278 519 294 c 1
 509 300.667 497 304 483 304 c 1
 446.333 301.333 420.333 285.667 405 257 c 1
 393 222 l 2
 390.333 214.667 388 206 386 196 c 0
 377.333 144.667 383.667 113.667 405 103 c 0
 413.667 99 425 97 439 97 c 0
EndSplineSet
EndChar
StartChar: uni0E0D
Encoding: 135 3597 137
OldEncoding: 3597
Width: 1745
Flags: W
Fore
856 -203 m 1
 867 -162 l 1
 887 -104.667 923.333 -61.6667 976 -33 c 0
 1000 -20.3333 1024.67 -12.3333 1050 -9 c 1
 1087 -8 l 1
 1124.33 -10 1154 -25 1176 -53 c 0
 1195.33 -77.6667 1204.33 -107 1203 -141 c 1
 1197 -174 l 1
 1183 -222.667 1154.67 -260.667 1112 -288 c 2
 1104 -293 l 1
 1112 -296.333 1125.67 -298 1145 -298 c 0
 1175 -298 1205.33 -293.667 1236 -285 c 0
 1336 -255.667 1407 -205 1449 -133 c 0
 1469 -100.333 1484.67 -60.3333 1496 -13 c 1
 1612 -13 l 1
 1583.33 -145.667 1515.33 -249 1408 -323 c 0
 1370.67 -348.333 1330.33 -368.667 1287 -384 c 0
 1233 -404 1176.67 -414 1118 -414 c 0
 1024 -414 952.333 -390.333 903 -343 c 0
 863.667 -305.667 848 -259 856 -203 c 1
1038 -84 m 1
 1006.67 -88.6667 982.333 -104.333 965 -131 c 0
 957.667 -141 953 -152 951 -164 c 0
 949.667 -169.333 949 -175 949 -181 c 0
 949 -209 961.667 -227.333 987 -236 c 0
 994.333 -239.333 1002.67 -241 1012 -241 c 0
 1016 -241 1020 -240.667 1024 -240 c 0
 1060.67 -234.667 1088.33 -217.667 1107 -189 c 0
 1113 -179.667 1117 -170 1119 -160 c 0
 1120.33 -156.667 1121 -153 1121 -149 c 0
 1122.33 -121 1111 -101 1087 -89 c 1
 1077 -85 1066 -83 1054 -83 c 2
 1038 -84 l 1
439 97 m 0
 469.667 97 498 112.333 524 143 c 0
 537.333 159.667 546 176.667 550 194 c 0
 550.667 196.667 551 199 551 201 c 0
 557.667 247 547 278 519 294 c 1
 509 300.667 497 304 483 304 c 1
 446.333 301.333 420.333 285.667 405 257 c 1
 393 222 l 2
 390.333 214.667 388 206 386 196 c 0
 377.333 144.667 383.667 113.667 405 103 c 0
 413.667 99 425 97 439 97 c 0
1228 673 m 1
 1150 310 l 1
 1134.67 236.667 1156.33 187.667 1215 163 c 0
 1235 154.333 1257 150 1281 150 c 0
 1285 150 l 0
 1349.67 151.333 1397 165.667 1427 193 c 0
 1455 219 1474.33 258 1485 310 c 1
 1662 1139 l 1
 1822 1139 l 1
 1631 241 l 2
 1616.33 172.333 1572 113.667 1498 65 c 0
 1422.67 15.6667 1337 -9.33333 1241 -10 c 1
 1186 -6 l 1
 1102.67 5.33333 1041.67 40 1003 98 c 0
 974.333 142.667 965.667 193 977 249 c 1
 1064 657 l 1
 1086.67 761.667 1083.33 838.667 1054 888 c 0
 1046.67 900.667 1037.67 912.667 1027 924 c 1
 1019 930 l 2
 989.667 956 945.333 974.333 886 985 c 0
 868.667 987.667 852.667 989 838 989 c 0
 740 989 645 956.667 553 892 c 0
 525 872 499 849.667 475 825 c 1
 503 817.667 536 794.333 574 755 c 0
 608.667 719.667 627 689 629 663 c 1
 571.667 614.333 535 581 519 563 c 0
 485 525.667 462.333 491 451 459 c 0
 445.667 443.667 440.667 425 436 403 c 2
 429 369 l 1
 443.667 383 467.333 392 500 396 c 0
 503.333 396.667 507 397 511 397 c 2
 545 395 l 1
 578.333 389.667 605.667 373.667 627 347 c 0
 666.333 297 665.333 226.333 624 135 c 0
 604 92.3333 569.333 55.6667 520 25 c 0
 482 1.66667 442 -10.3333 400 -11 c 2
 391 -11 l 2
 337 -10.3333 295.667 8 267 44 c 0
 231.667 87.3333 224.333 158.667 245 258 c 1
 276 403 l 2
 288 459.667 308 507.333 336 546 c 0
 356.667 576 398.667 617.667 462 671 c 1
 443.333 701 407.333 731.333 354 762 c 0
 330 776 308.667 786 290 792 c 1
 316.667 854.667 365.667 917 437 979 c 0
 566.333 1092.33 711.333 1149 872 1149 c 0
 1017.33 1149 1123.67 1102 1191 1008 c 1
 1244.33 922 1256.67 810.333 1228 673 c 1
EndSplineSet
EndChar
StartChar: uni0E0E
Encoding: 136 3598 138
OldEncoding: 3598
Width: 1375
Flags: W
Fore
282 98 m 0
 316.667 98 342 112.667 358 142 c 0
 365.333 155.333 371.667 173.667 377 197 c 0
 388.333 249.667 383.667 282.333 363 295 c 1
 342 303 l 1
 337.333 303.667 332 304.333 326 305 c 0
 288 305 257 285 233 245 c 0
 225 231.667 218.667 217.333 214 202 c 1
 211 177 l 1
 211 146.333 223 123.667 247 109 c 1
 257 101.667 268.667 98 282 98 c 0
1018 -209 m 1
 1203 658 l 1
 1221 740 1223.33 803.667 1210 849 c 0
 1200.67 881.667 1183.67 909 1159 931 c 0
 1129.67 957 1085 975.333 1025 986 c 0
 1007.67 988.667 991.667 990 977 990 c 0
 879 990 784 957.667 692 893 c 0
 664 873 638 850.667 614 826 c 1
 642 818.667 675 795.333 713 756 c 0
 747.667 720.667 766.333 690 769 664 c 1
 711 615.333 674 582 658 564 c 0
 624 526.667 601.333 491.667 590 459 c 0
 584.667 443.667 579.667 425.333 575 404 c 1
 545 259 l 1
 523.667 160.333 486 89 432 45 c 0
 388 9 338.667 -9.33333 284 -10 c 1
 240 -7 l 1
 215.333 -2.33333 192.333 8.66667 171 26 c 0
 135 56 115.667 92.6667 113 136 c 1
 111 227.333 140 298 200 348 c 0
 242 382 285.333 399 330 399 c 0
 332.667 399 335.333 398.667 338 398 c 0
 371.333 396.667 394.667 387.333 408 370 c 1
 415 404 l 1
 428.333 461.333 448.333 509 475 547 c 0
 495.667 577 537.667 618.667 601 672 c 1
 582.333 702 546.667 732.333 494 763 c 0
 469.333 777 447.667 787 429 793 c 1
 455.667 855.667 504.667 918 576 980 c 0
 705.333 1093.33 850.333 1150 1011 1150 c 0
 1156.33 1150 1262.67 1103 1330 1009 c 1
 1384 923 1396.33 811.333 1367 674 c 2
 1136 -410 l 1
 976 -410 l 1
 937.333 -338.667 889.667 -277.667 833 -227 c 1
 821 -215 809 -204.667 797 -196 c 1
 767 -239.333 723.333 -283.333 666 -328 c 1
 641 -346 l 2
 582.333 -386 516 -408.333 442 -413 c 1
 414 -413 l 2
 355.333 -412.333 315.333 -393.667 294 -357 c 1
 280.667 -336.333 278.667 -304 288 -260 c 0
 294.667 -230 305 -203.333 319 -180 c 0
 345 -135.333 386.667 -94 444 -56 c 0
 482.667 -29.3333 535.667 -13 603 -7 c 1
 654 -7 l 1
 694 -9.66667 731.333 -18.6667 766 -34 c 1
 896 140 l 1
 995 105 l 1
 865 -76 l 1
 904.333 -97.3333 947.667 -132.667 995 -182 c 0
 1005 -192.667 1012.67 -201.667 1018 -209 c 1
429 -210 m 0
 416.333 -234 413 -252 419 -264 c 0
 427 -280.667 443 -289 467 -289 c 0
 475.667 -289 485.667 -288 497 -286 c 0
 519.667 -282 548.333 -271 583 -253 c 1
 611.667 -239.667 639.667 -219 667 -191 c 0
 681 -176.333 692.333 -161.667 701 -147 c 1
 689 -129.667 659.667 -121 613 -121 c 2
 590 -121 l 2
 554 -121.667 515.667 -134.333 475 -159 c 1
 456.333 -171.667 441 -188.667 429 -210 c 0
EndSplineSet
EndChar
StartChar: uni0E0F
Encoding: 137 3599 139
OldEncoding: 3599
Width: 1375
Flags: W
Fore
282 98 m 0
 316.667 98 342 112.667 358 142 c 0
 365.333 155.333 371.667 173.667 377 197 c 0
 388.333 249.667 383.667 282.333 363 295 c 1
 342 303 l 1
 337.333 303.667 332 304.333 326 305 c 0
 288 305 257 285 233 245 c 0
 225 231.667 218.667 217.333 214 202 c 1
 211 177 l 1
 211 146.333 223 123.667 247 109 c 1
 257 101.667 268.667 98 282 98 c 0
1019 -209 m 1
 1203 658 l 1
 1221 740 1223.33 803.667 1210 849 c 0
 1200.67 881.667 1183.67 909 1159 931 c 0
 1129.67 957 1085 975.333 1025 986 c 0
 1007.67 988.667 991.667 990 977 990 c 0
 879 990 784 957.667 692 893 c 0
 664 873 638 850.667 614 826 c 1
 642 818.667 675 795.333 713 756 c 0
 747.667 720.667 766.333 690 769 664 c 1
 711 615.333 674 582 658 564 c 0
 624 526.667 601.333 491.667 590 459 c 0
 584.667 443.667 579.667 425.333 575 404 c 1
 545 259 l 1
 523.667 160.333 486 89 432 45 c 0
 388 9 338.667 -9.33333 284 -10 c 1
 240 -7 l 1
 215.333 -2.33333 192.333 8.66667 171 26 c 0
 135 56 115.667 92.6667 113 136 c 1
 111 227.333 140 298 200 348 c 0
 242 382 285.333 399 330 399 c 0
 332.667 399 335.333 398.667 338 398 c 0
 371.333 396.667 394.667 387.333 408 370 c 1
 415 404 l 1
 428.333 461.333 448.333 509 475 547 c 0
 495.667 577 537.667 618.667 601 672 c 1
 582.333 702 546.667 732.333 494 763 c 0
 469.333 777 447.667 787 429 793 c 1
 455.667 855.667 504.667 918 576 980 c 0
 705.333 1093.33 850.333 1150 1011 1150 c 0
 1156.33 1150 1262.67 1103 1330 1009 c 1
 1384 923 1396.33 811.333 1367 674 c 2
 1136 -410 l 1
 976 -410 l 1
 948.667 -360 917.667 -311 883 -263 c 0
 878 -257 878 -257 874 -252 c 1
 869.333 -256 841 -277.667 789 -317 c 0
 768.333 -333 750.333 -348 735 -362 c 1
 723 -313.333 704.667 -271.333 680 -236 c 0
 668 -218 656.333 -207 645 -203 c 1
 613.667 -249 568 -294 508 -338 c 0
 496 -346 l 0
 437.333 -386 371 -408.333 297 -413 c 1
 269 -413 l 2
 210.333 -412.333 170.333 -393.667 149 -357 c 1
 135.667 -336.333 133.667 -304 143 -260 c 0
 149.667 -230 160 -203.333 174 -180 c 0
 200 -135.333 241.667 -94 299 -56 c 0
 337.667 -29.3333 390.667 -13 458 -7 c 1
 509 -7 l 1
 549 -9.66667 586.333 -18.6667 621 -34 c 1
 751 140 l 1
 850 105 l 1
 720 -76 l 1
 746.667 -104 763.667 -124.333 771 -137 c 0
 774.333 -143.667 776.667 -150 778 -156 c 1
 882 -64 l 1
 895.333 -53.3333 907.667 -44.6667 919 -38 c 1
 939 -57.3333 968 -105.667 1006 -183 c 2
 1019 -209 l 1
284 -210 m 0
 271.333 -234 268 -252 274 -264 c 0
 282 -280.667 298 -289 322 -289 c 0
 330.667 -289 340.667 -288 352 -286 c 0
 374.667 -282 403.333 -271 438 -253 c 1
 466.667 -239.667 494.667 -219 522 -191 c 0
 536 -176.333 547.333 -161.667 556 -147 c 1
 544 -129.667 514.667 -121 468 -121 c 2
 445 -121 l 2
 409 -121.667 370.667 -134.333 330 -159 c 1
 311.333 -171.667 296 -188.667 284 -210 c 0
EndSplineSet
EndChar
StartChar: uni0E10
Encoding: 138 3600 140
OldEncoding: 3600
Width: 1130
Flags: W
Fore
414 589 m 0
 383.333 589 355 573.667 329 543 c 0
 315.667 526.333 307 509.333 303 492 c 1
 302 485 l 2
 295.333 439 306 407.667 334 391 c 0
 344 385 356 382 370 382 c 1
 406.667 384.667 432.667 400.333 448 429 c 0
 455.333 443.667 462 464 468 490 c 1
 476 541.333 469 572.333 447 583 c 1
 425 588 l 2
 421.667 588.667 418 589 414 589 c 0
869 529 m 2
 880.333 583 838.667 625.333 744 656 c 0
 623.333 694.667 455.667 730 241 762 c 1
 269.667 829.333 310.667 894.333 364 957 c 0
 414 1015.67 475.667 1063 549 1099 c 0
 617 1132.33 698.333 1149 793 1149 c 0
 869.667 1149 938 1133.67 998 1103 c 0
 1047.33 1077.67 1106 1065 1174 1065 c 0
 1200 1065 1223.33 1067.33 1244 1072 c 1
 1172 917 l 1
 1154.67 913 1135 911.333 1113 912 c 0
 1051 912 999.333 921.667 958 941 c 0
 955.333 941.667 953 942.667 951 944 c 0
 883.667 980 816 998 748 998 c 0
 738.667 998 729 997.667 719 997 c 0
 658.333 993 601.667 966.667 549 918 c 0
 533 902.667 519.667 887.333 509 872 c 1
 643 849 l 1
 784.333 815 885 780 945 744 c 0
 1021.67 698 1053 641.333 1039 574 c 1
 976 279 l 1
 952 167.667 897 86.6667 811 36 c 0
 758.333 5.33333 699.333 -10 634 -10 c 0
 447.333 -10 375 87.6667 417 283 c 1
 424 317 l 1
 409.333 303 386 294 354 290 c 0
 342 288 l 1
 308 291 l 1
 274.667 296.333 247.333 312.333 226 339 c 0
 186 389 187 459.667 229 551 c 0
 249 594.333 283.667 631 333 661 c 0
 370.333 684.333 410.333 696.333 453 697 c 0
 457 697 457 697 462 697 c 0
 515.333 696.333 556.667 678 586 642 c 0
 621.333 598.667 628.333 527.333 607 428 c 1
 577 283 l 1
 557.667 194.333 588 150 668 150 c 0
 744 150 792 189.333 812 268 c 1
 814 271.333 815.333 275 816 279 c 1
 869 529 l 2
702 -329 m 1
 716 -262 l 1
 704 -271.333 685 -276 659 -276 c 0
 653 -276 653 -276 648 -276 c 0
 622 -273.333 600 -263.333 582 -246 c 0
 560.667 -226.667 553.333 -201.333 560 -170 c 0
 562.667 -160 566.333 -149.333 571 -138 c 0
 573 -133.333 575.333 -128.667 578 -124 c 0
 591.333 -96.6667 616.667 -73.6667 654 -55 c 0
 681.333 -41 708.333 -34 735 -34 c 0
 786.333 -34 825.667 -44.6667 853 -66 c 0
 879.667 -86 891 -118.333 887 -163 c 0
 885.667 -178.333 882.333 -198.333 877 -223 c 2
 812 -530 l 1
 662 -530 l 1
 660 -478 646 -442.667 620 -424 c 0
 610.667 -416.667 599.333 -413 586 -413 c 0
 560 -413 527.667 -433.667 489 -475 c 0
 473 -491.667 459 -509.667 447 -529 c 1
 431 -474 l 1
 422.333 -449.333 405 -426.667 379 -406 c 1
 337 -448 299.333 -478.333 266 -497 c 1
 224.667 -517 180 -529 132 -533 c 1
 91 -534 l 1
 43.6667 -530.667 8.66667 -512 -14 -478 c 0
 -24 -462.667 -26 -441 -20 -413 c 0
 -17.3333 -399.667 -13 -387.333 -7 -376 c 0
 -1 -366 l 0
 18.3333 -336.667 44.3333 -314.333 77 -299 c 0
 83.6667 -296.333 90 -294 96 -292 c 0
 131.333 -276.667 173.667 -269 223 -269 c 0
 269 -269 313 -277.333 355 -294 c 1
 359 -291 l 1
 367.667 -281.667 389.667 -254 425 -208 c 1
 509 -230 l 1
 433 -324 l 1
 453 -338 467.667 -351.333 477 -364 c 0
 478.333 -365.333 479 -366.667 479 -368 c 1
 535.667 -312 580.333 -284 613 -284 c 0
 654.333 -284 684 -299 702 -329 c 1
711 -95 m 0
 693 -95 674.667 -104.667 656 -124 c 0
 646 -134 640 -144 638 -154 c 1
 636 -177 l 1
 638 -200.333 650 -214.667 672 -220 c 0
 675.333 -221.333 679.333 -222 684 -222 c 0
 716 -218.667 737.333 -202 748 -172 c 1
 748.667 -167.333 749.667 -162.333 751 -157 c 0
 759 -121 749 -100.667 721 -96 c 0
 717.667 -95.3333 714.333 -95 711 -95 c 0
63 -399 m 0
 59 -405.667 56.3333 -412 55 -418 c 0
 52.3333 -426.667 53.3333 -434.667 58 -442 c 1
 70.6667 -454.667 84.3333 -461 99 -461 c 0
 103 -461 103 -461 106 -461 c 0
 141.333 -461 178.333 -453 217 -437 c 0
 231.667 -431.667 256.333 -412.667 291 -380 c 0
 298.333 -373.333 304.333 -367.333 309 -362 c 1
 292.333 -350 260 -344 212 -344 c 0
 174.667 -344 139.333 -350.667 106 -364 c 1
 84 -376 69.6667 -387.667 63 -399 c 0
EndSplineSet
EndChar
StartChar: uni0E11
Encoding: 139 3601 141
OldEncoding: 3601
Width: 1700
Flags: W
Fore
431 603 m 1
 457 603 l 1
 486.333 607 512 622.333 534 649 c 0
 538 653 538 653 541 656 c 0
 553.667 674 562 693 566 713 c 0
 569.333 728.333 569.667 742 567 754 c 0
 563 775.333 551.667 790 533 798 c 0
 527 800 l 2
 499 803 l 1
 463 800.333 434 783.667 412 753 c 0
 408 747 404.333 740.667 401 734 c 0
 393.667 721.333 388.667 708.667 386 696 c 0
 382 674.667 383 655.667 389 639 c 1
 397.667 619 411.667 607 431 603 c 1
636 0 m 1
 677 193 677 193 759 587 c 0
 769.667 637 819.333 697 908 767 c 0
 921.333 777.667 929.667 793.5 933 814.5 c 128
 936.333 835.5 934.667 863 928 897 c 0
 922 923 906.667 950.333 882 979 c 1
 881.333 978.333 826.333 945.667 717 881 c 1
 597 963 l 1
 579 979 l 1
 557.667 966.333 535.667 942.667 513 908 c 1
 500 886 l 1
 513.333 892.667 528.333 896 545 896 c 0
 551.667 896 560 895.333 570 894 c 0
 614 888.667 645.667 861.333 665 812 c 0
 673.667 788.667 674.333 760.333 667 727 c 0
 657 680.333 636.667 636.333 606 595 c 0
 576 555.667 534.667 529 482 515 c 0
 462 509.667 441.667 507 421 507 c 0
 412.333 507 403.667 507.333 395 508 c 0
 343 514.667 304 544 278 596 c 0
 276 601.333 274 606.333 272 611 c 0
 259.333 645.667 260.333 697 275 765 c 0
 278.333 779.667 281.667 792.667 285 804 c 0
 307 871.333 349 940.333 411 1011 c 0
 453.667 1059.67 507.333 1100 572 1132 c 0
 590 1140.67 604.333 1146.33 615 1149 c 1
 615 1148.33 660.333 1112.33 751 1041 c 1
 918 1149 l 1
 954.667 1138.33 991.667 1110.33 1029 1065 c 0
 1036.33 1055.67 1043.33 1046 1050 1036 c 0
 1076.67 995.333 1091.33 936.333 1094 859 c 0
 1094.67 835.667 1093.67 815 1091 797 c 0
 1089.67 791.667 1088.67 787 1088 783 c 1
 1038 743 l 1
 968 682.333 928.333 630.333 919 587 c 1
 851 263 l 1
 1342 990 l 1
 1392.67 1068 1456.33 1115 1533 1131 c 0
 1548.33 1134.33 1563.67 1136 1579 1136 c 0
 1598.33 1135.33 1616 1132.67 1632 1128 c 0
 1692.67 1110 1726.33 1067.33 1733 1000 c 0
 1736.33 973.333 1734.33 943.333 1727 910 c 1
 1534 0 l 1
 1374 0 l 1
 1526 719 l 1
 1545.33 809 1549.67 864.333 1539 885 c 1
 1531 894 l 1
 1521 898 l 1
 1501 899 l 1
 1470.33 895 1438.33 869 1405 821 c 2
 1388 796 l 1
 838 0 l 1
 636 0 l 1
EndSplineSet
EndChar
StartChar: uni0E12
Encoding: 140 3602 142
OldEncoding: 3602
Width: 1850
Flags: W
Fore
1149 734 m 1
 1161 793.333 1148 850.667 1110 906 c 0
 1085.33 942 1056.67 966.333 1024 979 c 1
 826 863 l 1
 687 979 l 1
 633 965 582.667 937 536 895 c 0
 518 879 503 862.333 491 845 c 0
 463.667 804.333 442.333 748 427 676 c 0
 417.667 630.667 413 589 413 551 c 1
 417 266 l 1
 416.333 241.333 415.333 218.333 414 197 c 1
 458.667 212.333 504 239.667 550 279 c 0
 583.333 308.333 606.333 337 619 365 c 1
 611.667 363 603.333 362 594 362 c 0
 534 362 495.333 386 478 434 c 1
 465.333 461.333 463.333 495.333 472 536 c 0
 480.667 574 495.667 609 517 641 c 1
 565 707 629.667 741.667 711 745 c 1
 744 743 l 1
 790 734.333 822.667 710 842 670 c 0
 846 662.667 849 655 851 647 c 0
 860.333 612.333 860 571 850 523 c 0
 846.667 508.333 842.333 493 837 477 c 0
 789.667 332.333 692.333 205 545 95 c 0
 487.667 52.3333 435.667 20.6667 389 0 c 1
 204 0 l 1
 226 108 l 1
 241.333 178 248.667 292 248 450 c 1
 246 541.333 253.333 625.333 270 702 c 0
 279.333 747.333 292 788.667 308 826 c 0
 358 938.667 432.333 1024.67 531 1084 c 0
 591.667 1120.67 655.667 1142.33 723 1149 c 1
 862 1033 l 1
 1060 1149 l 1
 1274 1099 1352.67 941.667 1296 677 c 1
 1239 409 l 1
 1243.67 405.667 1272 374 1324 314 c 0
 1418 205.333 1482.67 151 1518 151 c 0
 1522.67 151 1527 152 1531 154 c 0
 1554.33 165.333 1572 199.333 1584 256 c 2
 1772 1139 l 1
 1932 1139 l 1
 1744 256 l 2
 1725.33 168.667 1702.33 108 1675 74 c 0
 1659 55.3333 1639 39 1615 25 c 0
 1581 5.66667 1547 -4 1513 -4 c 0
 1436.33 -4 1356.33 48.6667 1273 154 c 2
 1204 242 l 1
 1203 243 l 1
 1180 146 l 1
 1156.67 78 1118.33 31.3333 1065 6 c 0
 1041 -4.66667 1016.33 -10 991 -10 c 0
 944.333 -10 906.333 3.66667 877 31 c 1
 866 43 l 1
 832 87.6667 821.667 141.667 835 205 c 0
 848.333 267 874 319.333 912 362 c 1
 963.333 417.333 1021.67 445.333 1087 446 c 1
 1149 734 l 1
1071 328 m 1
 1031 328 997.333 306.667 970 264 c 1
 956 244 946.667 223.333 942 202 c 0
 934 162.667 937.667 133.333 953 114 c 0
 958.333 106.667 965.667 103 975 103 c 0
 1006.33 103 1027 124 1037 166 c 1
 1044 200 l 1
 1071 328 l 1
681 647 m 1
 663 646 l 1
 636.333 639.333 612.667 622.333 592 595 c 0
 582.667 581.667 575.667 567.333 571 552 c 1
 563 516 l 1
 559.667 473.333 574.667 449.333 608 444 c 0
 610.667 443.333 613.333 443 616 443 c 2
 638 445 l 1
 670 453 694 477 710 517 c 1
 714 525 717 533.333 719 542 c 1
 727 585 l 1
 729 620.333 713.667 641 681 647 c 1
EndSplineSet
EndChar
StartChar: uni0E13
Encoding: 141 3603 143
OldEncoding: 3603
Width: 1900
Flags: W
Fore
1067 657 m 2
 1076.33 700.333 1081.67 737.333 1083 768 c 0
 1085 838.667 1065 892.667 1023 930 c 0
 993 956 948.333 974.333 889 985 c 0
 872.333 987.667 856.333 989 841 989 c 0
 743 989 648.333 956.667 557 892 c 0
 528.333 872 502 849.667 478 825 c 1
 506 817.667 539 794.333 577 755 c 0
 611.667 719.667 630 689 632 663 c 1
 574.667 614.333 538 581 522 563 c 0
 488.667 525.667 466.333 491 455 459 c 0
 449 443.667 443.667 425 439 403 c 1
 433 369 l 1
 447 383 470.333 392 503 396 c 0
 507 396.667 510.667 397 514 397 c 2
 548 395 l 1
 582 389.667 609.667 373.667 631 347 c 0
 670.333 297 669.333 226.333 628 135 c 0
 608 92.3333 573.333 55.6667 524 25 c 0
 485.333 1.66667 445 -10.3333 403 -11 c 2
 395 -11 l 2
 341 -10.3333 299.667 8 271 44 c 1
 235 87.3333 227.333 158.667 248 258 c 1
 279 403 l 2
 291 459.667 311 507.333 339 546 c 0
 359.667 576 401.667 617.667 465 671 c 1
 446.333 701 410.333 731.333 357 762 c 0
 333 776 311.667 786 293 792 c 1
 319.667 854.667 368.667 917 440 979 c 0
 570 1092.33 715 1149 875 1149 c 0
 1020.33 1149 1126.67 1102 1194 1008 c 1
 1247.33 922 1259.67 810.333 1231 673 c 1
 1142 256 l 2
 1132 209.333 1132.67 177.667 1144 161 c 0
 1146 158.333 1148.33 156 1151 154 c 0
 1157.67 149.333 1165.67 147 1175 147 c 0
 1219 147 1305 202.333 1433 313 c 0
 1502.33 372.333 1540.33 404.333 1547 409 c 1
 1558.33 459.667 1610 703 1702 1139 c 1
 1862 1139 l 1
 1714 446 l 1
 1780 445.333 1826.67 417.333 1854 362 c 0
 1874.67 319.333 1878.33 267 1865 205 c 0
 1851.67 141.667 1818.67 87.6667 1766 43 c 1
 1730 13.6667 1687 -3.66667 1637 -9 c 0
 1629.67 -9.66667 1623 -10 1617 -10 c 0
 1555 -10 1516 18.3333 1500 75 c 0
 1494.67 96.3333 1493 120 1495 146 c 1
 1513 243 l 1
 1497.67 233 1457 201.333 1391 148 c 0
 1301 74 1228.67 27.6667 1174 9 c 0
 1148.67 -0.333333 1124.67 -5 1102 -5 c 0
 1068.67 -5 1039 5 1013 25 c 0
 979.667 49.6667 963.333 86.6667 964 136 c 0
 964.667 164 970.667 204 982 256 c 1
 1067 657 l 2
1681 328 m 1
 1654 200 l 1
 1646.67 164 1643.33 141.667 1644 133 c 0
 1646 113 1658.33 103 1681 103 c 0
 1702.33 103 1722 120.667 1740 156 c 0
 1747.33 170.667 1752.67 186 1756 202 c 0
 1764.67 242 1759 275 1739 301 c 0
 1725 319 1705.67 328 1681 328 c 1
442 97 m 0
 472.667 97 501 112.333 527 143 c 0
 541 159.667 550 176.667 554 194 c 0
 554.667 196.667 554.667 199 554 201 c 1
 560.667 247 550.333 278 523 294 c 0
 512.333 300.667 500 304 486 304 c 1
 449.333 301.333 423.667 285.667 409 257 c 1
 396 222 l 2
 393.333 214.667 391 206 389 196 c 0
 381 144.667 387.667 113.667 409 103 c 0
 417 99 428 97 442 97 c 0
EndSplineSet
EndChar
StartChar: uni0E14
Encoding: 142 3604 144
OldEncoding: 3604
Width: 1330
Flags: W
Fore
699 647 m 1
 681 646 l 1
 654.333 639.333 631 622.333 611 595 c 0
 601 581.667 593.667 567.333 589 552 c 1
 581 516 l 1
 577.667 473.333 592.667 449.333 626 444 c 0
 628.667 443.333 631.333 443 634 443 c 2
 656 445 l 1
 688 453 712 477 728 517 c 1
 732 525 735 533.333 737 542 c 1
 745 585 l 1
 747 620.333 731.667 641 699 647 c 1
407 0 m 1
 222 0 l 1
 244 108 l 1
 259.333 178 266.667 292 266 450 c 1
 264 541.333 270 619 284 683 c 0
 292.667 724.333 305 763.667 321 801 c 0
 373.667 919.667 465 1011 595 1075 c 0
 694.333 1123.67 797.333 1148.33 904 1149 c 1
 975 1145 l 1
 1109.67 1131 1207 1078.67 1267 988 c 0
 1324.33 901.333 1338.33 789.333 1309 652 c 1
 1171 0 l 1
 1011 0 l 1
 1161 708 l 2
 1177.67 786 1155 852.667 1093 908 c 0
 1037.67 957.333 970.667 984.333 892 989 c 0
 874 989 l 0
 804 989 729.333 970 650 932 c 0
 581.333 900 532.667 862.667 504 820 c 0
 476.667 780 456.333 729.333 443 668 c 0
 435 628.667 431 589.667 431 551 c 1
 435 266 l 1
 434.333 241.333 433.333 218.333 432 197 c 1
 476.667 212.333 522 239.667 568 279 c 0
 601.333 308.333 624.333 337 637 365 c 1
 629.667 363 621.333 362 612 362 c 0
 552.667 362 514 386 496 434 c 1
 483.333 461.333 481.333 495.333 490 536 c 0
 498.667 574 513.667 609 535 641 c 1
 583 707 647.667 741.667 729 745 c 1
 762 743 l 1
 808 734.333 840.667 710 860 670 c 0
 864 662.667 867 655 869 647 c 0
 878.333 612.333 878 571 868 523 c 0
 864.667 508.333 860.333 493 855 477 c 0
 807.667 332.333 710.333 205 563 95 c 0
 505.667 52.3333 453.667 20.6667 407 0 c 1
EndSplineSet
EndChar
StartChar: uni0E15
Encoding: 143 3605 145
OldEncoding: 3605
Width: 1330
Flags: W
Fore
699 647 m 1
 681 646 l 1
 654.333 639.333 631 622.333 611 595 c 0
 601 581.667 593.667 567.333 589 552 c 1
 581 516 l 1
 577.667 473.333 592.667 449.333 626 444 c 0
 628.667 443.333 631.333 443 634 443 c 2
 656 445 l 1
 688 453 712 477 728 517 c 1
 732 525 735 533.333 737 542 c 1
 745 585 l 1
 747 620.333 731.667 641 699 647 c 1
407 0 m 1
 222 0 l 1
 244 108 l 1
 259.333 178 266.667 292 266 450 c 1
 264 541.333 271.333 625.333 288 702 c 0
 297.333 747.333 310 788.667 326 826 c 0
 376 938.667 450.333 1024.67 549 1084 c 0
 609.667 1120.67 673.667 1142.33 741 1149 c 1
 880 1033 l 1
 1078 1149 l 1
 1292 1099 1370.67 941.667 1314 677 c 1
 1171 0 l 1
 1011 0 l 1
 1167 734 l 1
 1179 793.333 1166 850.667 1128 906 c 0
 1103.33 942 1074.67 966.333 1042 979 c 1
 844 863 l 1
 705 979 l 1
 651 965 600.667 937 554 895 c 0
 536 879 521 862.333 509 845 c 0
 481.667 804.333 460.333 748 445 676 c 0
 435.667 630.667 431 589 431 551 c 1
 435 266 l 1
 434.333 241.333 433.333 218.333 432 197 c 1
 476.667 212.333 522 239.667 568 279 c 0
 601.333 308.333 624.333 337 637 365 c 1
 629.667 363 621.333 362 612 362 c 0
 552.667 362 514 386 496 434 c 1
 483.333 461.333 481.333 495.333 490 536 c 0
 498.667 574 513.667 609 535 641 c 1
 583 707 647.667 741.667 729 745 c 1
 762 743 l 1
 808 734.333 840.667 710 860 670 c 0
 864 662.667 867 655 869 647 c 0
 878.333 612.333 878 571 868 523 c 0
 864.667 508.333 860.333 493 855 477 c 0
 807.667 332.333 710.333 205 563 95 c 0
 505.667 52.3333 453.667 20.6667 407 0 c 1
EndSplineSet
EndChar
StartChar: uni0E16
Encoding: 144 3606 146
OldEncoding: 3606
Width: 1240
Flags: W
Fore
1085 0 m 1
 925 0 l 1
 1064 657 l 2
 1086 761 1083 837.667 1055 887 c 0
 1045.67 903 1033.67 917.333 1019 930 c 0
 989.667 956 945.333 974.333 886 985 c 0
 868.667 987.667 852.667 989 838 989 c 0
 740 989 645 956.667 553 892 c 0
 525 872 499 849.667 475 825 c 1
 503 817.667 536 794.333 574 755 c 0
 608.667 719.667 627 689 629 663 c 1
 571.667 614.333 535 581 519 563 c 0
 485 525.667 462.333 491 451 459 c 0
 445.667 443.667 440.667 425 436 403 c 2
 429 369 l 1
 443.667 383 467.333 392 500 396 c 0
 503.333 396.667 507 397 511 397 c 2
 545 395 l 1
 578.333 389.667 605.667 373.667 627 347 c 0
 666.333 297 665.333 226.333 624 135 c 0
 604 92.3333 569.333 55.6667 520 25 c 0
 482 1.66667 442 -10.3333 400 -11 c 2
 391 -11 l 2
 337 -10.3333 295.667 8 267 44 c 0
 231.667 87.3333 224.333 158.667 245 258 c 1
 276 403 l 2
 288 459.667 308 507.333 336 546 c 0
 356.667 576 398.667 617.667 462 671 c 1
 443.333 701 407.333 731.333 354 762 c 0
 330 776 308.667 786 290 792 c 1
 316.667 854.667 365.667 917 437 979 c 0
 566.333 1092.33 711.333 1149 872 1149 c 0
 1017.33 1149 1123.67 1102 1191 1008 c 1
 1244.33 922 1256.67 810.333 1228 673 c 1
 1085 0 l 1
439 97 m 0
 469.667 97 498 112.333 524 143 c 0
 537.333 159.667 546 176.667 550 194 c 0
 550.667 196.667 551 199 551 201 c 0
 557.667 247 547 278 519 294 c 1
 509 300.667 497 304 483 304 c 1
 446.333 301.333 420.333 285.667 405 257 c 1
 393 222 l 2
 390.333 214.667 388 206 386 196 c 0
 377.333 144.667 383.667 113.667 405 103 c 0
 413.667 99 425 97 439 97 c 0
EndSplineSet
EndChar
StartChar: uni0E17
Encoding: 145 3607 147
OldEncoding: 3607
Width: 1350
Flags: W
Fore
470 1042 m 0
 439.333 1042 411 1026.67 385 996 c 0
 371.667 979.333 363 962.333 359 945 c 1
 358 938 l 2
 351.333 892 362 860.667 390 844 c 0
 400 838 412 835 426 835 c 1
 462.667 837.667 488.667 853.333 504 882 c 0
 512 896.667 518.667 917 524 943 c 1
 532 994.333 525.333 1025.33 504 1036 c 0
 495.333 1040 484 1042 470 1042 c 0
318 0 m 1
 480 770 l 1
 466 756 442.667 747 410 743 c 0
 406 742.333 402 742 398 742 c 2
 365 744 l 1
 331 749.333 303.333 765.333 282 792 c 0
 242.667 842 243.667 912.667 285 1004 c 1
 305.667 1047.33 340.333 1084 389 1114 c 0
 427 1137.33 467 1149.33 509 1150 c 0
 513 1150 513 1150 518 1150 c 0
 572 1149.33 613.333 1131 642 1095 c 0
 677.333 1051.67 684.667 980.333 664 881 c 1
 533 263 l 1
 1024 990 l 1
 1074.67 1068 1138.33 1115 1215 1131 c 0
 1230.33 1134.33 1245.67 1136 1261 1136 c 0
 1280.33 1135.33 1298 1132.67 1314 1128 c 0
 1374.67 1110 1408.33 1067.33 1415 1000 c 0
 1418.33 973.333 1416.33 943.333 1409 910 c 1
 1216 0 l 1
 1056 0 l 1
 1208 719 l 1
 1231 824 l 1
 1237 866.667 1227.67 891.333 1203 898 c 1
 1183 900 l 1
 1151.67 896.667 1116.33 866 1077 808 c 1
 1070 796 l 1
 520 0 l 1
 318 0 l 1
EndSplineSet
EndChar
StartChar: uni0E18
Encoding: 146 3608 148
OldEncoding: 3608
Width: 1250
Flags: W
Fore
966 480 m 1
 967.333 488.667 968.333 497 969 505 c 0
 971 560.333 938.667 600.667 872 626 c 0
 869.333 627.333 844.333 634.667 797 648 c 0
 603 703.333 438.667 741 304 761 c 1
 332.667 828.333 373.667 893.333 427 956 c 0
 476.333 1014.67 538 1062 612 1098 c 0
 650.667 1117.33 692.667 1131 738 1139 c 0
 774 1145 813.333 1148 856 1148 c 0
 932.667 1148 1001 1132.67 1061 1102 c 0
 1110.33 1076.67 1168.67 1064 1236 1064 c 0
 1262.67 1064 1286.33 1066.33 1307 1071 c 1
 1235 916 l 1
 1229 914.667 1222.33 913.667 1215 913 c 2
 1163 911 l 1
 1100.33 913 1050.67 923.667 1014 943 c 0
 955.333 974.333 896.667 992 838 996 c 1
 782 996 l 1
 752 994 721 985.333 689 970 c 0
 639 945.333 600 912.333 572 871 c 1
 608 863 l 2
 854.667 812.333 1006.33 767.667 1063 729 c 0
 1073 722.333 1082 715.333 1090 708 c 1
 1113 683 l 1
 1141.67 644.333 1148.67 589.333 1134 518 c 1
 1090 314 l 2
 1064.67 195.333 1013.33 110.333 936 59 c 0
 865.333 13 760.333 -10 621 -10 c 0
 593.667 -10 568.333 -8.66667 545 -6 c 0
 351 13.3333 274.667 120 316 314 c 2
 388 650 l 1
 548 650 l 1
 476 314 l 1
 466.667 269.333 475.333 233 502 205 c 0
 534.667 170.333 585.667 152 655 150 c 0
 663 150 l 0
 699 150 735.333 155.333 772 166 c 0
 862 192 914.667 241.333 930 314 c 1
 966 480 l 1
EndSplineSet
EndChar
StartChar: uni0E19
Encoding: 147 3609 149
OldEncoding: 3609
Width: 1400
Flags: W
Fore
517 1042 m 0
 486.333 1042 458 1026.67 432 996 c 0
 418.667 979.333 410 962.333 406 945 c 1
 405 938 l 2
 398.333 892 409 860.667 437 844 c 0
 447 838 459 835 473 835 c 1
 509.667 837.667 535.667 853.333 551 882 c 0
 559 896.667 565.667 917 571 943 c 1
 579 994.333 572.333 1025.33 551 1036 c 1
 529 1041 l 2
 525 1041.67 521 1042 517 1042 c 0
418 256 m 1
 527 770 l 1
 513 756 489.667 747 457 743 c 0
 453 742.333 449 742 445 742 c 2
 412 744 l 1
 378 749.333 350.333 765.333 329 792 c 0
 289.667 842 290.667 912.667 332 1004 c 1
 352.667 1047.33 387.333 1084 436 1114 c 0
 474 1137.33 514 1149.33 556 1150 c 0
 560 1150 560 1150 565 1150 c 0
 619 1149.33 660.333 1131 689 1095 c 0
 724.333 1051.67 731.667 980.333 711 881 c 1
 578 256 l 1
 566 201.333 569 167.333 587 154 c 0
 593.667 149.333 602.333 147 613 147 c 0
 675.667 147.667 819.667 229 1045 391 c 0
 1063 404 1063 404 1070 409 c 1
 1226 1139 l 1
 1386 1139 l 1
 1244 475 l 1
 1309.33 474.333 1356 446.333 1384 391 c 1
 1403.33 349.667 1406.33 295.667 1393 229 c 1
 1378 169 l 1
 1364 127.667 1344 93.3333 1318 66 c 0
 1275.33 22 1227 -2.66667 1173 -8 c 0
 1162.33 -9.33333 1151.33 -10 1140 -10 c 0
 1078 -10 1039 18.3333 1023 75 c 0
 1017.67 96.3333 1016.33 120 1019 146 c 1
 1036 243 l 1
 863 125 l 1
 730.333 39 624.667 -4.33333 546 -5 c 0
 520.667 -5 497.667 -0.333333 477 9 c 0
 467.667 13 458.333 18.3333 449 25 c 0
 416.333 49.6667 400 86.6667 400 136 c 0
 400.667 164 406.667 204 418 256 c 1
1204 328 m 1
 1177 200 l 1
 1169.67 164 1166.67 141.667 1168 133 c 0
 1170 113 1182 103 1204 103 c 0
 1226 103 1246 120.667 1264 156 c 0
 1270.67 170.667 1275.67 186 1279 202 c 0
 1287.67 242 1282 275 1262 301 c 0
 1248 319 1228.67 328 1204 328 c 1
EndSplineSet
EndChar
StartChar: uni0E1A
Encoding: 148 3610 150
OldEncoding: 3610
Width: 1300
Flags: W
Fore
481 1042 m 0
 450.333 1042 422 1026.67 396 996 c 0
 382.667 979.333 374 962.333 370 945 c 1
 369 938 l 2
 362.333 892 373 860.667 401 844 c 0
 411 838 423 835 437 835 c 1
 473.667 837.667 499.667 853.333 515 882 c 0
 523 896.667 529.667 917 535 943 c 1
 543 994.333 536.333 1025.33 515 1036 c 1
 493 1041 l 2
 489 1041.67 485 1042 481 1042 c 0
560 339 m 2
 539.333 241.667 573.667 182 663 160 c 0
 688.333 154 718.667 150.667 754 150 c 1
 821 152 l 1
 945.667 164 1024 216 1056 308 c 0
 1059.33 318 1062.33 328.333 1065 339 c 1
 1235 1139 l 1
 1395 1139 l 1
 1211 273 l 2
 1183 141.667 1101.67 56.6667 967 18 c 0
 901.667 -0.666667 817.667 -10 715 -10 c 0
 561.667 -10 460 27 410 101 c 0
 378.667 146.333 370.667 203.667 386 273 c 1
 491 770 l 1
 477 756 453.667 747 421 743 c 0
 417 742.333 413 742 409 742 c 2
 376 744 l 1
 342 749.333 314.333 765.333 293 792 c 0
 253.667 842 254.667 912.667 296 1004 c 1
 316.667 1047.33 351.333 1084 400 1114 c 0
 438 1137.33 478 1149.33 520 1150 c 0
 524 1150 524 1150 529 1150 c 0
 583 1149.33 624.333 1131 653 1095 c 0
 688.333 1051.67 695.667 980.333 675 881 c 1
 560 339 l 2
EndSplineSet
EndChar
StartChar: uni0E1B
Encoding: 149 3611 151
OldEncoding: 3611
Width: 1300
Flags: W
Fore
488 1042 m 0
 457.333 1042 429 1026.67 403 996 c 0
 389.667 979.333 381 962.333 377 945 c 1
 376 938 l 2
 369.333 892 380 860.667 408 844 c 0
 418 838 430 835 444 835 c 1
 480.667 837.667 506.667 853.333 522 882 c 0
 530 896.667 536.667 917 542 943 c 1
 550 994.333 543.333 1025.33 522 1036 c 1
 500 1041 l 2
 496 1041.67 492 1042 488 1042 c 0
567 339 m 2
 546.333 241.667 580.667 182 670 160 c 0
 695.333 154 725.667 150.667 761 150 c 1
 828 152 l 1
 952.667 164 1031 216 1063 308 c 0
 1066.33 318 1069.33 328.333 1072 339 c 1
 1314 1480 l 1
 1474 1480 l 1
 1218 273 l 2
 1190 141.667 1108.67 56.6667 974 18 c 0
 908.667 -0.666667 824.667 -10 722 -10 c 0
 568.667 -10 467 27 417 101 c 0
 385.667 146.333 377.667 203.667 393 273 c 1
 498 770 l 1
 484 756 460.667 747 428 743 c 0
 424 742.333 420 742 416 742 c 2
 383 744 l 1
 349 749.333 321.333 765.333 300 792 c 0
 260.667 842 261.667 912.667 303 1004 c 1
 323.667 1047.33 358.333 1084 407 1114 c 0
 445 1137.33 485 1149.33 527 1150 c 0
 531 1150 531 1150 536 1150 c 0
 590 1149.33 631.333 1131 660 1095 c 0
 695.333 1051.67 702.667 980.333 682 881 c 1
 567 339 l 2
EndSplineSet
EndChar
StartChar: uni0E1C
Encoding: 150 3612 152
OldEncoding: 3612
Width: 1200
Flags: W
Fore
583 1042 m 0
 548.333 1042 523.333 1027.33 508 998 c 1
 500 984.667 493.333 966.333 488 943 c 0
 476.667 890.333 481.333 857.667 502 845 c 0
 510.667 839.667 523 836.333 539 835 c 1
 577 835 608.333 855 633 895 c 1
 640.333 908.333 646.333 922.667 651 938 c 1
 654 963 l 1
 654 993.667 642.333 1016.33 619 1031 c 0
 608.333 1038.33 596.333 1042 583 1042 c 0
186 248 m 1
 321 881 l 1
 341.667 980.333 379 1051.67 433 1095 c 0
 477.667 1131 527 1149.33 581 1150 c 1
 625 1147 l 1
 650.333 1142.33 673.333 1131.33 694 1114 c 0
 730.667 1084 750 1047.33 752 1004 c 0
 754.667 912.667 725.667 842 665 792 c 0
 623 758 579.667 741 535 741 c 0
 532.333 741 529.667 741.333 527 742 c 0
 494.333 743.333 471 752.667 457 770 c 1
 346 248 l 2
 339.333 217.333 347.333 190.333 370 167 c 0
 386 150.333 404.333 142 425 142 c 0
 463.667 142 498 157.667 528 189 c 1
 544 207 554.333 226.667 559 248 c 2
 655 698 l 1
 815 698 l 1
 719 248 l 1
 712.333 215.333 723.333 187.667 752 165 c 0
 770.667 149.667 792.333 142 817 142 c 0
 851 142 881 159 907 193 c 0
 919.667 210.333 928 228.667 932 248 c 2
 1122 1139 l 1
 1282 1139 l 1
 1092 248 l 2
 1071.33 150.667 1027.33 78.6667 960 32 c 0
 918.667 3.33333 872.667 -11.3333 822 -12 c 1
 753 -9 l 1
 691.667 -2.33333 645.667 20.3333 615 59 c 0
 613 62.3333 610.667 65.6667 608 69 c 1
 565.333 24.3333 508 -1.66667 436 -9 c 1
 375 -12 l 1
 325 -9 l 1
 229.667 5 180.333 60.3333 177 157 c 0
 176.333 185 179.333 215.333 186 248 c 1
EndSplineSet
EndChar
StartChar: uni0E1D
Encoding: 151 3613 153
OldEncoding: 3613
Width: 1200
Flags: W
Fore
582 1042 m 0
 547.333 1042 522.333 1027.33 507 998 c 1
 499 984.667 492.333 966.333 487 943 c 0
 475.667 890.333 480.333 857.667 501 845 c 0
 509.667 839.667 522 836.333 538 835 c 1
 576 835 607.333 855 632 895 c 1
 639.333 908.333 645.333 922.667 650 938 c 1
 653 963 l 1
 653 993.667 641.333 1016.33 618 1031 c 0
 607.333 1038.33 595.333 1042 582 1042 c 0
185 248 m 1
 320 881 l 1
 340.667 980.333 378 1051.67 432 1095 c 0
 476.667 1131 526 1149.33 580 1150 c 1
 624 1147 l 1
 649.333 1142.33 672.333 1131.33 693 1114 c 0
 729.667 1084 749 1047.33 751 1004 c 0
 753.667 912.667 724.667 842 664 792 c 0
 622 758 578.667 741 534 741 c 0
 531.333 741 528.667 741.333 526 742 c 0
 493.333 743.333 470 752.667 456 770 c 1
 345 248 l 2
 338.333 217.333 346.333 190.333 369 167 c 0
 385 150.333 403.333 142 424 142 c 0
 462.667 142 497 157.667 527 189 c 1
 543 207 553.333 226.667 558 248 c 2
 654 698 l 1
 814 698 l 1
 718 248 l 1
 711.333 215.333 722.333 187.667 751 165 c 0
 769.667 149.667 791.333 142 816 142 c 0
 850 142 880 159 906 193 c 0
 918.667 210.333 927 228.667 931 248 c 2
 1193 1480 l 1
 1353 1480 l 1
 1091 248 l 2
 1070.33 150.667 1026.33 78.6667 959 32 c 0
 917.667 3.33333 871.667 -11.3333 821 -12 c 1
 752 -9 l 1
 690.667 -2.33333 644.667 20.3333 614 59 c 0
 612 62.3333 609.667 65.6667 607 69 c 1
 564.333 24.3333 507 -1.66667 435 -9 c 1
 374 -12 l 1
 324 -9 l 1
 228.667 5 179.333 60.3333 176 157 c 0
 175.333 185 178.333 215.333 185 248 c 1
EndSplineSet
EndChar
StartChar: uni0E1E
Encoding: 152 3614 154
OldEncoding: 3614
Width: 1350
Flags: W
Fore
353 248 m 1
 465 776 l 1
 441 756.667 413.333 747 382 747 c 0
 344 747 312.333 763 287 795 c 0
 247.667 844.333 248.667 914.333 290 1005 c 0
 310.667 1049 345.333 1086 394 1116 c 0
 422 1133.33 449.667 1144 477 1148 c 1
 521 1151 l 1
 561 1150.33 597 1132.33 629 1097 c 1
 657.667 1063.67 667 1009 657 933 c 1
 653 909.667 646.667 877 638 835 c 1
 513 248 l 2
 506.333 217.333 514.333 190.333 537 167 c 0
 553 150.333 571.333 142 592 142 c 0
 630.667 142 665 157.667 695 189 c 1
 711 207 721.333 226.667 726 248 c 2
 894 1039 l 1
 1054 1039 l 1
 886 248 l 1
 879.333 215.333 890.333 187.667 919 165 c 0
 937.667 149.667 959.333 142 984 142 c 0
 1018 142 1048 159 1074 193 c 0
 1086.67 210.333 1095 228.667 1099 248 c 2
 1289 1139 l 1
 1449 1139 l 1
 1259 248 l 2
 1238.33 150.667 1194.33 78.6667 1127 32 c 1
 1094 12 l 1
 1057 -2 l 1
 1016 -10 l 2
 1007.33 -11.3333 998.333 -12 989 -12 c 2
 920 -9 l 1
 858.667 -2.33333 812.667 20.3333 782 59 c 0
 780 62.3333 777.667 65.6667 775 69 c 1
 732.333 24.3333 675 -1.66667 603 -9 c 1
 542 -12 l 1
 492 -9 l 1
 396.667 5 347.333 60.3333 344 157 c 0
 343.333 185 346.333 215.333 353 248 c 1
467 1043 m 0
 440.333 1043 415.667 1028.67 393 1000 c 1
 378 976 l 1
 369 949 l 1
 369 947 368.667 945.333 368 944 c 0
 362.667 903.333 371 874.667 393 858 c 0
 401.667 850.667 412.667 847 426 847 c 0
 468 849.667 495 879.333 507 936 c 0
 508.333 940.667 509.333 945.333 510 950 c 0
 523.333 1012 509 1043 467 1043 c 0
EndSplineSet
EndChar
StartChar: uni0E1F
Encoding: 153 3615 155
OldEncoding: 3615
Width: 1450
Flags: W
Fore
417 248 m 1
 529 776 l 1
 505 756.667 477.333 747 446 747 c 0
 408 747 376.333 763 351 795 c 0
 311.667 844.333 312.667 914.333 354 1005 c 0
 374.667 1049 409.333 1086 458 1116 c 0
 486 1133.33 513.667 1144 541 1148 c 1
 585 1151 l 1
 625 1150.33 661 1132.33 693 1097 c 1
 721.667 1063.67 731 1009 721 933 c 1
 717 909.667 710.667 877 702 835 c 1
 577 248 l 2
 570.333 217.333 578.333 190.333 601 167 c 0
 617 150.333 635.333 142 656 142 c 0
 694.667 142 729 157.667 759 189 c 1
 775 207 785.333 226.667 790 248 c 2
 958 1039 l 1
 1118 1039 l 1
 950 248 l 1
 943.333 215.333 954.333 187.667 983 165 c 0
 1001.67 149.667 1023.33 142 1048 142 c 0
 1082 142 1112 159 1138 193 c 0
 1150.67 210.333 1159 228.667 1163 248 c 2
 1425 1480 l 1
 1585 1480 l 1
 1323 248 l 2
 1302.33 150.667 1258.33 78.6667 1191 32 c 1
 1158 12 l 1
 1121 -2 l 1
 1080 -10 l 2
 1071.33 -11.3333 1062.33 -12 1053 -12 c 2
 984 -9 l 1
 922.667 -2.33333 876.667 20.3333 846 59 c 0
 844 62.3333 841.667 65.6667 839 69 c 1
 796.333 24.3333 739 -1.66667 667 -9 c 1
 606 -12 l 1
 556 -9 l 1
 460.667 5 411.333 60.3333 408 157 c 0
 407.333 185 410.333 215.333 417 248 c 1
531 1043 m 0
 504.333 1043 479.667 1028.67 457 1000 c 1
 442 976 l 1
 433 949 l 1
 433 947 432.667 945.333 432 944 c 0
 426.667 903.333 435 874.667 457 858 c 0
 465.667 850.667 476.667 847 490 847 c 0
 532 849.667 559 879.333 571 936 c 0
 572.333 940.667 573.333 945.333 574 950 c 0
 587.333 1012 573 1043 531 1043 c 0
EndSplineSet
EndChar
StartChar: uni0E20
Encoding: 154 3616 156
OldEncoding: 3616
Width: 1350
Flags: W
Fore
270 97 m 0
 304.667 97 329.667 111.667 345 141 c 1
 353 154.333 359.667 172.667 365 196 c 0
 376.333 248.667 371.667 281.333 351 294 c 0
 342.333 299.333 330 302.667 314 304 c 1
 276 304 244.667 284 220 244 c 1
 212.667 230.667 206.667 216.333 202 201 c 1
 199 176 l 1
 199 145.333 210.667 122.667 234 108 c 0
 244.667 100.667 256.667 97 270 97 c 0
563 403 m 2
 532 258 l 1
 511.333 159.333 474 88 420 44 c 0
 375.333 8 326 -10.3333 272 -11 c 1
 228 -8 l 1
 202.667 -3.33333 179.667 7.66667 159 25 c 0
 122.333 55 103 91.6667 101 135 c 0
 98.3333 226.333 127.333 297 188 347 c 0
 230 381 273.333 398 318 398 c 0
 320.667 398 323.333 397.667 326 397 c 0
 358.667 395.667 382 386.333 396 369 c 1
 403 403 403 403 412.5 446 c 128
 418.833 474.667 435.667 508 463 546 c 0
 483.667 576 525.667 617.667 589 671 c 1
 570.333 701 534.333 731.333 481 762 c 0
 457 776 435.667 786 417 792 c 1
 443.667 854.667 492.667 917 564 979 c 0
 693.333 1092.33 838.333 1149 999 1149 c 0
 1144.33 1149 1250.67 1102 1318 1008 c 1
 1371.33 922 1383.67 810.333 1355 673 c 1
 1212 0 l 1
 1052 0 l 1
 1191 657 l 2
 1213 761 1210 837.667 1182 887 c 0
 1172.67 903 1161 917.333 1147 930 c 0
 1117 956 1072.33 974.333 1013 985 c 0
 995.667 987.667 979.667 989 965 989 c 0
 867 989 772 956.667 680 892 c 0
 652 872 626 849.667 602 825 c 1
 630 817.667 663 794.333 701 755 c 0
 735.667 719.667 754 689 756 663 c 1
 698.667 614.333 662 581 646 563 c 0
 612 525.667 589.333 490.667 578 458 c 0
 572.667 442.667 567.667 424.333 563 403 c 2
EndSplineSet
EndChar
StartChar: uni0E21
Encoding: 155 3617 157
OldEncoding: 3617
Width: 1350
Flags: W
Fore
524 1042 m 0
 493.333 1042 465 1026.67 439 996 c 0
 425.667 979.333 417 962.333 413 945 c 1
 412 938 l 2
 405.333 892 416 860.667 444 844 c 0
 454 838 466 835 480 835 c 1
 516.667 837.667 542.667 853.333 558 882 c 0
 566 896.667 572.667 917 578 943 c 1
 586 994.333 579.333 1025.33 558 1036 c 0
 549.333 1040 538 1042 524 1042 c 0
465 446 m 1
 534 770 l 1
 524.667 758.667 505.667 749.333 477 742 c 0
 469.667 740.667 463 739.667 457 739 c 1
 423 741 l 1
 387 747.667 358 764.667 336 792 c 0
 296.667 842 297.667 912.667 339 1004 c 1
 359.667 1047.33 394.333 1084 443 1114 c 0
 481 1137.33 521 1149.33 563 1150 c 0
 567 1150 567 1150 572 1150 c 0
 626 1149.33 667.333 1131 696 1095 c 0
 731.333 1051.67 738.667 980.333 718 881 c 1
 617 409 l 1
 724 301 l 1
 832.667 198.333 912.667 147 964 147 c 0
 974.667 147 984 149.333 992 154 c 0
 1015.33 167.333 1033 201.333 1045 256 c 1
 1233 1139 l 1
 1393 1139 l 1
 1205 256 l 2
 1186.33 168.667 1163.33 108 1136 74 c 0
 1120 55.3333 1100 39 1076 25 c 0
 1040.67 5 1003.67 -5 965 -5 c 0
 901.667 -5 833 23 759 79 c 0
 735.667 97 710.333 118.667 683 144 c 1
 581 243 l 1
 558 146 l 1
 534.667 78 496.333 31.3333 443 6 c 0
 419 -4.66667 394.333 -10 369 -10 c 0
 321.667 -10 283.333 4 254 32 c 0
 250 35.3333 246.667 39 244 43 c 0
 210 87.6667 199.667 141.667 213 205 c 0
 226.333 267 252 319.333 290 362 c 1
 341.333 417.333 399.667 445.333 465 446 c 1
449 328 m 1
 409 328 375.333 306.667 348 264 c 1
 334 244 324.667 223.333 320 202 c 0
 312 162.667 315.667 133.333 331 114 c 0
 336.333 106.667 343.667 103 353 103 c 0
 384.333 103 405 124 415 166 c 1
 422 200 l 1
 449 328 l 1
EndSplineSet
EndChar
StartChar: uni0E22
Encoding: 156 3618 158
OldEncoding: 3618
Width: 1200
Flags: W
Fore
638 1046 m 0
 603.333 1046 578 1031.33 562 1002 c 0
 554.667 988.667 548.333 970.333 543 947 c 0
 531.667 894.333 536.333 861.667 557 849 c 0
 565.667 843.667 578 840.333 594 839 c 1
 632.667 839 664 859 688 899 c 0
 695.333 912.333 701.333 926.667 706 942 c 1
 709 967 l 1
 709.667 997.667 697.667 1020.33 673 1035 c 1
 663 1042.33 651.333 1046 638 1046 c 0
314 451 m 0
 345.333 493 397 530 469 562 c 1
 438.333 568 408.333 587.333 379 620 c 0
 352.333 648.667 343.333 701 352 777 c 0
 353.333 795 356 813 360 831 c 0
 376 905 390 955.667 402 983 c 0
 421.333 1023.67 451.667 1060.33 493 1093 c 1
 532.333 1125.67 579.667 1144.33 635 1149 c 1
 680 1149 l 1
 726.667 1145 763.667 1122 791 1080 c 0
 792.333 1077.33 794 1074.33 796 1071 c 0
 817.333 1034.33 821.667 986 809 926 c 0
 798.333 873.333 772.333 829.667 731 795 c 0
 690.333 761 642.667 743.667 588 743 c 1
 551 746 l 1
 531 750.667 514.667 758.667 502 770 c 1
 498 741 l 1
 497.333 729 498.667 718 502 708 c 0
 508 687.333 520 671.333 538 660 c 0
 573.333 637.333 616.667 624 668 620 c 0
 690.667 618.667 719.667 618 755 618 c 1
 731 505 l 1
 634.333 505 565.667 497 525 481 c 0
 467.667 457.667 432 413 418 347 c 0
 398 250.333 428.333 189.667 509 165 c 0
 542.333 155 587 150 643 150 c 0
 649 150 l 0
 743 150.667 810.333 164.667 851 192 c 0
 894.333 220.667 923.667 270.333 939 341 c 1
 1109 1139 l 1
 1269 1139 l 1
 1084 269 l 2
 1057.33 143.667 983.667 61.3333 863 22 c 0
 797.667 0.666667 713.667 -10 611 -10 c 0
 453 -10 348.667 19.3333 298 78 c 0
 260 121.333 246.333 183.333 257 264 c 1
 273 349 l 1
 285 395.667 298.667 429.667 314 451 c 0
EndSplineSet
EndChar
StartChar: uni0E23
Encoding: 157 3619 159
OldEncoding: 3619
Width: 1100
Flags: W
Fore
947 303 m 1
 926.333 207 906.333 142.333 887 109 c 0
 872.333 83.6667 852 61.3333 826 42 c 0
 780.667 7.33333 738 -10.3333 698 -11 c 1
 655 -8 l 2
 653 -8 l 0
 608.333 -1.33333 573.333 22.6667 548 64 c 0
 525.333 101.333 520.333 150.333 533 211 c 0
 545 265.667 572 310 614 344 c 0
 665.333 386.667 716.333 400.667 767 386 c 0
 781 381.333 792 373.667 800 363 c 1
 835 529 l 2
 846.333 583.667 824 626 768 656 c 1
 666.667 692 499 727.333 265 762 c 1
 293.667 829.333 334.667 894.333 388 957 c 0
 438 1015.67 499.667 1063 573 1099 c 0
 641 1132.33 722.333 1149 817 1149 c 0
 893.667 1149 962 1133.67 1022 1103 c 0
 1072 1077.67 1130.67 1065 1198 1065 c 0
 1224 1065 1247.33 1067.33 1268 1072 c 1
 1196 917 l 1
 1179.33 913 1159.67 911.333 1137 912 c 0
 1075 912 1023.33 921.667 982 941 c 0
 979.333 941.667 977 942.667 975 944 c 0
 907.667 980 840.333 998 773 998 c 0
 763 998 753 997.667 743 997 c 0
 683 993 626.667 966.667 574 918 c 0
 557.333 902.667 543.667 887.333 533 872 c 1
 667 849 l 1
 784.333 821 872 786.333 930 745 c 0
 985.333 706.333 1011.33 659 1008 603 c 0
 1008 593.667 1007 584 1005 574 c 1
 1004 573 l 1
 947 303 l 1
781 189 m 0
 795.667 258.333 779.667 293 733 293 c 0
 697 293 667.333 273.667 644 235 c 0
 636 221.667 630.333 207.667 627 193 c 1
 623 166 l 1
 623.667 135.333 635.333 113 658 99 c 0
 666 94.3333 674.667 92 684 92 c 0
 730.667 92 761.333 119 776 173 c 0
 778 178.333 779.667 183.667 781 189 c 0
EndSplineSet
EndChar
StartChar: uni0E24
Encoding: 158 3620 160
OldEncoding: 3620
Width: 1240
Flags: W
Fore
1004 -380 m 1
 844 -380 l 1
 1064 657 l 2
 1086 761 1083 837.667 1055 887 c 0
 1045.67 903 1033.67 917.333 1019 930 c 0
 989.667 956 945.333 974.333 886 985 c 0
 868.667 987.667 852.667 989 838 989 c 0
 740 989 645 956.667 553 892 c 0
 525 872 499 849.667 475 825 c 1
 503 817.667 536 794.333 574 755 c 0
 608.667 719.667 627 689 629 663 c 1
 571.667 614.333 535 581 519 563 c 0
 485 525.667 462.333 491 451 459 c 0
 445.667 443.667 440.667 425 436 403 c 2
 429 369 l 1
 443.667 383 467.333 392 500 396 c 0
 503.333 396.667 507 397 511 397 c 2
 545 395 l 1
 578.333 389.667 605.667 373.667 627 347 c 0
 666.333 297 665.333 226.333 624 135 c 0
 604 92.3333 569.333 55.6667 520 25 c 0
 482 1.66667 442 -10.3333 400 -11 c 2
 391 -11 l 2
 337 -10.3333 295.667 8 267 44 c 0
 231.667 87.3333 224.333 158.667 245 258 c 1
 276 403 l 2
 288 459.667 308 507.333 336 546 c 0
 356.667 576 398.667 617.667 462 671 c 1
 443.333 701 407.333 731.333 354 762 c 0
 330 776 308.667 786 290 792 c 1
 316.667 854.667 365.667 917 437 979 c 0
 566.333 1092.33 711.333 1149 872 1149 c 0
 1017.33 1149 1123.67 1102 1191 1008 c 1
 1244.33 922 1256.67 810.333 1228 673 c 1
 1004 -380 l 1
439 97 m 0
 469.667 97 498 112.333 524 143 c 0
 537.333 159.667 546 176.667 550 194 c 0
 550.667 196.667 551 199 551 201 c 0
 557.667 247 547 278 519 294 c 1
 509 300.667 497 304 483 304 c 1
 446.333 301.333 420.333 285.667 405 257 c 1
 393 222 l 2
 390.333 214.667 388 206 386 196 c 0
 377.333 144.667 383.667 113.667 405 103 c 0
 413.667 99 425 97 439 97 c 0
EndSplineSet
EndChar
StartChar: uni0E25
Encoding: 159 3621 161
OldEncoding: 3621
Width: 1255
Flags: W
Fore
313 435 m 2
 330.333 515.667 371 578.667 435 624 c 0
 456.333 639.333 481.667 654 511 668 c 0
 583 702.667 662.667 720 750 720 c 0
 830.667 720 903.667 705.667 969 677 c 0
 1015 657.667 1043 635 1053 609 c 1
 1075 714 l 1
 1093 796.667 1089 854.667 1063 888 c 1
 1021.67 938.667 959.667 970.667 877 984 c 0
 855.667 987.333 833.667 989 811 989 c 0
 720.333 989 635.333 962.333 556 909 c 0
 524 887 496.667 862.333 474 835 c 1
 354 929 l 1
 407.333 995.667 483.333 1050 582 1092 c 0
 670 1130 756.667 1149 842 1149 c 0
 1031.33 1149 1155.33 1096 1214 990 c 0
 1252.67 921.333 1259.67 829 1235 713 c 2
 1084 0 l 1
 924 0 l 1
 979 263 l 1
 1003.67 376.333 979.333 459 906 511 c 0
 860 543.667 798 560 720 560 c 0
 610.667 560 535.333 530.333 494 471 c 0
 481.333 453 472.333 431.667 467 407 c 2
 459 369 l 1
 473 383 496.667 392 530 396 c 0
 534 396.667 537.667 397 541 397 c 2
 575 395 l 1
 608.333 389.667 635.667 373.667 657 347 c 0
 696.333 297 695.333 226.333 654 135 c 0
 634.667 92.3333 600 55.6667 550 25 c 0
 512 1.66667 472 -10.3333 430 -11 c 2
 421 -11 l 2
 367 -10.3333 325.667 8 297 44 c 0
 261.667 87.3333 254.333 158.667 275 258 c 1
 313 435 l 2
469 97 m 0
 499.667 97 528 112.333 554 143 c 0
 567.333 159.667 576 176.667 580 194 c 0
 580.667 196.667 581 199 581 201 c 0
 587.667 247 577 278 549 294 c 1
 539 300.667 527 304 513 304 c 1
 476.333 301.333 450.667 285.667 436 257 c 1
 423 222 l 2
 420.333 214.667 418 206 416 196 c 0
 407.333 144.667 413.667 113.667 435 103 c 0
 443.667 99 455 97 469 97 c 0
EndSplineSet
EndChar
StartChar: uni0E26
Encoding: 160 3622 162
OldEncoding: 3622
Width: 1350
Flags: W
Fore
270 97 m 0
 304.667 97 329.667 111.667 345 141 c 1
 353 154.333 359.667 172.667 365 196 c 0
 376.333 248.667 371.667 281.333 351 294 c 0
 342.333 299.333 330 302.667 314 304 c 1
 276 304 244.667 284 220 244 c 1
 212.667 230.667 206.667 216.333 202 201 c 1
 199 176 l 1
 199 145.333 210.667 122.667 234 108 c 0
 244.667 100.667 256.667 97 270 97 c 0
563 403 m 2
 532 258 l 1
 511.333 159.333 474 88 420 44 c 0
 375.333 8 326 -10.3333 272 -11 c 1
 228 -8 l 1
 202.667 -3.33333 179.667 7.66667 159 25 c 0
 122.333 55 103 91.6667 101 135 c 0
 98.3333 226.333 127.333 297 188 347 c 0
 230 381 273.333 398 318 398 c 0
 320.667 398 323.333 397.667 326 397 c 0
 358.667 395.667 382 386.333 396 369 c 1
 403 403 l 1
 415.667 460.333 435.667 508 463 546 c 0
 483.667 576 525.667 617.667 589 671 c 1
 570.333 701 534.333 731.333 481 762 c 0
 457 776 435.667 786 417 792 c 1
 443.667 854.667 492.667 917 564 979 c 0
 693.333 1092.33 838.333 1149 999 1149 c 0
 1144.33 1149 1250.67 1102 1318 1008 c 1
 1371.33 922 1383.67 810.333 1355 673 c 1
 1131 -380 l 1
 971 -380 l 1
 1191 657 l 2
 1213 761 1210 837.667 1182 887 c 0
 1172.67 903 1161 917.333 1147 930 c 0
 1117 956 1072.33 974.333 1013 985 c 0
 995.667 987.667 979.667 989 965 989 c 0
 867 989 772 956.667 680 892 c 0
 652 872 626 849.667 602 825 c 1
 630 817.667 663 794.333 701 755 c 0
 735.667 719.667 754 689 756 663 c 1
 698.667 614.333 662 581 646 563 c 0
 612 525.667 589.333 490.667 578 458 c 0
 572.667 442.667 567.667 424.333 563 403 c 2
EndSplineSet
EndChar
StartChar: uni0E27
Encoding: 161 3623 163
OldEncoding: 3623
Width: 1150
Flags: W
Fore
785 97 m 0
 819.667 97 844.667 111.667 860 141 c 1
 868 154.333 874.667 172.667 880 196 c 0
 891.333 248.667 886.667 281.333 866 294 c 0
 857.333 299.333 845 302.667 829 304 c 1
 791 304 759.667 284 735 244 c 1
 727.667 230.667 721.667 216.333 717 201 c 1
 714 176 l 1
 714 145.333 725.667 122.667 749 108 c 0
 759.667 100.667 771.667 97 785 97 c 0
1145 714 m 2
 1048 258 l 1
 1027.33 159.333 989.667 88 935 44 c 0
 890.333 8 841 -10.3333 787 -11 c 1
 743 -8 l 1
 717.667 -3.33333 694.667 7.66667 674 25 c 0
 637.333 55 618 91.6667 616 135 c 0
 613.333 226.333 642.333 297 703 347 c 0
 745 381 788.333 398 833 398 c 0
 835.667 398 838.333 397.667 841 397 c 0
 874.333 395.667 898 386.333 912 369 c 1
 985 715 985 715 997.5 773 c 128
 1005.83 811.667 999.333 848.333 978 883 c 0
 974.667 887.667 971 892.333 967 897 c 0
 914.333 958.333 832.667 989 722 989 c 0
 612.667 989 509.333 948 412 866 c 0
 401.333 857.333 390.667 848 380 838 c 1
 265 929 l 1
 319.667 996.333 396.333 1051 495 1093 c 0
 582.333 1130.33 668.667 1149 754 1149 c 0
 867.333 1149 967 1119 1053 1059 c 0
 1115 1015.67 1150.33 959.667 1159 891 c 1
 1161 839 l 1
 1160.33 803 1155 761.333 1145 714 c 2
EndSplineSet
EndChar
StartChar: uni0E28
Encoding: 162 3624 164
OldEncoding: 3624
Width: 1300
Flags: W
Fore
851 630 m 1
 842.333 638 830.333 642 815 642 c 0
 779 642 745.333 624 714 588 c 1
 708 579 l 2
 696.667 564.333 689 549 685 533 c 0
 682.333 521 682.333 509.667 685 499 c 1
 687.667 479.667 697 464.333 713 453 c 0
 723 446.333 734.333 443 747 443 c 0
 758.333 443 770 445.333 782 450 c 0
 814.667 463.333 841.333 487.667 862 523 c 0
 867.333 532.333 870.667 542.667 872 554 c 1
 879.333 587.333 872.333 612.667 851 630 c 1
1161 1059 m 1
 1217 1093 1270.67 1148 1322 1224 c 1
 1540 1224 l 1
 1478.67 1108 1386.33 1011.33 1263 934 c 1
 1292.33 867.333 1294 773 1268 651 c 2
 1130 0 l 1
 970 0 l 1
 1119 702 l 2
 1127 739.333 1125.33 778.333 1114 819 c 0
 1112.67 825.667 1110.67 831.667 1108 837 c 0
 1092 878.333 1057.33 915.333 1004 948 c 0
 960 975.333 900.667 989 826 989 c 0
 758.667 989 696 976 638 950 c 0
 588.667 928.667 541.333 895.333 496 850 c 0
 481.333 836 469 822 459 808 c 0
 431 768 410 714 396 646 c 0
 386.667 602.667 382.333 562.333 383 525 c 1
 369 256 l 1
 415.667 374.667 467.667 475.667 525 559 c 0
 542.333 584.333 558.667 605 574 621 c 0
 620.667 671 673.333 707.333 732 730 c 0
 740.667 733.333 748.667 736 756 738 c 0
 774.667 743.333 794.667 746 816 746 c 0
 862.667 746 899 733.333 925 708 c 0
 966.333 668 982.667 619.333 974 562 c 1
 965 527 l 1
 957 511 l 2
 929.667 458.333 892.333 415 845 381 c 0
 822.333 365 800 354 778 348 c 0
 760.667 344 743.667 342 727 342 c 0
 692.333 342 665 351.333 645 370 c 0
 626.333 388.667 616 406.667 614 424 c 1
 549.333 328.667 489 222 433 104 c 0
 413 62 398.667 27.3333 390 0 c 1
 180 0 l 1
 202 108 l 1
 213.333 160.667 219 266 219 424 c 1
 217 513.333 224.333 596.333 241 673 c 0
 260.333 766.333 291.667 841 335 897 c 1
 388.333 963.667 450.333 1017 521 1057 c 1
 625.667 1114.33 729.667 1145 833 1149 c 0
 855 1149 l 0
 956.333 1148.33 1038.33 1130.33 1101 1095 c 1
 1123 1084.33 1143 1072.33 1161 1059 c 1
EndSplineSet
EndChar
StartChar: uni0E29
Encoding: 163 3625 165
OldEncoding: 3625
Width: 1350
Flags: W
Fore
447 1039 m 0
 416.333 1039 388.333 1023.67 363 993 c 0
 349 976.333 340.333 959.333 337 942 c 1
 335 935 l 1
 329 889 339.667 857.667 367 841 c 0
 377 835 389 832 403 832 c 1
 439.667 834.667 465.667 850.333 481 879 c 0
 489 893.667 495.667 914 501 940 c 0
 509.667 991.333 503 1022.33 481 1033 c 0
 472.333 1037 461 1039 447 1039 c 0
1052 433 m 1
 1032 425.667 1009 422 983 422 c 0
 929.667 422 885.667 433.667 851 457 c 0
 819 479 799 512.333 791 557 c 0
 786.333 579.667 786.667 602.333 792 625 c 0
 796 641.667 802 657.667 810 673 c 1
 824.667 706.333 852 731.667 892 749 c 0
 912.667 758.333 934 763 956 763 c 0
 973.333 763 990 760 1006 754 c 0
 1031.33 744 1048 726.667 1056 702 c 0
 1064 680 1064 655.333 1056 628 c 1
 1044.67 598 1025 574.333 997 557 c 0
 987 551.667 978 548 970 546 c 1
 975.333 535.333 991.667 529.667 1019 529 c 1
 1050 532 l 1
 1058.67 534 1066.67 537 1074 541 c 1
 1201 1136 l 1
 1361 1136 l 1
 1258 652 l 1
 1291.33 679.333 1313.33 719 1324 771 c 1
 1431 767 l 1
 1421 724 l 1
 1405.67 672.667 1381 626.667 1347 586 c 0
 1317.67 552 1276.67 520.333 1224 491 c 1
 1178 273 l 1
 1152 153 1088.33 72.3333 987 31 c 0
 918.333 3.66667 821 -10 695 -10 c 0
 537.667 -10 432.667 26.3333 380 99 c 0
 346.667 143.667 337.333 200.667 352 270 c 2
 458 767 l 1
 443.333 753 420 744 388 740 c 0
 384 739.333 379.667 738.667 375 738 c 1
 342 741 l 1
 308.667 746.333 281 762.333 259 789 c 1
 219.667 839 220.667 909.667 262 1001 c 1
 282.667 1044.33 317.667 1081 367 1111 c 0
 404.333 1134.33 444 1146.33 486 1147 c 0
 490 1147 490 1147 495 1147 c 0
 549 1146.33 590.667 1128 620 1092 c 0
 655.333 1048.67 662.333 977.333 641 878 c 1
 526 336 l 1
 506 243.333 536.333 185.667 617 163 c 0
 645 155 679.667 150.667 721 150 c 1
 789 152 l 1
 926.333 165.333 1007 226.667 1031 336 c 2
 1052 433 l 1
963 595 m 1
 980.333 611 990.333 626 993 640 c 0
 995.667 654 992 668.667 982 684 c 1
 971.333 697.333 957.667 704 941 704 c 0
 933.667 704 926 702.667 918 700 c 0
 908.667 696.667 899.667 691.333 891 684 c 0
 875 670.667 865.333 656.333 862 641 c 0
 858.667 625.667 862 610.333 872 595 c 1
 882 583 896 577 914 577 c 0
 932 577 948.333 583 963 595 c 1
EndSplineSet
EndChar
StartChar: uni0E2A
Encoding: 164 3626 166
OldEncoding: 3626
Width: 1250
Flags: W
Fore
441 97 m 0
 471.667 97 500 112.333 526 143 c 0
 539.333 159.667 548 176.667 552 194 c 0
 552.667 196.667 553 199 553 201 c 0
 559.667 247 549 278 521 294 c 1
 511 300.667 499 304 485 304 c 1
 448.333 301.333 422.667 285.667 408 257 c 1
 395 222 l 2
 392.333 214.667 390 206 388 196 c 0
 379.333 144.667 385.667 113.667 407 103 c 0
 415.667 99 427 97 441 97 c 0
1208 938 m 1
 1226 876.667 1225.67 801.667 1207 713 c 2
 1056 0 l 1
 896 0 l 1
 951 263 l 1
 975.667 376.333 951.333 459 878 511 c 0
 832 543.667 770 560 692 560 c 0
 582.667 560 507.333 530.333 466 471 c 0
 453.333 453 444.333 431.667 439 407 c 2
 431 369 l 1
 445 383 468.667 392 502 396 c 0
 506 396.667 509.667 397 513 397 c 2
 547 395 l 1
 580.333 389.667 607.667 373.667 629 347 c 0
 668.333 297 667.333 226.333 626 135 c 0
 606.667 92.3333 572 55.6667 522 25 c 0
 484 1.66667 444 -10.3333 402 -11 c 2
 393 -11 l 2
 339 -10.3333 297.667 8 269 44 c 0
 233.667 87.3333 226.333 158.667 247 258 c 1
 285 435 l 2
 302.333 515.667 343 578.667 407 624 c 0
 428.333 639.333 453.667 654 483 668 c 0
 555 702.667 634.667 720 722 720 c 0
 802.667 720 875.667 705.667 941 677 c 0
 987 657.667 1015 635 1025 609 c 1
 1047 714 l 1
 1065 796.667 1061 854.667 1035 888 c 1
 993.667 938.667 931.667 970.667 849 984 c 0
 827.667 987.333 805.667 989 783 989 c 0
 692.333 989 607.333 962.333 528 909 c 0
 496 887 468.667 862.333 446 835 c 1
 326 929 l 1
 379.333 995.667 455.333 1050 554 1092 c 0
 642 1130 728.667 1149 814 1149 c 0
 968.667 1149 1079.67 1113.33 1147 1042 c 1
 1199 1078 1250.67 1133.67 1302 1209 c 1
 1468 1209 l 1
 1432.67 1130.33 1375.67 1060.67 1297 1000 c 0
 1271.67 980.667 1242 960 1208 938 c 1
EndSplineSet
EndChar
StartChar: uni0E2B
Encoding: 165 3627 167
OldEncoding: 3627
Width: 1350
Flags: W
Fore
532 190 m 1
 586 288 668.333 400.333 779 527 c 0
 873 635.667 956 715.667 1028 767 c 1
 980 792.333 960.333 840.333 969 911 c 0
 972 928 972 928 976 950 c 0
 986.667 997.333 1012 1040.33 1052 1079 c 0
 1088 1114.33 1133.33 1135.33 1188 1142 c 0
 1197.33 1143.33 1206.33 1144 1215 1144 c 0
 1289.67 1144 1341.67 1118.67 1371 1068 c 0
 1389 1037.33 1394.67 1000 1388 956 c 1
 1376 904 l 1
 1360 862 l 1
 1339.33 820 1309 787.333 1269 764 c 1
 1297 747.333 1316 718.667 1326 678 c 0
 1331.33 654.667 1331.67 632 1327 610 c 2
 1198 0 l 1
 1038 0 l 1
 1164 594 l 1
 1172 633.333 1158 665.333 1122 690 c 1
 1042 638 946 546.333 834 415 c 0
 707.333 266.333 617 134 563 18 c 0
 560.333 12 558 6 556 0 c 1
 332 0 l 1
 496 776 l 1
 473.333 757.333 445.667 748 413 748 c 0
 375 748 343.333 763.333 318 794 c 1
 278.667 844 279.667 914.667 321 1006 c 0
 341.667 1050 376.333 1086.67 425 1116 c 0
 452.333 1133.33 480 1144 508 1148 c 1
 554 1152 l 1
 636.667 1151.33 683.333 1111.33 694 1032 c 0
 698.667 1000.67 696.667 964.667 688 924 c 2
 532 190 l 1
497 1049 m 0
 466.333 1049 438.333 1033.67 413 1003 c 0
 399 986.333 390.333 969.333 387 952 c 1
 385 945 l 1
 379 899 390 868 418 852 c 1
 427.333 845.333 439 842 453 842 c 1
 489.667 844.667 515.667 860.333 531 889 c 0
 539 903.667 545.667 924 551 950 c 0
 559.667 1001.33 553 1032.33 531 1043 c 1
 509 1048 l 2
 505 1048.67 501 1049 497 1049 c 0
1152 830 m 1
 1179 832 l 1
 1213.67 839.333 1240.33 859.667 1259 893 c 0
 1265.67 905 1270.33 917.667 1273 931 c 0
 1275 939.667 1276 948.333 1276 957 c 0
 1276.67 989 1264.33 1012.67 1239 1028 c 1
 1217 1037 l 1
 1201 1039 l 1
 1177 1036 l 1
 1151 1029.33 1128.33 1015 1109 993 c 0
 1097 979.667 1088 959 1082 931 c 2
 1078 911 l 1
 1078 895 l 1
 1080.67 881 1088.33 868 1101 856 c 0
 1117 840 1134 831.333 1152 830 c 1
EndSplineSet
EndChar
StartChar: uni0E2C
Encoding: 166 3628 168
OldEncoding: 3628
Width: 1400
Flags: W
Fore
1467 1159 m 1
 1273 248 l 2
 1252.33 150.667 1208.33 78.6667 1141 32 c 1
 1108 12 l 1
 1071 -2 l 1
 1030 -10 l 2
 1021.33 -11.3333 1012.33 -12 1003 -12 c 2
 934 -9 l 1
 872.667 -2.33333 826.667 20.3333 796 59 c 0
 794 62.3333 791.667 65.6667 789 69 c 1
 746.333 24.3333 689 -1.66667 617 -9 c 1
 556 -12 l 1
 506 -9 l 1
 410.667 5 361.333 60.3333 358 157 c 0
 357.333 185 360.333 215.333 367 248 c 1
 479 776 l 1
 455 756.667 427.333 747 396 747 c 0
 358 747 326.333 763 301 795 c 0
 261.667 844.333 262.667 914.333 304 1005 c 0
 324.667 1049 359.333 1086 408 1116 c 0
 436 1133.33 463.667 1144 491 1148 c 1
 535 1151 l 1
 575 1150.33 611 1132.33 643 1097 c 1
 671.667 1063.67 681 1009 671 933 c 1
 667 909.667 660.667 877 652 835 c 1
 527 248 l 2
 520.333 217.333 528.333 190.333 551 167 c 0
 567 150.333 585.333 142 606 142 c 0
 644.667 142 679 157.667 709 189 c 1
 725 207 735.333 226.667 740 248 c 2
 908 1039 l 1
 1068 1039 l 1
 900 248 l 1
 893.333 215.333 904.333 187.667 933 165 c 0
 951.667 149.667 973.333 142 998 142 c 0
 1032 142 1062 159 1088 193 c 0
 1100.67 210.333 1109 228.667 1113 248 c 2
 1309 1167 l 1
 1259 1171 1221.67 1190.33 1197 1225 c 0
 1175 1255 1169.67 1296 1181 1348 c 0
 1185.67 1370 1193 1391 1203 1411 c 0
 1225 1453.67 1260.67 1485 1310 1505 c 0
 1334.67 1514.33 1359.33 1519 1384 1519 c 0
 1413.33 1519 1439.67 1512 1463 1498 c 0
 1499.67 1474.67 1516.33 1437.67 1513 1387 c 0
 1511.67 1370.33 1507 1343 1499 1305 c 2
 1494 1281 l 1
 1531.33 1284.33 1563.67 1296.67 1591 1318 c 0
 1629.67 1349.33 1656 1399 1670 1467 c 1
 1770 1467 l 1
 1757.33 1406.33 1744.67 1364 1732 1340 c 0
 1726.67 1328.67 1720 1317.33 1712 1306 c 0
 1688 1269.33 1654 1236.33 1610 1207 c 0
 1564 1175 1516.33 1159 1467 1159 c 1
481 1043 m 0
 454.333 1043 429.667 1028.67 407 1000 c 1
 392 976 l 1
 383 949 l 1
 383 947 382.667 945.333 382 944 c 0
 376.667 903.333 385 874.667 407 858 c 0
 415.667 850.667 426.667 847 440 847 c 0
 482 849.667 509 879.333 521 936 c 0
 522.333 940.667 523.333 945.333 524 950 c 0
 537.333 1012 523 1043 481 1043 c 0
1330 1263 m 0
 1368 1263 1397.67 1278.67 1419 1310 c 0
 1427 1322.67 1432.67 1337 1436 1353 c 0
 1445.33 1395.67 1433.33 1423 1400 1435 c 0
 1390.67 1438.33 1380 1440 1368 1440 c 0
 1330.67 1440 1301.33 1424.67 1280 1394 c 0
 1271.33 1381.33 1265.33 1367 1262 1351 c 0
 1255.33 1320.33 1262.67 1296 1284 1278 c 0
 1296.67 1268 1312 1263 1330 1263 c 0
EndSplineSet
EndChar
StartChar: uni0E2D
Encoding: 167 3629 169
OldEncoding: 3629
Width: 1230
Flags: W
Fore
588 642 m 0
 553.333 642 528.333 627.333 513 598 c 1
 498 563 l 1
 493 543 l 1
 481.667 490.333 486.667 457.667 508 445 c 0
 516 439.667 528 436.333 544 435 c 1
 582.667 435 614 455 638 495 c 0
 646 508.333 652 522.667 656 538 c 1
 660 563 l 1
 660 593.667 648.333 616.333 625 631 c 0
 613.667 638.333 601.333 642 588 642 c 0
280 270 m 2
 315 434 l 1
 335 529.333 356.333 595 379 631 c 0
 393.667 654.333 413 675.333 437 694 c 0
 496.333 739.333 560.667 756.333 630 745 c 0
 675.333 737.667 710.333 713.333 735 672 c 0
 757 634 761.667 585 749 525 c 0
 737.667 470.333 711 426 669 392 c 0
 617 349.333 566 335.333 516 350 c 0
 483.333 360.667 465.333 368.333 462 373 c 1
 447 304 447 304 438 261.5 c 128
 432 233.167 460.667 204.667 524 176 c 0
 560.667 160 602.667 151.333 650 150 c 1
 707 153 l 1
 789.667 163 856 192 906 240 c 0
 935.333 268.667 954 301.667 962 339 c 2
 1041 715 l 1
 1058.33 796.333 1055.33 852 1032 882 c 0
 994 930 937.333 962.667 862 980 c 0
 834.667 986 806.667 989 778 989 c 0
 660.667 989 564.333 957.667 489 895 c 1
 452 862 l 1
 435 843 l 1
 321 929 l 1
 375.667 996.333 452.333 1051 551 1093 c 0
 638.333 1130.33 724.333 1149 809 1149 c 0
 906.333 1149 996.333 1125.67 1079 1079 c 0
 1126.33 1051.67 1161 1021 1183 987 c 1
 1219.67 933 1228.33 854.333 1209 751 c 1
 1108 273 l 1
 1088.67 183.667 1028.67 112.667 928 60 c 0
 838 13.3333 732.667 -10 612 -10 c 0
 502 -10 414.667 17.6667 350 73 c 0
 286.667 127 263.333 192.667 280 270 c 2
EndSplineSet
EndChar
StartChar: uni0E2E
Encoding: 168 3630 170
OldEncoding: 3630
Width: 1250
Flags: W
Fore
595 642 m 0
 560.333 642 535.333 627.333 520 598 c 1
 505 563 l 1
 500 543 l 1
 488.667 490.333 493.667 457.667 515 445 c 0
 523 439.667 535 436.333 551 435 c 1
 589.667 435 621 455 645 495 c 0
 653 508.333 659 522.667 663 538 c 1
 667 563 l 1
 667 593.667 655.333 616.333 632 631 c 0
 620.667 638.333 608.333 642 595 642 c 0
1049 718 m 2
 1056.33 752 1059 770 1057 772 c 0
 1056.33 773.333 1056 776.667 1056 782 c 2
 1056 784 l 1
 1056.67 807.333 1053.33 826.667 1046 842 c 1
 971.333 790 872.667 764 750 764 c 1
 673 767 l 1
 555 777 474.333 806.667 431 856 c 0
 405.667 885.333 397 919.333 405 958 c 0
 415 1006 461.667 1048.67 545 1086 c 0
 633 1126 727.667 1147 829 1149 c 0
 834 1149 834 1149 840 1149 c 0
 939.333 1149 1026 1126 1100 1080 c 0
 1124 1064 l 1
 1159.33 1100 1183.33 1131.33 1196 1158 c 1
 1309 1116 l 1
 1273.67 1060.67 1237.67 1013.67 1201 975 c 1
 1225.67 922.333 1232.67 859.333 1222 786 c 1
 1199 669 l 1
 1194.33 649 1191 634.333 1189 625 c 2
 1115 273 l 1
 1095.67 183.667 1035.67 112.667 935 60 c 0
 845 13.3333 739.667 -10 619 -10 c 0
 509 -10 421.667 17.6667 357 73 c 0
 293.667 127 270.333 192.667 287 270 c 2
 322 434 l 1
 342 529.333 363.333 595 386 631 c 0
 400.667 654.333 420 675.333 444 694 c 0
 503.333 739.333 567.667 756.333 637 745 c 0
 682.333 737.667 717.333 713.333 742 672 c 0
 764 634 768.667 585 756 525 c 0
 744.667 470.333 718 426 676 392 c 0
 624 349.333 573 335.333 523 350 c 0
 490.333 360.667 472.333 368.333 469 373 c 1
 454 304 454 304 445 261.5 c 128
 439 233.167 467.667 204.667 531 176 c 0
 567.667 160 609.667 151.333 657 150 c 1
 714 153 l 1
 796.667 163 863 192 913 240 c 0
 942.333 268.667 961 301.667 969 339 c 2
 1049 718 l 2
1026 952 m 1
 966.667 1004 896.667 1032.67 816 1038 c 0
 804 1038 l 2
 750 1035 l 1
 692.667 1027.67 643.667 1014.33 603 995 c 0
 576.333 982.333 561 970 557 958 c 1
 557 945 l 1
 564.333 921 601 901.333 667 886 c 0
 701.667 878.667 735.333 875 768 875 c 0
 858 875 944 900.667 1026 952 c 1
EndSplineSet
EndChar
StartChar: uni0E2F
Encoding: 169 3631 171
OldEncoding: 3631
Width: 1150
Flags: W
Fore
1269 1149 m 1
 1025 0 l 1
 865 0 l 1
 1041 830 l 1
 961.667 764 874.667 721.333 780 702 c 0
 730.667 691.333 681.333 686 632 686 c 0
 537.333 686 463.333 703.333 410 738 c 1
 362.667 764.667 333.333 802.667 322 852 c 0
 316.667 872 315.667 892.667 319 914 c 0
 329.667 979.333 363.333 1034 420 1078 c 0
 458 1108 500 1126 546 1132 c 0
 608 1140.67 657.333 1125.67 694 1087 c 0
 720 1059 732 1024 730 982 c 0
 727.333 924 696.667 874 638 832 c 1
 657.333 822.667 695 824.667 751 838 c 0
 867.667 866 960.333 921 1029 1003 c 0
 1065.67 1046.33 1092.33 1095 1109 1149 c 1
 1269 1149 l 1
530 1042 m 0
 492.667 1036 463 1016.33 441 983 c 0
 432.333 969.667 426.333 955.333 423 940 c 0
 421.667 932 420.667 924.333 420 917 c 0
 420 885.667 433.667 863.333 461 850 c 0
 472.333 844.667 484.667 842 498 842 c 0
 502 842 506.667 842.333 512 843 c 0
 552.667 849 584.333 868.333 607 901 c 0
 616.333 915 623 930 627 946 c 0
 627.667 950 628 954 628 958 c 0
 630 990 618.333 1014.67 593 1032 c 1
 579.667 1040 565 1044 549 1044 c 0
 543 1044 536.667 1043.33 530 1042 c 0
EndSplineSet
EndChar
StartChar: uni0E30
Encoding: 170 3632 172
OldEncoding: 3632
Width: 1100
Flags: W
Fore
232 289 m 1
 243 330 l 1
 263 387.333 299.333 430.333 352 459 c 0
 375.333 471.667 399.667 479.667 425 483 c 1
 462 484 l 1
 500 482 530 467 552 439 c 0
 571.333 414.333 580 385 578 351 c 1
 572 318 l 1
 558.667 269.333 530.667 231.333 488 204 c 2
 480 199 l 1
 488 195.667 502.667 194 524 194 c 0
 557.333 194 589 198.333 619 207 c 0
 718.333 235.667 791.333 283 838 349 c 0
 862 383.667 882.333 427 899 479 c 1
 1015 479 l 1
 989 357 921.667 257.667 813 181 c 0
 769 150.333 721.333 126 670 108 c 0
 616 88 559.333 78 500 78 c 0
 404.667 78 331.667 101.333 281 148 c 0
 240.333 185.333 224 232.333 232 289 c 1
413 408 m 0
 382.333 403.333 358 387.667 340 361 c 0
 333.333 351 328.667 340 326 328 c 0
 325.333 322.667 325 317 325 311 c 0
 325 283 337.667 264.667 363 256 c 0
 370.333 252.667 378.667 251 388 251 c 0
 392 251 396 251.333 400 252 c 0
 436.667 257.333 464.333 274.333 483 303 c 0
 489 312.333 493 322 495 332 c 0
 495.667 335.333 496 339 496 343 c 0
 497.333 371 486 391 462 403 c 1
 452 407 441 409 429 409 c 0
 423.667 409 418.333 408.667 413 408 c 0
352 814 m 1
 362 855 l 1
 382.667 912.333 419.333 955.333 472 984 c 0
 495.333 996.667 519.667 1004.67 545 1008 c 1
 583 1009 l 1
 619.667 1007 649 992 671 964 c 0
 691 939.333 700 910 698 876 c 1
 692 843 l 1
 684.667 817.667 672.667 794 656 772 c 1
 632 748 l 2
 622 738.667 611 730.667 599 724 c 1
 607 720.667 621.667 719 643 719 c 0
 676.333 719 708.333 723.333 739 732 c 0
 837.667 760.667 910.333 808 957 874 c 0
 981.667 908.667 1002.33 952 1019 1004 c 1
 1135 1004 l 1
 1109 882 1042 782.667 934 706 c 1
 889.333 675.333 841.333 651 790 633 c 0
 736 613 679.333 603 620 603 c 0
 524.667 603 451.667 626.333 401 673 c 0
 359.667 710.333 343.333 757.333 352 814 c 1
533 933 m 1
 502.333 928.333 478 912.667 460 886 c 0
 454 876 449.333 865 446 853 c 0
 444.667 847.667 444 842 444 836 c 0
 444 808 457 789.667 483 781 c 1
 489.667 777.667 497.667 776 507 776 c 0
 511 776 515.667 776.333 521 777 c 0
 556.333 782.333 583.333 799.333 602 828 c 0
 608 837.333 612.333 847 615 857 c 0
 615.667 860.333 616 864 616 868 c 0
 618 896 606.667 916 582 928 c 0
 573.333 932 563.667 934 553 934 c 2
 533 933 l 1
EndSplineSet
EndChar
StartChar: uni0E31
Encoding: 171 3633 173
OldEncoding: 3633
Width: 0
Flags: W
Fore
-419 1444 m 1
 -408 1485 l 1
 -388 1542.33 -351.333 1585.33 -298 1614 c 0
 -274.667 1626.67 -250.333 1634.67 -225 1638 c 1
 -188 1639 l 1
 -150.667 1637 -121 1622 -99 1594 c 0
 -79.6667 1569.33 -70.6667 1540 -72 1506 c 1
 -78 1473 l 1
 -92 1424.33 -120.333 1386.33 -163 1359 c 2
 -171 1354 l 1
 -163 1350.67 -148.333 1349 -127 1349 c 0
 -93.6667 1349 -61.6667 1353.33 -31 1362 c 0
 67 1390.67 139.333 1438 186 1504 c 0
 210 1538.67 230.667 1582 248 1634 c 1
 364 1634 l 1
 338 1512 270.333 1412.67 161 1336 c 0
 117.667 1305.33 70.3333 1281 19 1263 c 0
 -34.3333 1243 -90.6667 1233 -150 1233 c 0
 -245.333 1233 -318.667 1256.33 -370 1303 c 0
 -410.667 1340.33 -427 1387.33 -419 1444 c 1
-237 1563 m 0
 -268.333 1558.33 -292.667 1542.67 -310 1516 c 0
 -316.667 1506 -321.333 1495 -324 1483 c 0
 -325.333 1477.67 -326 1472 -326 1466 c 0
 -326 1438 -313.333 1419.67 -288 1411 c 0
 -280.667 1407.67 -272.333 1406 -263 1406 c 0
 -259 1406 -254.667 1406.33 -250 1407 c 0
 -214 1412.33 -186.667 1429.33 -168 1458 c 0
 -162 1467.33 -157.667 1477 -155 1487 c 0
 -154.333 1490.33 -154 1494 -154 1498 c 0
 -152.667 1526 -164 1546 -188 1558 c 1
 -198 1562 -209 1564 -221 1564 c 0
 -226.333 1564 -231.667 1563.67 -237 1563 c 0
EndSplineSet
EndChar
StartChar: uni0E32
Encoding: 172 3634 174
OldEncoding: 3634
Width: 1150
Flags: W
Fore
1116 753 m 1
 956 0 l 1
 796 0 l 1
 950 729 l 1
 984 887 925.333 973 774 987 c 0
 764 988.333 753.667 989 743 989 c 2
 709 986 l 1
 653.667 975.333 599 943.667 545 891 c 0
 519 865 498.333 838.333 483 811 c 1
 315 837 l 1
 351.667 917.667 410.667 988.333 492 1049 c 0
 582.667 1115.67 674 1149 766 1149 c 0
 894 1149 990.333 1115 1055 1047 c 1
 1111.67 989 1134.67 908.667 1124 806 c 0
 1122 788.667 1119.33 771 1116 753 c 1
EndSplineSet
EndChar
StartChar: uni0E33
Encoding: 173 3635 175
OldEncoding: 3635
Width: 1050
Flags: W
Fore
1065 753 m 1
 905 0 l 1
 745 0 l 1
 899 729 l 1
 933 887 874.333 973 723 987 c 0
 713 988.333 702.667 989 692 989 c 2
 658 986 l 1
 602.667 975.333 548 943.667 494 891 c 0
 468 865 447.333 838.333 432 811 c 1
 264 837 l 1
 300.667 917.667 359.667 988.333 441 1049 c 0
 531.667 1115.67 623 1149 715 1149 c 0
 843 1149 939.333 1115 1004 1047 c 1
 1060.67 989 1083.67 908.667 1073 806 c 0
 1071 788.667 1068.33 771 1065 753 c 1
55 1668 m 0
 125 1668 178.333 1642.33 215 1591 c 0
 243.667 1549.67 252 1499.67 240 1441 c 0
 224 1367.67 182.667 1308.33 116 1263 c 0
 66 1229 13.6667 1212 -41 1212 c 0
 -105.667 1212 -156 1237.33 -192 1288 c 0
 -223.333 1332 -232.667 1383 -220 1441 c 0
 -206 1507 -168 1563.33 -106 1610 c 0
 -54.6667 1648.67 -1 1668 55 1668 c 0
30 1540 m 0
 -8.66667 1540 -41.6667 1524 -69 1492 c 1
 -85 1468 l 1
 -90.3333 1458 -94 1447.67 -96 1437 c 0
 -104 1399.67 -95.3333 1370.67 -70 1350 c 0
 -54 1338 -35 1332 -13 1332 c 0
 32.3333 1332 68 1349.67 94 1385 c 0
 106 1401 114 1418.33 118 1437 c 0
 126.667 1477 116 1506.33 86 1525 c 0
 70.6667 1535 52 1540 30 1540 c 0
EndSplineSet
EndChar
StartChar: uni0E34
Encoding: 174 3636 176
OldEncoding: 3636
Width: 0
Flags: W
Fore
80 1227 m 1
 -56 1257.67 -260 1284.33 -532 1307 c 0
 -661.333 1317 -765 1322 -843 1322 c 1
 -807 1391.33 -745 1458.33 -657 1523 c 0
 -623.667 1547 -591.333 1567 -560 1583 c 0
 -484 1621.67 -400.333 1641 -309 1641 c 0
 -289 1641 -269 1640 -249 1638 c 0
 -161 1628 -85.3333 1592.67 -22 1532 c 0
 -16 1526.67 -10 1521 -4 1515 c 0
 54.6667 1450.33 82.6667 1354.33 80 1227 c 1
-76 1359 m 1
 -74 1391 -91 1424.33 -127 1459 c 0
 -171.667 1501.67 -226 1525.33 -290 1530 c 1
 -346 1530 l 1
 -431.333 1524.67 -503.667 1497.33 -563 1448 c 1
 -590 1421 l 2
 -592 1418.33 -594.333 1415.67 -597 1413 c 1
 -509 1412 l 1
 -367.667 1404 -239.667 1389.67 -125 1369 c 0
 -105 1365.67 -88.6667 1362.33 -76 1359 c 1
EndSplineSet
EndChar
StartChar: uni0E35
Encoding: 175 3637 177
OldEncoding: 3637
Width: 0
Flags: W
Fore
80 1260 m 1
 80.6667 1248.67 81 1238 81 1228 c 1
 -55.6667 1258.67 -259.667 1285.33 -531 1308 c 0
 -660.333 1318 -764 1323 -842 1323 c 1
 -806.667 1392.33 -745 1459.33 -657 1524 c 0
 -623.667 1548 -591.333 1568 -560 1584 c 0
 -483.333 1622.67 -399.333 1642 -308 1642 c 0
 -288 1642 -268.333 1641 -249 1639 c 0
 -161 1629 -85.3333 1593.67 -22 1533 c 0
 -12 1525 l 1
 31 1735 l 1
 181 1735 l 1
 80 1260 l 1
-87 1370 m 1
 -95 1401.33 -119.667 1431.67 -161 1461 c 0
 -201.667 1489.67 -246 1506.33 -294 1511 c 1
 -342 1512 l 1
 -409.333 1508 -471.667 1488.67 -529 1454 c 1
 -559 1434 l 2
 -563 1430.67 -566.667 1427.33 -570 1424 c 1
 -472 1424 -350.333 1413.33 -205 1392 c 0
 -153.667 1384.67 -114.333 1377.33 -87 1370 c 1
EndSplineSet
EndChar
StartChar: uni0E36
Encoding: 176 3638 178
OldEncoding: 3638
Width: 0
Flags: W
Fore
-37 1548 m 1
 -19.6667 1584.67 3 1613.67 31 1635 c 0
 71.6667 1665.67 114.333 1681 159 1681 c 0
 213.667 1681 255.333 1660.67 284 1620 c 0
 307.333 1587.33 314.333 1548 305 1502 c 0
 292.333 1444.67 259.667 1398 207 1362 c 0
 167 1334.67 124 1321 78 1321 c 1
 80.6667 1304.33 81.6667 1273.33 81 1228 c 1
 -55.6667 1258.67 -259.667 1285.33 -531 1308 c 0
 -660.333 1318 -764 1323 -842 1323 c 1
 -806.667 1392.33 -745 1459.33 -657 1524 c 0
 -623.667 1548 -591.333 1568 -560 1584 c 0
 -483.333 1622.67 -399.333 1642 -308 1642 c 0
 -288 1642 -268.333 1641 -249 1639 c 0
 -169.667 1629.67 -99 1599.33 -37 1548 c 1
135 1568 m 0
 107 1568 83.6667 1556.33 65 1533 c 0
 56.3333 1523 50.6667 1512 48 1500 c 0
 42.6667 1472.67 50.6667 1452 72 1438 c 0
 81.3333 1432 92.3333 1429 105 1429 c 0
 137 1429 162.333 1442 181 1468 c 0
 187.667 1478 192 1488.67 194 1500 c 0
 200 1528 191 1548.33 167 1561 c 0
 157.667 1565.67 147 1568 135 1568 c 0
-85 1358 m 1
 -93.6667 1389.33 -117.333 1421.33 -156 1454 c 0
 -198.667 1488.67 -244.667 1508.33 -294 1513 c 1
 -338 1514 l 1
 -402 1508.67 -466 1486.67 -530 1448 c 1
 -564 1423 l 2
 -568.667 1419.67 -572.667 1416 -576 1412 c 1
 -477.333 1412 -354.333 1401.33 -207 1380 c 0
 -153 1372.67 -112.333 1365.33 -85 1358 c 1
EndSplineSet
EndChar
StartChar: uni0E37
Encoding: 177 3639 179
OldEncoding: 3639
Width: 0
Flags: W
Fore
-87 1544 m 1
 -72.3333 1544 -50.6667 1528.33 -22 1497 c 0
 -20.6667 1495 -19.6667 1493.67 -19 1493 c 1
 23 1695 l 1
 173 1695 l 1
 80 1258 l 1
 70 1201 l 1
 -64.6667 1231.67 -273.667 1258.33 -557 1281 c 0
 -674.333 1291 -765 1296 -829 1296 c 1
 -778.333 1388.67 -696 1468 -582 1534 c 0
 -518.667 1570.67 -444.667 1594 -360 1604 c 1
 -299 1607 l 1
 -271.667 1606.33 -247.333 1603.33 -226 1598 c 1
 -205 1696 l 1
 -55 1696 l 1
 -87 1544 l 1
-113 1343 m 1
 -123 1382.33 -148 1415.33 -188 1442 c 0
 -220.667 1464 -258.333 1476.33 -301 1479 c 1
 -356 1479 l 1
 -440 1472.33 -508.667 1442.67 -562 1390 c 2
 -565 1387 l 1
 -443 1382 l 1
 -275.667 1370.67 -165.667 1357.67 -113 1343 c 1
EndSplineSet
EndChar
StartChar: uni0E38
Encoding: 178 3640 180
OldEncoding: 3640
Width: 0
Flags: W
Fore
-454 -534 m 1
 -417 -360 l 1
 -429 -368.667 -441 -373.667 -453 -375 c 2
 -487 -376 l 1
 -516.333 -374 -540 -362.333 -558 -341 c 1
 -579.333 -317.667 -585.333 -285.333 -576 -244 c 0
 -572.667 -228 -566.667 -210.667 -558 -192 c 0
 -541.333 -157.333 -512.333 -129 -471 -107 c 0
 -443.667 -92.3333 -416.667 -85 -390 -85 c 1
 -353 -88 l 1
 -313 -96 -286.333 -115 -273 -145 c 1
 -259.667 -178.333 -259.667 -229.667 -273 -299 c 0
 -274.333 -303.667 -275.333 -308.333 -276 -313 c 1
 -323 -534 l 1
 -454 -534 l 1
-417 -163 m 0
 -424.333 -163 -431.667 -164.667 -439 -168 c 0
 -455.667 -174.667 -470.333 -186.333 -483 -203 c 0
 -490.333 -213.667 -495.333 -224.667 -498 -236 c 0
 -506.667 -279.333 -493 -303 -457 -307 c 0
 -453.667 -307.667 -450.667 -308 -448 -308 c 0
 -440.667 -308 -433 -305.333 -425 -300 c 0
 -403 -286 -389 -265 -383 -237 c 0
 -382.333 -235 -382 -233.333 -382 -232 c 0
 -374 -186.667 -385.667 -163.667 -417 -163 c 0
EndSplineSet
EndChar
StartChar: uni0E39
Encoding: 179 3641 181
OldEncoding: 3641
Width: 0
Flags: W
Fore
-371 -96 m 1
 -237 -96 l 1
 -330 -534 l 1
 -740 -534 l 1
 -703 -360 l 1
 -715 -368.667 -727 -373.667 -739 -375 c 2
 -773 -376 l 1
 -802.333 -374 -826 -362.333 -844 -341 c 1
 -865.333 -317.667 -871.333 -285.333 -862 -244 c 0
 -858.667 -228 -852.667 -210.667 -844 -192 c 0
 -827.333 -157.333 -798.333 -129 -757 -107 c 0
 -729.667 -92.3333 -702.667 -85 -676 -85 c 1
 -639 -88 l 1
 -599 -96 -572.333 -115 -559 -145 c 1
 -545.667 -178.333 -545.667 -229.667 -559 -299 c 0
 -560.333 -303.667 -561.333 -308.333 -562 -313 c 1
 -588 -435 l 1
 -443 -435 l 1
 -371 -96 l 1
-703 -163 m 0
 -710.333 -163 -717.667 -164.667 -725 -168 c 0
 -741.667 -174.667 -756.333 -186.333 -769 -203 c 0
 -776.333 -213.667 -781.333 -224.667 -784 -236 c 0
 -792.667 -279.333 -779 -303 -743 -307 c 0
 -739.667 -307.667 -736.667 -308 -734 -308 c 0
 -726.667 -308 -719 -305.333 -711 -300 c 0
 -689 -286 -675 -265 -669 -237 c 0
 -668.333 -235 -668 -233.333 -668 -232 c 0
 -660 -186.667 -671.667 -163.667 -703 -163 c 0
EndSplineSet
EndChar
StartChar: uni0E3A
Encoding: 180 3642 182
OldEncoding: 3642
Width: 0
Flags: W
Fore
-258 -60 m 0
 -221.333 -60 -193 -73 -173 -99 c 0
 -151.667 -127.667 -144.667 -159.667 -152 -195 c 0
 -160 -231.667 -180.333 -263 -213 -289 c 1
 -245 -316.333 -279.333 -330 -316 -330 c 0
 -351.333 -330 -379.667 -316.333 -401 -289 c 0
 -421.667 -262.333 -428.333 -231 -421 -195 c 0
 -413.667 -159.667 -393.667 -127.667 -361 -99 c 1
 -328.333 -73 -294 -60 -258 -60 c 0
EndSplineSet
EndChar
StartChar: uni0E3F
Encoding: 181 3647 183
OldEncoding: 3647
Width: 1250
Flags: W
Fore
1058 827 m 1
 1142 801.667 1201.33 757 1236 693 c 1
 1270 627 1277.33 548.333 1258 457 c 0
 1229.33 324.333 1159.33 216.333 1048 133 c 0
 936 49.6667 804.333 6 653 2 c 1
 624 -133 l 1
 512 -133 l 1
 541 0 l 1
 152 0 l 1
 468 1489 l 1
 857 1489 l 1
 880 1595 l 1
 992 1595 l 1
 969 1489 l 1
 1113.67 1487 1217.33 1458 1280 1402 c 0
 1341.33 1346.67 1359.67 1260.67 1335 1144 c 0
 1321.67 1082 1290.33 1022.33 1241 965 c 0
 1191 908.333 1130.67 865.333 1060 836 c 1
 1058 827 l 1
729 885 m 1
 821 1321 l 1
 628 1321 l 1
 536 885 l 1
 729 885 l 1
841 887 m 1
 899.667 887.667 957.333 905.667 1014 941 c 0
 1068.67 975.667 1105 1036.67 1123 1124 c 0
 1137 1188.67 1129.67 1235.33 1101 1264 c 0
 1072.33 1293.33 1032.33 1310.33 981 1315 c 1
 969.667 1315 953.667 1316.33 933 1319 c 1
 841 887 l 1
577 170 m 1
 693 719 l 1
 500 719 l 1
 384 170 l 1
 577 170 l 1
689 174 m 1
 778.333 178 855.667 202 921 246 c 0
 987 291.333 1029.67 359 1049 449 c 0
 1063.67 518.333 1064.67 569.333 1052 602 c 0
 1039.33 634.667 1012.67 661.667 972 683 c 1
 932 705.667 876.333 717 805 717 c 1
 689 174 l 1
EndSplineSet
EndChar
StartChar: uni0E40
Encoding: 182 3648 184
OldEncoding: 3648
Width: 700
Flags: W
Fore
411 1149 m 1
 571 1149 l 1
 412 403 l 1
 405 369 l 1
 419.667 383 443.333 392 476 396 c 0
 479.333 396.667 483 397 487 397 c 2
 521 395 l 1
 554.333 389.667 581.667 373.667 603 347 c 0
 642.333 297 641.333 226.333 600 135 c 1
 579.333 91.6667 544.667 55 496 25 c 0
 458 1.66667 418 -10.3333 376 -11 c 0
 372 -11 372 -11 367 -11 c 0
 313 -10.3333 271.667 8 243 44 c 0
 207.667 87.3333 200.333 158.667 221 258 c 1
 252 403 l 1
 411 1149 l 1
415 97 m 0
 445.667 97 474 112.333 500 143 c 0
 513.333 159.667 522 176.667 526 194 c 0
 526.667 196.667 527 199 527 201 c 0
 533.667 247 523 278 495 294 c 1
 485 300.667 473 304 459 304 c 1
 422.333 301.333 396.333 285.667 381 257 c 0
 373.667 242.333 367.333 222 362 196 c 0
 353.333 144.667 359.667 113.667 381 103 c 0
 389.667 99 401 97 415 97 c 0
EndSplineSet
EndChar
StartChar: uni0E41
Encoding: 183 3649 185
OldEncoding: 3649
Width: 1320
Flags: W
Fore
1048 1149 m 1
 1208 1149 l 1
 1049 403 l 1
 1042 369 l 1
 1056.67 383 1080.33 392 1113 396 c 0
 1116.33 396.667 1120 397 1124 397 c 2
 1158 395 l 1
 1191.33 389.667 1218.67 373.667 1240 347 c 0
 1279.33 297 1278.33 226.333 1237 135 c 1
 1216.33 91.6667 1181.67 55 1133 25 c 0
 1095 1.66667 1055 -10.3333 1013 -11 c 0
 1009 -11 1009 -11 1004 -11 c 0
 950 -10.3333 908.667 8 880 44 c 0
 844.667 87.3333 837.333 158.667 858 258 c 1
 889 403 l 1
 1048 1149 l 1
1052 97 m 0
 1082.67 97 1111 112.333 1137 143 c 0
 1150.33 159.667 1159 176.667 1163 194 c 0
 1163.67 196.667 1164 199 1164 201 c 0
 1170.67 247 1160 278 1132 294 c 1
 1122 300.667 1110 304 1096 304 c 1
 1059.33 301.333 1033.33 285.667 1018 257 c 0
 1010.67 242.333 1004.33 222 999 196 c 0
 990.333 144.667 996.667 113.667 1018 103 c 0
 1026.67 99 1038 97 1052 97 c 0
435 1149 m 1
 595 1149 l 1
 436 403 l 1
 429 369 l 1
 443.667 383 467.333 392 500 396 c 0
 503.333 396.667 507 397 511 397 c 2
 545 395 l 1
 578.333 389.667 605.667 373.667 627 347 c 0
 666.333 297 665.333 226.333 624 135 c 1
 603.333 91.6667 568.667 55 520 25 c 0
 482 1.66667 442 -10.3333 400 -11 c 0
 396 -11 396 -11 391 -11 c 0
 337 -10.3333 295.667 8 267 44 c 0
 231.667 87.3333 224.333 158.667 245 258 c 1
 276 403 l 1
 435 1149 l 1
439 97 m 0
 469.667 97 498 112.333 524 143 c 0
 537.333 159.667 546 176.667 550 194 c 0
 550.667 196.667 551 199 551 201 c 0
 557.667 247 547 278 519 294 c 1
 509 300.667 497 304 483 304 c 1
 446.333 301.333 420.333 285.667 405 257 c 0
 397.667 242.333 391.333 222 386 196 c 0
 377.333 144.667 383.667 113.667 405 103 c 0
 413.667 99 425 97 439 97 c 0
EndSplineSet
EndChar
StartChar: uni0E42
Encoding: 184 3650 186
OldEncoding: 3650
Width: 1100
Flags: W
Fore
741 850 m 2
 758.333 931.333 760.333 987 747 1017 c 0
 737 1037.67 715 1057.33 681 1076 c 0
 601 1120 464 1153 270 1175 c 1
 276.667 1204.33 308 1256.33 364 1331 c 0
 375.333 1345.67 386 1358.67 396 1370 c 0
 464 1450.67 542 1507 630 1539 c 0
 674.667 1555.67 719 1564 763 1564 c 0
 770.333 1564 777.333 1563.67 784 1563 c 0
 822.667 1561 877 1545.67 947 1517 c 0
 987 1499.67 1017.67 1488.33 1039 1483 c 0
 1089 1469.67 1136.67 1463 1182 1463 c 0
 1260 1463 1325.67 1483.33 1379 1524 c 1
 1325 1370 l 1
 1259 1338.67 1190.67 1323 1120 1323 c 0
 1076.67 1323 1034.67 1328.67 994 1340 c 0
 979.333 1344.67 939.667 1360.67 875 1388 c 0
 827 1409.33 786 1421.33 752 1424 c 1
 717 1423 l 1
 657 1415.67 596.667 1381 536 1319 c 0
 522.667 1305.67 511.333 1292.67 502 1280 c 1
 641.333 1255.33 745.333 1220 814 1174 c 0
 825.333 1166.67 834.667 1159.33 842 1152 c 0
 882 1114 906.333 1077 915 1041 c 1
 923.667 999 919.333 936 902 852 c 1
 806 403 l 1
 799 369 l 1
 813.667 383 837.333 392 870 396 c 0
 874 396.667 878 397 882 397 c 2
 915 395 l 1
 949 389.667 976.667 373.667 998 347 c 0
 1037.33 297 1036.33 226.333 995 135 c 1
 974.333 91.6667 939.667 55 891 25 c 0
 852.333 1.66667 812 -10.3333 770 -11 c 0
 762 -11 l 0
 708 -10.3333 666.667 8 638 44 c 1
 602 87.3333 594.333 158.667 615 258 c 1
 646 403 l 1
 741 850 l 2
809 97 m 0
 839.667 97 868 112.333 894 143 c 0
 908 159.667 917 176.667 921 194 c 0
 921.667 196.667 921.667 199 921 201 c 1
 927.667 247 917.333 278 890 294 c 0
 879.333 300.667 867 304 853 304 c 1
 816.333 301.333 790.667 285.667 776 257 c 0
 768 242.333 761.333 222 756 196 c 1
 748 144.667 754.667 113.667 776 103 c 0
 784 99 795 97 809 97 c 0
EndSplineSet
EndChar
StartChar: uni0E43
Encoding: 185 3651 187
OldEncoding: 3651
Width: 1000
Flags: W
Fore
828 632 m 2
 779 403 l 1
 772 369 l 1
 786 383 809.667 392 843 396 c 0
 846.333 396.667 850 397 854 397 c 2
 888 395 l 1
 921.333 389.667 948.667 373.667 970 347 c 0
 1009.33 297 1008.33 226.333 967 135 c 1
 946.333 91.6667 911.667 55 863 25 c 0
 825 1.66667 785 -10.3333 743 -11 c 0
 739 -11 739 -11 734 -11 c 0
 680 -10.3333 638.667 8 610 44 c 0
 574.667 87.3333 567.333 158.667 588 258 c 1
 619 403 l 1
 668 634 l 1
 686.667 720.667 711 786 741 830 c 0
 748.333 841.333 756.667 853 766 865 c 0
 775.333 877 807.333 909 862 961 c 1
 937.333 1034.33 984.333 1095.33 1003 1144 c 1
 1012 1180 l 1
 1013.33 1186.67 1014.33 1193.33 1015 1200 c 0
 1017 1278 987.333 1336 926 1374 c 1
 892 1394 855.333 1404 816 1404 c 1
 851.333 1373.33 862 1322 848 1250 c 1
 834 1200 l 1
 817.333 1153.33 795 1116 767 1088 c 0
 699 1021.33 621.333 987.667 534 987 c 0
 515.333 987 496 988.667 476 992 c 0
 406 1003.33 358.667 1037.67 334 1095 c 0
 325.333 1113.67 320.333 1134.33 319 1157 c 0
 317.667 1175 319.333 1195 324 1217 c 0
 337.333 1275.67 364.333 1330 405 1380 c 0
 412.333 1388.67 419.333 1396.33 426 1403 c 0
 520 1491.67 631.333 1543 760 1557 c 0
 779.333 1559 798.333 1560 817 1560 c 2
 877 1557 l 1
 985 1543.67 1063.67 1499.33 1113 1424 c 0
 1147.67 1370.67 1163 1304.67 1159 1226 c 0
 1158.33 1206.67 1156 1187.67 1152 1169 c 0
 1132.67 1081.67 1086.67 1006 1014 942 c 0
 956.667 891.333 917.333 849.333 896 816 c 0
 867.333 772 844.667 710.667 828 632 c 2
782 97 m 0
 812.667 97 841 112.333 867 143 c 0
 880.333 159.667 889 176.667 893 194 c 0
 893.667 196.667 894 199 894 201 c 0
 900.667 247 890 278 862 294 c 1
 852 300.667 840 304 826 304 c 1
 789.333 301.333 763.333 285.667 748 257 c 0
 740.667 242.333 734.333 222 729 196 c 0
 720.333 144.667 726.667 113.667 748 103 c 0
 756.667 99 768 97 782 97 c 0
606 1350 m 0
 564.667 1347.33 527.667 1330 495 1298 c 1
 475.667 1277.33 463.333 1255 458 1231 c 0
 458 1229.67 457.667 1228 457 1226 c 0
 448.333 1172.67 462.667 1135 500 1113 c 0
 516.667 1103.67 537 1099 561 1099 c 1
 596 1102 l 1
 643.333 1111.33 680.333 1134.67 707 1172 c 0
 718.333 1188.67 726 1206.67 730 1226 c 0
 730.667 1227.33 731 1228.67 731 1230 c 0
 738.333 1274 724.667 1307.33 690 1330 c 0
 670 1343.33 645.667 1350 617 1350 c 0
 612 1350 612 1350 606 1350 c 0
EndSplineSet
EndChar
StartChar: uni0E44
Encoding: 186 3652 188
OldEncoding: 3652
Width: 1140
Flags: W
Fore
1114 1341 m 2
 914 403 l 1
 907 369 l 1
 921.667 383 945.333 392 978 396 c 0
 982 396.667 985.667 397 989 397 c 2
 1023 395 l 1
 1056.33 389.667 1083.67 373.667 1105 347 c 0
 1144.33 297 1143.33 226.333 1102 135 c 1
 1081.33 91.6667 1046.67 55 998 25 c 0
 960 1.66667 920 -10.3333 878 -11 c 0
 874 -11 874 -11 869 -11 c 0
 815 -10.3333 773.667 8 745 44 c 0
 709.667 87.3333 702.333 158.667 723 258 c 1
 754 403 l 1
 951 1327 l 1
 965 1393.67 956.333 1427 925 1427 c 0
 901 1427 878 1405.67 856 1363 c 1
 791 1221 l 1
 784.333 1207.67 777.333 1195.33 770 1184 c 0
 730.667 1122 685.333 1083.67 634 1069 c 0
 610.667 1062.33 583 1059 551 1059 c 0
 483 1059 435.667 1083.67 409 1133 c 0
 383.667 1181 363.333 1302.67 348 1498 c 1
 346.667 1506 346 1513.67 346 1521 c 1
 495 1521 l 1
 507 1306 l 1
 509 1240.67 525.333 1198.67 556 1180 c 0
 564 1175.33 572.333 1173 581 1173 c 0
 615 1173 646 1197.33 674 1246 c 0
 680 1256 692.333 1281.33 711 1322 c 1
 759.667 1422 795.333 1482.67 818 1504 c 1
 844 1530.67 881 1550.67 929 1564 c 0
 947.667 1569.33 964 1572 978 1572 c 0
 1066 1568 1114.33 1529.67 1123 1457 c 1
 1123 1411 l 1
 1116 1352 l 1
 1115.33 1348 1114.67 1344.33 1114 1341 c 2
917 97 m 0
 947.667 97 976 112.333 1002 143 c 0
 1015.33 159.667 1024 176.667 1028 194 c 0
 1028.67 196.667 1029 199 1029 201 c 0
 1035.67 247 1025 278 997 294 c 1
 987 300.667 975 304 961 304 c 1
 924.333 301.333 898.667 285.667 884 257 c 0
 876 242.333 869.333 222 864 196 c 0
 855.333 144.667 861.667 113.667 883 103 c 0
 891.667 99 903 97 917 97 c 0
EndSplineSet
EndChar
StartChar: uni0E45
Encoding: 187 3653 189
OldEncoding: 3653
Width: 1000
Flags: W
Fore
1043 753 m 1
 802 -380 l 1
 642 -380 l 1
 877 729 l 1
 911 887 852.333 973 701 987 c 0
 691 988.333 680.667 989 670 989 c 2
 636 986 l 1
 580.667 975.333 526 943.667 472 891 c 0
 446 865 425.333 838.333 410 811 c 1
 242 837 l 1
 278.667 917.667 337.667 988.333 419 1049 c 0
 509.667 1115.67 601 1149 693 1149 c 0
 821 1149 917.333 1115 982 1047 c 1
 1038.67 989 1061.67 908.667 1051 806 c 0
 1049 788.667 1046.33 771 1043 753 c 1
EndSplineSet
EndChar
StartChar: uni0E46
Encoding: 188 3654 190
OldEncoding: 3654
Width: 1100
Flags: W
Fore
457 609 m 1
 483 608 l 1
 512.333 612 538.667 627.333 562 654 c 1
 563.333 656.667 565 659.333 567 662 c 0
 579.667 680 588 698.667 592 718 c 0
 595.333 733.333 596 747.333 594 760 c 0
 590 781.333 578.333 796 559 804 c 0
 557.667 804.667 555.667 805.333 553 806 c 2
 525 808 l 1
 490.333 806 461.667 789.333 439 758 c 1
 434.333 752.667 430.333 746.667 427 740 c 0
 421 727.333 416.667 714.667 414 702 c 1
 411 673 l 1
 415 647 l 1
 423 625.667 437 613 457 609 c 1
708 -374 m 1
 955 789 955 789 961 817 c 128
 965 835.667 962.667 864.333 954 903 c 1
 949.333 929 934 956.333 908 985 c 0
 908 984.333 853 951.667 743 887 c 1
 624 968 l 1
 612.667 976.667 606.333 982.333 605 985 c 1
 584.333 972.333 562.333 948.333 539 913 c 2
 526 892 l 1
 539.333 898 554.333 901 571 901 c 0
 578.333 901 586.667 900.667 596 900 c 0
 640.667 894.667 672.667 867 692 817 c 1
 700 793.667 700.333 765.333 693 732 c 0
 683 685.333 662.667 641.667 632 601 c 0
 602.667 561.667 561.333 534.667 508 520 c 0
 488 514.667 468 512 448 512 c 0
 439.333 512 430.667 512.667 422 514 c 0
 369.333 520 330.333 549.333 305 602 c 0
 303 606.667 300.667 611.333 298 616 c 1
 285.333 650.667 286.333 702.333 301 771 c 0
 304.333 785 308 798 312 810 c 0
 334 876.667 376 945.667 438 1017 c 0
 480.667 1065 534.333 1105 599 1137 c 0
 616.333 1146.33 630.333 1152.33 641 1155 c 1
 641 1154.33 686.333 1118.33 777 1047 c 1
 944 1155 l 1
 981.333 1144.33 1018.33 1116.33 1055 1071 c 0
 1062.33 1061.67 1069.33 1052 1076 1042 c 0
 1103.33 1000.67 1118 941.333 1120 864 c 0
 1121.33 834 1119.67 809 1115 789 c 1
 868 -374 l 1
 708 -374 l 1
EndSplineSet
EndChar
StartChar: uni0E47
Encoding: 189 3655 191
OldEncoding: 3655
Width: 0
Flags: W
Fore
-116 1583 m 0
 -140.667 1581.67 -161 1570 -177 1548 c 1
 -188 1528 l 1
 -190 1517 l 1
 -194 1491 -184.333 1473.67 -161 1465 c 0
 -153.667 1461.67 -144.667 1460 -134 1460 c 0
 -108 1461.33 -87.3333 1473 -72 1495 c 0
 -66.6667 1502.33 -63.3333 1510.33 -62 1519 c 0
 -56 1545.67 -64.3333 1564.67 -87 1576 c 1
 -94.3333 1580.67 -104 1583 -116 1583 c 0
-221 1434 m 0
 -248.333 1454 -258.333 1483.33 -251 1522 c 0
 -248.333 1533.33 -244.333 1543.67 -239 1553 c 0
 -215 1596.33 -177.667 1623 -127 1633 c 0
 -119.667 1634.33 -112 1635.33 -104 1636 c 1
 -66 1634 l 1
 -19.3333 1627.33 9.33333 1604.67 20 1566 c 0
 28 1539.33 28.3333 1509.33 21 1476 c 0
 15 1446.67 4.66667 1419.67 -10 1395 c 0
 -48.6667 1333.67 -99 1297.67 -161 1287 c 0
 -172.333 1285 -183.667 1284 -195 1284 c 0
 -270.333 1284 -330.667 1300.33 -376 1333 c 1
 -419 1362 l 1
 -432.333 1368.67 -446.667 1372 -462 1372 c 0
 -482.667 1372 -497.667 1354 -507 1318 c 0
 -513 1296 -518 1284.67 -522 1284 c 0
 -620.667 1284 -682.667 1320.33 -708 1393 c 0
 -720.667 1428.33 -722.667 1467.33 -714 1510 c 0
 -710 1528.67 -704 1546.33 -696 1563 c 0
 -653.333 1654.33 -582.667 1716.33 -484 1749 c 0
 -482 1749.67 -479.333 1750.33 -476 1751 c 0
 -422.667 1767.67 -351.667 1776.67 -263 1778 c 0
 -202.333 1778.67 -160 1782.33 -136 1789 c 0
 -86.6667 1803 -47 1827.33 -17 1862 c 0
 -7.66667 1872 -0.333333 1882.67 5 1894 c 1
 147 1894 l 1
 131 1840.67 91.6667 1790 29 1742 c 0
 -15 1708 -58.6667 1685.67 -102 1675 c 0
 -136 1666.33 -193.667 1661.33 -275 1660 c 0
 -355 1659.33 -416.667 1649.67 -460 1631 c 0
 -508.667 1609.67 -541.333 1578.33 -558 1537 c 1
 -567 1505 l 1
 -568 1472 l 1
 -566 1444 -555 1430 -535 1430 c 1
 -523 1461 l 1
 -502.333 1503 -471.333 1524 -430 1524 c 0
 -408 1524 -383.667 1511.33 -357 1486 c 0
 -323.667 1455.33 -296.667 1435.33 -276 1426 c 0
 -250 1414.67 -219.667 1409 -185 1409 c 0
 -171.667 1409 -161 1411.67 -153 1417 c 1
 -186 1418 l 1
 -197.333 1420.67 -209 1426 -221 1434 c 0
EndSplineSet
EndChar
StartChar: uni0E48
Encoding: 190 3656 192
OldEncoding: 3656
Width: 0
Flags: W
Fore
114 2106 m 1
 256 2106 l 1
 197 1826 l 1
 55 1826 l 1
 114 2106 l 1
EndSplineSet
EndChar
StartChar: uni0E49
Encoding: 191 3657 193
OldEncoding: 3657
Width: 0
Flags: W
Fore
525 2156 m 1
 463 2020.67 354.667 1910.33 200 1825 c 0
 79.3333 1757.67 -43.3333 1718 -168 1706 c 1
 -229 1703 l 1
 -212 1783 l 1
 -178 1791 -147 1810 -119 1840 c 0
 -109 1851.33 -98 1869 -86 1893 c 1
 -104 1885.67 -122.667 1882 -142 1882 c 0
 -176 1882 -205 1894.67 -229 1920 c 0
 -251.667 1943.33 -258.333 1976.67 -249 2020 c 0
 -247 2030 l 0
 -237 2068.67 -216 2101 -184 2127 c 0
 -152.667 2153 -117 2167.33 -77 2170 c 1
 -55 2170 l 1
 -15 2166.67 14.3333 2157.67 33 2143 c 0
 42.3333 2135 51.6667 2125 61 2113 c 1
 80.3333 2083.67 86 2049 78 2009 c 0
 76.6667 2005.67 75.6667 2002 75 1998 c 0
 59.6667 1942.67 37.3333 1897.33 8 1862 c 2
 -4 1848 l 1
 119.333 1890.67 221.667 1956.67 303 2046 c 0
 335 2080.67 361.667 2117.33 383 2156 c 1
 525 2156 l 1
-111 1945 m 0
 -85.6667 1945 -62 1957 -40 1981 c 0
 -28 1994.33 -20.3333 2008.67 -17 2024 c 0
 -11.6667 2048.67 -19.3333 2069.67 -40 2087 c 0
 -51.3333 2097 -64 2102 -78 2102 c 0
 -105.333 2102 -130 2090 -152 2066 c 0
 -164 2053.33 -171.667 2039.33 -175 2024 c 0
 -181.667 1994 -173 1971.33 -149 1956 c 0
 -137.667 1948.67 -125 1945 -111 1945 c 0
EndSplineSet
EndChar
